<?xml version="1.0" encoding="utf-8" standalone="no"?>
<!DOCTYPE svg PUBLIC "-//W3C//DTD SVG 1.1//EN"
  "http://www.w3.org/Graphics/SVG/1.1/DTD/svg11.dtd">
<svg xmlns:xlink="http://www.w3.org/1999/xlink" width="460.8pt" height="345.6pt" viewBox="0 0 460.8 345.6" xmlns="http://www.w3.org/2000/svg" version="1.1">
 <metadata>
  <rdf:RDF xmlns:dc="http://purl.org/dc/elements/1.1/" xmlns:cc="http://creativecommons.org/ns#" xmlns:rdf="http://www.w3.org/1999/02/22-rdf-syntax-ns#">
   <cc:Work>
    <dc:type rdf:resource="http://purl.org/dc/dcmitype/StillImage"/>
    <dc:date>2024-05-03T10:08:57.195496</dc:date>
    <dc:format>image/svg+xml</dc:format>
    <dc:creator>
     <cc:Agent>
      <dc:title>Matplotlib v3.8.4, https://matplotlib.org/</dc:title>
     </cc:Agent>
    </dc:creator>
   </cc:Work>
  </rdf:RDF>
 </metadata>
 <defs>
  <style type="text/css">*{stroke-linejoin: round; stroke-linecap: butt}</style>
 </defs>
 <g id="figure_1">
  <g id="patch_1">
   <path d="M 0 345.6 
L 460.8 345.6 
L 460.8 0 
L 0 0 
z
" style="fill: #ffffff"/>
  </g>
  <g id="axes_1">
   <g id="patch_2">
    <path d="M 59.24 303.64 
L 450 303.64 
L 450 10.8 
L 59.24 10.8 
z
" style="fill: #ffffff"/>
   </g>
   <g id="matplotlib.axis_1">
    <g id="xtick_1">
     <g id="line2d_1">
      <defs>
       <path id="mfd0fedde6a" d="M 0 0 
L 0 3.5 
" style="stroke: #000000; stroke-width: 0.8"/>
      </defs>
      <g>
       <use xlink:href="#mfd0fedde6a" x="77.001818" y="303.64" style="stroke: #000000; stroke-width: 0.8"/>
      </g>
     </g>
     <g id="text_1">
      <!-- 0 -->
      <g transform="translate(73.820568 318.238437) scale(0.1 -0.1)">
       <defs>
        <path id="DejaVuSans-30" d="M 2034 4250 
Q 1547 4250 1301 3770 
Q 1056 3291 1056 2328 
Q 1056 1369 1301 889 
Q 1547 409 2034 409 
Q 2525 409 2770 889 
Q 3016 1369 3016 2328 
Q 3016 3291 2770 3770 
Q 2525 4250 2034 4250 
z
M 2034 4750 
Q 2819 4750 3233 4129 
Q 3647 3509 3647 2328 
Q 3647 1150 3233 529 
Q 2819 -91 2034 -91 
Q 1250 -91 836 529 
Q 422 1150 422 2328 
Q 422 3509 836 4129 
Q 1250 4750 2034 4750 
z
" transform="scale(0.015625)"/>
       </defs>
       <use xlink:href="#DejaVuSans-30"/>
      </g>
     </g>
    </g>
    <g id="xtick_2">
     <g id="line2d_2">
      <g>
       <use xlink:href="#mfd0fedde6a" x="148.19147" y="303.64" style="stroke: #000000; stroke-width: 0.8"/>
      </g>
     </g>
     <g id="text_2">
      <!-- 100 -->
      <g transform="translate(138.64772 318.238437) scale(0.1 -0.1)">
       <defs>
        <path id="DejaVuSans-31" d="M 794 531 
L 1825 531 
L 1825 4091 
L 703 3866 
L 703 4441 
L 1819 4666 
L 2450 4666 
L 2450 531 
L 3481 531 
L 3481 0 
L 794 0 
L 794 531 
z
" transform="scale(0.015625)"/>
       </defs>
       <use xlink:href="#DejaVuSans-31"/>
       <use xlink:href="#DejaVuSans-30" x="63.623047"/>
       <use xlink:href="#DejaVuSans-30" x="127.246094"/>
      </g>
     </g>
    </g>
    <g id="xtick_3">
     <g id="line2d_3">
      <g>
       <use xlink:href="#mfd0fedde6a" x="219.381122" y="303.64" style="stroke: #000000; stroke-width: 0.8"/>
      </g>
     </g>
     <g id="text_3">
      <!-- 200 -->
      <g transform="translate(209.837372 318.238437) scale(0.1 -0.1)">
       <defs>
        <path id="DejaVuSans-32" d="M 1228 531 
L 3431 531 
L 3431 0 
L 469 0 
L 469 531 
Q 828 903 1448 1529 
Q 2069 2156 2228 2338 
Q 2531 2678 2651 2914 
Q 2772 3150 2772 3378 
Q 2772 3750 2511 3984 
Q 2250 4219 1831 4219 
Q 1534 4219 1204 4116 
Q 875 4013 500 3803 
L 500 4441 
Q 881 4594 1212 4672 
Q 1544 4750 1819 4750 
Q 2544 4750 2975 4387 
Q 3406 4025 3406 3419 
Q 3406 3131 3298 2873 
Q 3191 2616 2906 2266 
Q 2828 2175 2409 1742 
Q 1991 1309 1228 531 
z
" transform="scale(0.015625)"/>
       </defs>
       <use xlink:href="#DejaVuSans-32"/>
       <use xlink:href="#DejaVuSans-30" x="63.623047"/>
       <use xlink:href="#DejaVuSans-30" x="127.246094"/>
      </g>
     </g>
    </g>
    <g id="xtick_4">
     <g id="line2d_4">
      <g>
       <use xlink:href="#mfd0fedde6a" x="290.570774" y="303.64" style="stroke: #000000; stroke-width: 0.8"/>
      </g>
     </g>
     <g id="text_4">
      <!-- 300 -->
      <g transform="translate(281.027024 318.238437) scale(0.1 -0.1)">
       <defs>
        <path id="DejaVuSans-33" d="M 2597 2516 
Q 3050 2419 3304 2112 
Q 3559 1806 3559 1356 
Q 3559 666 3084 287 
Q 2609 -91 1734 -91 
Q 1441 -91 1130 -33 
Q 819 25 488 141 
L 488 750 
Q 750 597 1062 519 
Q 1375 441 1716 441 
Q 2309 441 2620 675 
Q 2931 909 2931 1356 
Q 2931 1769 2642 2001 
Q 2353 2234 1838 2234 
L 1294 2234 
L 1294 2753 
L 1863 2753 
Q 2328 2753 2575 2939 
Q 2822 3125 2822 3475 
Q 2822 3834 2567 4026 
Q 2313 4219 1838 4219 
Q 1578 4219 1281 4162 
Q 984 4106 628 3988 
L 628 4550 
Q 988 4650 1302 4700 
Q 1616 4750 1894 4750 
Q 2613 4750 3031 4423 
Q 3450 4097 3450 3541 
Q 3450 3153 3228 2886 
Q 3006 2619 2597 2516 
z
" transform="scale(0.015625)"/>
       </defs>
       <use xlink:href="#DejaVuSans-33"/>
       <use xlink:href="#DejaVuSans-30" x="63.623047"/>
       <use xlink:href="#DejaVuSans-30" x="127.246094"/>
      </g>
     </g>
    </g>
    <g id="xtick_5">
     <g id="line2d_5">
      <g>
       <use xlink:href="#mfd0fedde6a" x="361.760426" y="303.64" style="stroke: #000000; stroke-width: 0.8"/>
      </g>
     </g>
     <g id="text_5">
      <!-- 400 -->
      <g transform="translate(352.216676 318.238437) scale(0.1 -0.1)">
       <defs>
        <path id="DejaVuSans-34" d="M 2419 4116 
L 825 1625 
L 2419 1625 
L 2419 4116 
z
M 2253 4666 
L 3047 4666 
L 3047 1625 
L 3713 1625 
L 3713 1100 
L 3047 1100 
L 3047 0 
L 2419 0 
L 2419 1100 
L 313 1100 
L 313 1709 
L 2253 4666 
z
" transform="scale(0.015625)"/>
       </defs>
       <use xlink:href="#DejaVuSans-34"/>
       <use xlink:href="#DejaVuSans-30" x="63.623047"/>
       <use xlink:href="#DejaVuSans-30" x="127.246094"/>
      </g>
     </g>
    </g>
    <g id="xtick_6">
     <g id="line2d_6">
      <g>
       <use xlink:href="#mfd0fedde6a" x="432.950078" y="303.64" style="stroke: #000000; stroke-width: 0.8"/>
      </g>
     </g>
     <g id="text_6">
      <!-- 500 -->
      <g transform="translate(423.406328 318.238437) scale(0.1 -0.1)">
       <defs>
        <path id="DejaVuSans-35" d="M 691 4666 
L 3169 4666 
L 3169 4134 
L 1269 4134 
L 1269 2991 
Q 1406 3038 1543 3061 
Q 1681 3084 1819 3084 
Q 2600 3084 3056 2656 
Q 3513 2228 3513 1497 
Q 3513 744 3044 326 
Q 2575 -91 1722 -91 
Q 1428 -91 1123 -41 
Q 819 9 494 109 
L 494 744 
Q 775 591 1075 516 
Q 1375 441 1709 441 
Q 2250 441 2565 725 
Q 2881 1009 2881 1497 
Q 2881 1984 2565 2268 
Q 2250 2553 1709 2553 
Q 1456 2553 1204 2497 
Q 953 2441 691 2322 
L 691 4666 
z
" transform="scale(0.015625)"/>
       </defs>
       <use xlink:href="#DejaVuSans-35"/>
       <use xlink:href="#DejaVuSans-30" x="63.623047"/>
       <use xlink:href="#DejaVuSans-30" x="127.246094"/>
      </g>
     </g>
    </g>
    <g id="text_7">
     <!-- True values -->
     <g transform="translate(226.15125 331.916562) scale(0.1 -0.1)">
      <defs>
       <path id="DejaVuSans-54" d="M -19 4666 
L 3928 4666 
L 3928 4134 
L 2272 4134 
L 2272 0 
L 1638 0 
L 1638 4134 
L -19 4134 
L -19 4666 
z
" transform="scale(0.015625)"/>
       <path id="DejaVuSans-72" d="M 2631 2963 
Q 2534 3019 2420 3045 
Q 2306 3072 2169 3072 
Q 1681 3072 1420 2755 
Q 1159 2438 1159 1844 
L 1159 0 
L 581 0 
L 581 3500 
L 1159 3500 
L 1159 2956 
Q 1341 3275 1631 3429 
Q 1922 3584 2338 3584 
Q 2397 3584 2469 3576 
Q 2541 3569 2628 3553 
L 2631 2963 
z
" transform="scale(0.015625)"/>
       <path id="DejaVuSans-75" d="M 544 1381 
L 544 3500 
L 1119 3500 
L 1119 1403 
Q 1119 906 1312 657 
Q 1506 409 1894 409 
Q 2359 409 2629 706 
Q 2900 1003 2900 1516 
L 2900 3500 
L 3475 3500 
L 3475 0 
L 2900 0 
L 2900 538 
Q 2691 219 2414 64 
Q 2138 -91 1772 -91 
Q 1169 -91 856 284 
Q 544 659 544 1381 
z
M 1991 3584 
L 1991 3584 
z
" transform="scale(0.015625)"/>
       <path id="DejaVuSans-65" d="M 3597 1894 
L 3597 1613 
L 953 1613 
Q 991 1019 1311 708 
Q 1631 397 2203 397 
Q 2534 397 2845 478 
Q 3156 559 3463 722 
L 3463 178 
Q 3153 47 2828 -22 
Q 2503 -91 2169 -91 
Q 1331 -91 842 396 
Q 353 884 353 1716 
Q 353 2575 817 3079 
Q 1281 3584 2069 3584 
Q 2775 3584 3186 3129 
Q 3597 2675 3597 1894 
z
M 3022 2063 
Q 3016 2534 2758 2815 
Q 2500 3097 2075 3097 
Q 1594 3097 1305 2825 
Q 1016 2553 972 2059 
L 3022 2063 
z
" transform="scale(0.015625)"/>
       <path id="DejaVuSans-20" transform="scale(0.015625)"/>
       <path id="DejaVuSans-76" d="M 191 3500 
L 800 3500 
L 1894 563 
L 2988 3500 
L 3597 3500 
L 2284 0 
L 1503 0 
L 191 3500 
z
" transform="scale(0.015625)"/>
       <path id="DejaVuSans-61" d="M 2194 1759 
Q 1497 1759 1228 1600 
Q 959 1441 959 1056 
Q 959 750 1161 570 
Q 1363 391 1709 391 
Q 2188 391 2477 730 
Q 2766 1069 2766 1631 
L 2766 1759 
L 2194 1759 
z
M 3341 1997 
L 3341 0 
L 2766 0 
L 2766 531 
Q 2569 213 2275 61 
Q 1981 -91 1556 -91 
Q 1019 -91 701 211 
Q 384 513 384 1019 
Q 384 1609 779 1909 
Q 1175 2209 1959 2209 
L 2766 2209 
L 2766 2266 
Q 2766 2663 2505 2880 
Q 2244 3097 1772 3097 
Q 1472 3097 1187 3025 
Q 903 2953 641 2809 
L 641 3341 
Q 956 3463 1253 3523 
Q 1550 3584 1831 3584 
Q 2591 3584 2966 3190 
Q 3341 2797 3341 1997 
z
" transform="scale(0.015625)"/>
       <path id="DejaVuSans-6c" d="M 603 4863 
L 1178 4863 
L 1178 0 
L 603 0 
L 603 4863 
z
" transform="scale(0.015625)"/>
       <path id="DejaVuSans-73" d="M 2834 3397 
L 2834 2853 
Q 2591 2978 2328 3040 
Q 2066 3103 1784 3103 
Q 1356 3103 1142 2972 
Q 928 2841 928 2578 
Q 928 2378 1081 2264 
Q 1234 2150 1697 2047 
L 1894 2003 
Q 2506 1872 2764 1633 
Q 3022 1394 3022 966 
Q 3022 478 2636 193 
Q 2250 -91 1575 -91 
Q 1294 -91 989 -36 
Q 684 19 347 128 
L 347 722 
Q 666 556 975 473 
Q 1284 391 1588 391 
Q 1994 391 2212 530 
Q 2431 669 2431 922 
Q 2431 1156 2273 1281 
Q 2116 1406 1581 1522 
L 1381 1569 
Q 847 1681 609 1914 
Q 372 2147 372 2553 
Q 372 3047 722 3315 
Q 1072 3584 1716 3584 
Q 2034 3584 2315 3537 
Q 2597 3491 2834 3397 
z
" transform="scale(0.015625)"/>
      </defs>
      <use xlink:href="#DejaVuSans-54"/>
      <use xlink:href="#DejaVuSans-72" x="46.333984"/>
      <use xlink:href="#DejaVuSans-75" x="87.447266"/>
      <use xlink:href="#DejaVuSans-65" x="150.826172"/>
      <use xlink:href="#DejaVuSans-20" x="212.349609"/>
      <use xlink:href="#DejaVuSans-76" x="244.136719"/>
      <use xlink:href="#DejaVuSans-61" x="303.316406"/>
      <use xlink:href="#DejaVuSans-6c" x="364.595703"/>
      <use xlink:href="#DejaVuSans-75" x="392.378906"/>
      <use xlink:href="#DejaVuSans-65" x="455.757812"/>
      <use xlink:href="#DejaVuSans-73" x="517.28125"/>
     </g>
    </g>
   </g>
   <g id="matplotlib.axis_2">
    <g id="ytick_1">
     <g id="line2d_7">
      <defs>
       <path id="m70142b1843" d="M 0 0 
L -3.5 0 
" style="stroke: #000000; stroke-width: 0.8"/>
      </defs>
      <g>
       <use xlink:href="#m70142b1843" x="59.24" y="291.80418" style="stroke: #000000; stroke-width: 0.8"/>
      </g>
     </g>
     <g id="text_8">
      <!-- −100 -->
      <g transform="translate(24.772813 295.603398) scale(0.1 -0.1)">
       <defs>
        <path id="DejaVuSans-2212" d="M 678 2272 
L 4684 2272 
L 4684 1741 
L 678 1741 
L 678 2272 
z
" transform="scale(0.015625)"/>
       </defs>
       <use xlink:href="#DejaVuSans-2212"/>
       <use xlink:href="#DejaVuSans-31" x="83.789062"/>
       <use xlink:href="#DejaVuSans-30" x="147.412109"/>
       <use xlink:href="#DejaVuSans-30" x="211.035156"/>
      </g>
     </g>
    </g>
    <g id="ytick_2">
     <g id="line2d_8">
      <g>
       <use xlink:href="#m70142b1843" x="59.24" y="247.114151" style="stroke: #000000; stroke-width: 0.8"/>
      </g>
     </g>
     <g id="text_9">
      <!-- 0 -->
      <g transform="translate(45.8775 250.91337) scale(0.1 -0.1)">
       <use xlink:href="#DejaVuSans-30"/>
      </g>
     </g>
    </g>
    <g id="ytick_3">
     <g id="line2d_9">
      <g>
       <use xlink:href="#m70142b1843" x="59.24" y="202.424123" style="stroke: #000000; stroke-width: 0.8"/>
      </g>
     </g>
     <g id="text_10">
      <!-- 100 -->
      <g transform="translate(33.1525 206.223341) scale(0.1 -0.1)">
       <use xlink:href="#DejaVuSans-31"/>
       <use xlink:href="#DejaVuSans-30" x="63.623047"/>
       <use xlink:href="#DejaVuSans-30" x="127.246094"/>
      </g>
     </g>
    </g>
    <g id="ytick_4">
     <g id="line2d_10">
      <g>
       <use xlink:href="#m70142b1843" x="59.24" y="157.734094" style="stroke: #000000; stroke-width: 0.8"/>
      </g>
     </g>
     <g id="text_11">
      <!-- 200 -->
      <g transform="translate(33.1525 161.533313) scale(0.1 -0.1)">
       <use xlink:href="#DejaVuSans-32"/>
       <use xlink:href="#DejaVuSans-30" x="63.623047"/>
       <use xlink:href="#DejaVuSans-30" x="127.246094"/>
      </g>
     </g>
    </g>
    <g id="ytick_5">
     <g id="line2d_11">
      <g>
       <use xlink:href="#m70142b1843" x="59.24" y="113.044066" style="stroke: #000000; stroke-width: 0.8"/>
      </g>
     </g>
     <g id="text_12">
      <!-- 300 -->
      <g transform="translate(33.1525 116.843285) scale(0.1 -0.1)">
       <use xlink:href="#DejaVuSans-33"/>
       <use xlink:href="#DejaVuSans-30" x="63.623047"/>
       <use xlink:href="#DejaVuSans-30" x="127.246094"/>
      </g>
     </g>
    </g>
    <g id="ytick_6">
     <g id="line2d_12">
      <g>
       <use xlink:href="#m70142b1843" x="59.24" y="68.354037" style="stroke: #000000; stroke-width: 0.8"/>
      </g>
     </g>
     <g id="text_13">
      <!-- 400 -->
      <g transform="translate(33.1525 72.153256) scale(0.1 -0.1)">
       <use xlink:href="#DejaVuSans-34"/>
       <use xlink:href="#DejaVuSans-30" x="63.623047"/>
       <use xlink:href="#DejaVuSans-30" x="127.246094"/>
      </g>
     </g>
    </g>
    <g id="ytick_7">
     <g id="line2d_13">
      <g>
       <use xlink:href="#m70142b1843" x="59.24" y="23.664009" style="stroke: #000000; stroke-width: 0.8"/>
      </g>
     </g>
     <g id="text_14">
      <!-- 500 -->
      <g transform="translate(33.1525 27.463228) scale(0.1 -0.1)">
       <use xlink:href="#DejaVuSans-35"/>
       <use xlink:href="#DejaVuSans-30" x="63.623047"/>
       <use xlink:href="#DejaVuSans-30" x="127.246094"/>
      </g>
     </g>
    </g>
    <g id="text_15">
     <!-- Predicted values -->
     <g transform="translate(18.693125 198.541875) rotate(-90) scale(0.1 -0.1)">
      <defs>
       <path id="DejaVuSans-50" d="M 1259 4147 
L 1259 2394 
L 2053 2394 
Q 2494 2394 2734 2622 
Q 2975 2850 2975 3272 
Q 2975 3691 2734 3919 
Q 2494 4147 2053 4147 
L 1259 4147 
z
M 628 4666 
L 2053 4666 
Q 2838 4666 3239 4311 
Q 3641 3956 3641 3272 
Q 3641 2581 3239 2228 
Q 2838 1875 2053 1875 
L 1259 1875 
L 1259 0 
L 628 0 
L 628 4666 
z
" transform="scale(0.015625)"/>
       <path id="DejaVuSans-64" d="M 2906 2969 
L 2906 4863 
L 3481 4863 
L 3481 0 
L 2906 0 
L 2906 525 
Q 2725 213 2448 61 
Q 2172 -91 1784 -91 
Q 1150 -91 751 415 
Q 353 922 353 1747 
Q 353 2572 751 3078 
Q 1150 3584 1784 3584 
Q 2172 3584 2448 3432 
Q 2725 3281 2906 2969 
z
M 947 1747 
Q 947 1113 1208 752 
Q 1469 391 1925 391 
Q 2381 391 2643 752 
Q 2906 1113 2906 1747 
Q 2906 2381 2643 2742 
Q 2381 3103 1925 3103 
Q 1469 3103 1208 2742 
Q 947 2381 947 1747 
z
" transform="scale(0.015625)"/>
       <path id="DejaVuSans-69" d="M 603 3500 
L 1178 3500 
L 1178 0 
L 603 0 
L 603 3500 
z
M 603 4863 
L 1178 4863 
L 1178 4134 
L 603 4134 
L 603 4863 
z
" transform="scale(0.015625)"/>
       <path id="DejaVuSans-63" d="M 3122 3366 
L 3122 2828 
Q 2878 2963 2633 3030 
Q 2388 3097 2138 3097 
Q 1578 3097 1268 2742 
Q 959 2388 959 1747 
Q 959 1106 1268 751 
Q 1578 397 2138 397 
Q 2388 397 2633 464 
Q 2878 531 3122 666 
L 3122 134 
Q 2881 22 2623 -34 
Q 2366 -91 2075 -91 
Q 1284 -91 818 406 
Q 353 903 353 1747 
Q 353 2603 823 3093 
Q 1294 3584 2113 3584 
Q 2378 3584 2631 3529 
Q 2884 3475 3122 3366 
z
" transform="scale(0.015625)"/>
       <path id="DejaVuSans-74" d="M 1172 4494 
L 1172 3500 
L 2356 3500 
L 2356 3053 
L 1172 3053 
L 1172 1153 
Q 1172 725 1289 603 
Q 1406 481 1766 481 
L 2356 481 
L 2356 0 
L 1766 0 
Q 1100 0 847 248 
Q 594 497 594 1153 
L 594 3053 
L 172 3053 
L 172 3500 
L 594 3500 
L 594 4494 
L 1172 4494 
z
" transform="scale(0.015625)"/>
      </defs>
      <use xlink:href="#DejaVuSans-50"/>
      <use xlink:href="#DejaVuSans-72" x="58.552734"/>
      <use xlink:href="#DejaVuSans-65" x="97.416016"/>
      <use xlink:href="#DejaVuSans-64" x="158.939453"/>
      <use xlink:href="#DejaVuSans-69" x="222.416016"/>
      <use xlink:href="#DejaVuSans-63" x="250.199219"/>
      <use xlink:href="#DejaVuSans-74" x="305.179688"/>
      <use xlink:href="#DejaVuSans-65" x="344.388672"/>
      <use xlink:href="#DejaVuSans-64" x="405.912109"/>
      <use xlink:href="#DejaVuSans-20" x="469.388672"/>
      <use xlink:href="#DejaVuSans-76" x="501.175781"/>
      <use xlink:href="#DejaVuSans-61" x="560.355469"/>
      <use xlink:href="#DejaVuSans-6c" x="621.634766"/>
      <use xlink:href="#DejaVuSans-75" x="649.417969"/>
      <use xlink:href="#DejaVuSans-65" x="712.796875"/>
      <use xlink:href="#DejaVuSans-73" x="774.320312"/>
     </g>
    </g>
   </g>
   <g id="line2d_14">
    <defs>
     <path id="m9e88f1268c" d="M 0 3 
C 0.795609 3 1.55874 2.683901 2.12132 2.12132 
C 2.683901 1.55874 3 0.795609 3 0 
C 3 -0.795609 2.683901 -1.55874 2.12132 -2.12132 
C 1.55874 -2.683901 0.795609 -3 0 -3 
C -0.795609 -3 -1.55874 -2.683901 -2.12132 -2.12132 
C -2.683901 -1.55874 -3 -0.795609 -3 0 
C -3 0.795609 -2.683901 1.55874 -2.12132 2.12132 
C -1.55874 2.683901 -0.795609 3 0 3 
z
" style="stroke: #1f77b4"/>
    </defs>
    <g clip-path="url(#pca3ab72969)">
     <use xlink:href="#m9e88f1268c" x="91.083132" y="235.593666" style="fill: #1f77b4; stroke: #1f77b4"/>
     <use xlink:href="#m9e88f1268c" x="103.576917" y="149.784521" style="fill: #1f77b4; stroke: #1f77b4"/>
     <use xlink:href="#m9e88f1268c" x="160.549995" y="159.264531" style="fill: #1f77b4; stroke: #1f77b4"/>
     <use xlink:href="#m9e88f1268c" x="146.924295" y="178.799376" style="fill: #1f77b4; stroke: #1f77b4"/>
     <use xlink:href="#m9e88f1268c" x="181.401439" y="162.588126" style="fill: #1f77b4; stroke: #1f77b4"/>
     <use xlink:href="#m9e88f1268c" x="196.913669" y="176.998696" style="fill: #1f77b4; stroke: #1f77b4"/>
     <use xlink:href="#m9e88f1268c" x="218.313277" y="150.876729" style="fill: #1f77b4; stroke: #1f77b4"/>
     <use xlink:href="#m9e88f1268c" x="241.264825" y="152.611108" style="fill: #1f77b4; stroke: #1f77b4"/>
     <use xlink:href="#m9e88f1268c" x="261.062655" y="128.570399" style="fill: #1f77b4; stroke: #1f77b4"/>
     <use xlink:href="#m9e88f1268c" x="280.803553" y="134.715258" style="fill: #1f77b4; stroke: #1f77b4"/>
     <use xlink:href="#m9e88f1268c" x="289.303599" y="116.011268" style="fill: #1f77b4; stroke: #1f77b4"/>
     <use xlink:href="#m9e88f1268c" x="294.037707" y="90.981002" style="fill: #1f77b4; stroke: #1f77b4"/>
     <use xlink:href="#m9e88f1268c" x="318.48423" y="80.688746" style="fill: #1f77b4; stroke: #1f77b4"/>
     <use xlink:href="#m9e88f1268c" x="323.303784" y="83.196955" style="fill: #1f77b4; stroke: #1f77b4"/>
     <use xlink:href="#m9e88f1268c" x="353.993632" y="83.370352" style="fill: #1f77b4; stroke: #1f77b4"/>
     <use xlink:href="#m9e88f1268c" x="344.511166" y="101.23533" style="fill: #1f77b4; stroke: #1f77b4"/>
     <use xlink:href="#m9e88f1268c" x="361.596682" y="98.016129" style="fill: #1f77b4; stroke: #1f77b4"/>
     <use xlink:href="#m9e88f1268c" x="411.692859" y="83.844148" style="fill: #1f77b4; stroke: #1f77b4"/>
     <use xlink:href="#m9e88f1268c" x="412.945782" y="68.79524" style="fill: #1f77b4; stroke: #1f77b4"/>
     <use xlink:href="#m9e88f1268c" x="402.637534" y="63.651792" style="fill: #1f77b4; stroke: #1f77b4"/>
     <use xlink:href="#m9e88f1268c" x="403.185686" y="71.851208" style="fill: #1f77b4; stroke: #1f77b4"/>
     <use xlink:href="#m9e88f1268c" x="395.169725" y="44.715354" style="fill: #1f77b4; stroke: #1f77b4"/>
     <use xlink:href="#m9e88f1268c" x="388.869437" y="36.379046" style="fill: #1f77b4; stroke: #1f77b4"/>
     <use xlink:href="#m9e88f1268c" x="382.462368" y="39.464441" style="fill: #1f77b4; stroke: #1f77b4"/>
     <use xlink:href="#m9e88f1268c" x="352.498645" y="41.828796" style="fill: #1f77b4; stroke: #1f77b4"/>
     <use xlink:href="#m9e88f1268c" x="324.983849" y="60.524822" style="fill: #1f77b4; stroke: #1f77b4"/>
     <use xlink:href="#m9e88f1268c" x="347.437072" y="59.608826" style="fill: #1f77b4; stroke: #1f77b4"/>
     <use xlink:href="#m9e88f1268c" x="331.647212" y="73.684942" style="fill: #1f77b4; stroke: #1f77b4"/>
     <use xlink:href="#m9e88f1268c" x="290.86978" y="83.126155" style="fill: #1f77b4; stroke: #1f77b4"/>
     <use xlink:href="#m9e88f1268c" x="301.19228" y="106.231096" style="fill: #1f77b4; stroke: #1f77b4"/>
     <use xlink:href="#m9e88f1268c" x="250.377092" y="97.761192" style="fill: #1f77b4; stroke: #1f77b4"/>
     <use xlink:href="#m9e88f1268c" x="242.418094" y="115.795391" style="fill: #1f77b4; stroke: #1f77b4"/>
     <use xlink:href="#m9e88f1268c" x="212.440131" y="122.015605" style="fill: #1f77b4; stroke: #1f77b4"/>
     <use xlink:href="#m9e88f1268c" x="188.164456" y="131.787604" style="fill: #1f77b4; stroke: #1f77b4"/>
     <use xlink:href="#m9e88f1268c" x="186.413196" y="140.784387" style="fill: #1f77b4; stroke: #1f77b4"/>
     <use xlink:href="#m9e88f1268c" x="168.245594" y="149.602162" style="fill: #1f77b4; stroke: #1f77b4"/>
     <use xlink:href="#m9e88f1268c" x="144.147898" y="173.367325" style="fill: #1f77b4; stroke: #1f77b4"/>
     <use xlink:href="#m9e88f1268c" x="126.136914" y="227.885012" style="fill: #1f77b4; stroke: #1f77b4"/>
     <use xlink:href="#m9e88f1268c" x="110.638929" y="213.072" style="fill: #1f77b4; stroke: #1f77b4"/>
     <use xlink:href="#m9e88f1268c" x="94.628376" y="175.856833" style="fill: #1f77b4; stroke: #1f77b4"/>
     <use xlink:href="#m9e88f1268c" x="83.209556" y="221.106068" style="fill: #1f77b4; stroke: #1f77b4"/>
     <use xlink:href="#m9e88f1268c" x="78.069663" y="281.244577" style="fill: #1f77b4; stroke: #1f77b4"/>
     <use xlink:href="#m9e88f1268c" x="77.001818" y="255.441035" style="fill: #1f77b4; stroke: #1f77b4"/>
    </g>
   </g>
   <g id="line2d_15">
    <defs>
     <path id="m02d679d242" d="M 0 3 
C 0.795609 3 1.55874 2.683901 2.12132 2.12132 
C 2.683901 1.55874 3 0.795609 3 0 
C 3 -0.795609 2.683901 -1.55874 2.12132 -2.12132 
C 1.55874 -2.683901 0.795609 -3 0 -3 
C -0.795609 -3 -1.55874 -2.683901 -2.12132 -2.12132 
C -2.683901 -1.55874 -3 -0.795609 -3 0 
C -3 0.795609 -2.683901 1.55874 -2.12132 2.12132 
C -1.55874 2.683901 -0.795609 3 0 3 
z
" style="stroke: #ff7f0e"/>
    </defs>
    <g clip-path="url(#pca3ab72969)">
     <use xlink:href="#m02d679d242" x="91.083132" y="246.329375" style="fill: #ff7f0e; stroke: #ff7f0e"/>
     <use xlink:href="#m02d679d242" x="103.576917" y="267.038326" style="fill: #ff7f0e; stroke: #ff7f0e"/>
     <use xlink:href="#m02d679d242" x="160.549995" y="180.078708" style="fill: #ff7f0e; stroke: #ff7f0e"/>
     <use xlink:href="#m02d679d242" x="146.924295" y="205.787975" style="fill: #ff7f0e; stroke: #ff7f0e"/>
     <use xlink:href="#m02d679d242" x="181.401439" y="149.160543" style="fill: #ff7f0e; stroke: #ff7f0e"/>
     <use xlink:href="#m02d679d242" x="196.913669" y="210.364596" style="fill: #ff7f0e; stroke: #ff7f0e"/>
     <use xlink:href="#m02d679d242" x="218.313277" y="183.91524" style="fill: #ff7f0e; stroke: #ff7f0e"/>
     <use xlink:href="#m02d679d242" x="241.264825" y="117.654772" style="fill: #ff7f0e; stroke: #ff7f0e"/>
     <use xlink:href="#m02d679d242" x="261.062655" y="183.80609" style="fill: #ff7f0e; stroke: #ff7f0e"/>
     <use xlink:href="#m02d679d242" x="280.803553" y="201.810705" style="fill: #ff7f0e; stroke: #ff7f0e"/>
     <use xlink:href="#m02d679d242" x="289.303599" y="182.768066" style="fill: #ff7f0e; stroke: #ff7f0e"/>
     <use xlink:href="#m02d679d242" x="294.037707" y="158.187656" style="fill: #ff7f0e; stroke: #ff7f0e"/>
     <use xlink:href="#m02d679d242" x="318.48423" y="119.940856" style="fill: #ff7f0e; stroke: #ff7f0e"/>
     <use xlink:href="#m02d679d242" x="323.303784" y="133.806427" style="fill: #ff7f0e; stroke: #ff7f0e"/>
     <use xlink:href="#m02d679d242" x="353.993632" y="144.104683" style="fill: #ff7f0e; stroke: #ff7f0e"/>
     <use xlink:href="#m02d679d242" x="344.511166" y="139.629524" style="fill: #ff7f0e; stroke: #ff7f0e"/>
     <use xlink:href="#m02d679d242" x="361.596682" y="136.193608" style="fill: #ff7f0e; stroke: #ff7f0e"/>
     <use xlink:href="#m02d679d242" x="411.692859" y="139.921563" style="fill: #ff7f0e; stroke: #ff7f0e"/>
     <use xlink:href="#m02d679d242" x="412.945782" y="102.993091" style="fill: #ff7f0e; stroke: #ff7f0e"/>
     <use xlink:href="#m02d679d242" x="402.637534" y="104.187142" style="fill: #ff7f0e; stroke: #ff7f0e"/>
     <use xlink:href="#m02d679d242" x="403.185686" y="101.569849" style="fill: #ff7f0e; stroke: #ff7f0e"/>
     <use xlink:href="#m02d679d242" x="395.169725" y="97.558261" style="fill: #ff7f0e; stroke: #ff7f0e"/>
     <use xlink:href="#m02d679d242" x="388.869437" y="44.93709" style="fill: #ff7f0e; stroke: #ff7f0e"/>
     <use xlink:href="#m02d679d242" x="382.462368" y="71.13392" style="fill: #ff7f0e; stroke: #ff7f0e"/>
     <use xlink:href="#m02d679d242" x="352.498645" y="31.421571" style="fill: #ff7f0e; stroke: #ff7f0e"/>
     <use xlink:href="#m02d679d242" x="324.983849" y="96.174553" style="fill: #ff7f0e; stroke: #ff7f0e"/>
     <use xlink:href="#m02d679d242" x="347.437072" y="101.617893" style="fill: #ff7f0e; stroke: #ff7f0e"/>
     <use xlink:href="#m02d679d242" x="331.647212" y="106.611043" style="fill: #ff7f0e; stroke: #ff7f0e"/>
     <use xlink:href="#m02d679d242" x="290.86978" y="103.221175" style="fill: #ff7f0e; stroke: #ff7f0e"/>
     <use xlink:href="#m02d679d242" x="301.19228" y="114.170967" style="fill: #ff7f0e; stroke: #ff7f0e"/>
     <use xlink:href="#m02d679d242" x="250.377092" y="115.978598" style="fill: #ff7f0e; stroke: #ff7f0e"/>
     <use xlink:href="#m02d679d242" x="242.418094" y="118.178667" style="fill: #ff7f0e; stroke: #ff7f0e"/>
     <use xlink:href="#m02d679d242" x="212.440131" y="120.465687" style="fill: #ff7f0e; stroke: #ff7f0e"/>
     <use xlink:href="#m02d679d242" x="188.164456" y="159.051215" style="fill: #ff7f0e; stroke: #ff7f0e"/>
     <use xlink:href="#m02d679d242" x="186.413196" y="180.012862" style="fill: #ff7f0e; stroke: #ff7f0e"/>
     <use xlink:href="#m02d679d242" x="168.245594" y="184.442677" style="fill: #ff7f0e; stroke: #ff7f0e"/>
     <use xlink:href="#m02d679d242" x="144.147898" y="228.683522" style="fill: #ff7f0e; stroke: #ff7f0e"/>
     <use xlink:href="#m02d679d242" x="126.136914" y="198.856434" style="fill: #ff7f0e; stroke: #ff7f0e"/>
     <use xlink:href="#m02d679d242" x="110.638929" y="261.924845" style="fill: #ff7f0e; stroke: #ff7f0e"/>
     <use xlink:href="#m02d679d242" x="94.628376" y="185.03648" style="fill: #ff7f0e; stroke: #ff7f0e"/>
     <use xlink:href="#m02d679d242" x="83.209556" y="290.329091" style="fill: #ff7f0e; stroke: #ff7f0e"/>
     <use xlink:href="#m02d679d242" x="78.069663" y="170.913957" style="fill: #ff7f0e; stroke: #ff7f0e"/>
     <use xlink:href="#m02d679d242" x="77.001818" y="226.822372" style="fill: #ff7f0e; stroke: #ff7f0e"/>
    </g>
   </g>
   <g id="line2d_16">
    <path d="M 77.001818 247.114151 
L 432.238182 24.110909 
L 432.238182 24.110909 
" clip-path="url(#pca3ab72969)" style="fill: none; stroke: #2ca02c; stroke-width: 1.5; stroke-linecap: square"/>
   </g>
   <g id="patch_3">
    <path d="M 59.24 303.64 
L 59.24 10.8 
" style="fill: none; stroke: #000000; stroke-width: 0.8; stroke-linejoin: miter; stroke-linecap: square"/>
   </g>
   <g id="patch_4">
    <path d="M 450 303.64 
L 450 10.8 
" style="fill: none; stroke: #000000; stroke-width: 0.8; stroke-linejoin: miter; stroke-linecap: square"/>
   </g>
   <g id="patch_5">
    <path d="M 59.24 303.64 
L 450 303.64 
" style="fill: none; stroke: #000000; stroke-width: 0.8; stroke-linejoin: miter; stroke-linecap: square"/>
   </g>
   <g id="patch_6">
    <path d="M 59.24 10.8 
L 450 10.8 
" style="fill: none; stroke: #000000; stroke-width: 0.8; stroke-linejoin: miter; stroke-linecap: square"/>
   </g>
   <g id="legend_1">
    <g id="patch_7">
     <path d="M 66.24 62.834375 
L 255.688438 62.834375 
Q 257.688438 62.834375 257.688438 60.834375 
L 257.688438 17.8 
Q 257.688438 15.8 255.688438 15.8 
L 66.24 15.8 
Q 64.24 15.8 64.24 17.8 
L 64.24 60.834375 
Q 64.24 62.834375 66.24 62.834375 
z
" style="fill: #ffffff; opacity: 0.8; stroke: #cccccc; stroke-linejoin: miter"/>
    </g>
    <g id="line2d_17">
     <g>
      <use xlink:href="#m9e88f1268c" x="78.24" y="23.898438" style="fill: #1f77b4; stroke: #1f77b4"/>
     </g>
    </g>
    <g id="text_16">
     <!-- Prediction without interpolation -->
     <g transform="translate(96.24 27.398438) scale(0.1 -0.1)">
      <defs>
       <path id="DejaVuSans-6f" d="M 1959 3097 
Q 1497 3097 1228 2736 
Q 959 2375 959 1747 
Q 959 1119 1226 758 
Q 1494 397 1959 397 
Q 2419 397 2687 759 
Q 2956 1122 2956 1747 
Q 2956 2369 2687 2733 
Q 2419 3097 1959 3097 
z
M 1959 3584 
Q 2709 3584 3137 3096 
Q 3566 2609 3566 1747 
Q 3566 888 3137 398 
Q 2709 -91 1959 -91 
Q 1206 -91 779 398 
Q 353 888 353 1747 
Q 353 2609 779 3096 
Q 1206 3584 1959 3584 
z
" transform="scale(0.015625)"/>
       <path id="DejaVuSans-6e" d="M 3513 2113 
L 3513 0 
L 2938 0 
L 2938 2094 
Q 2938 2591 2744 2837 
Q 2550 3084 2163 3084 
Q 1697 3084 1428 2787 
Q 1159 2491 1159 1978 
L 1159 0 
L 581 0 
L 581 3500 
L 1159 3500 
L 1159 2956 
Q 1366 3272 1645 3428 
Q 1925 3584 2291 3584 
Q 2894 3584 3203 3211 
Q 3513 2838 3513 2113 
z
" transform="scale(0.015625)"/>
       <path id="DejaVuSans-77" d="M 269 3500 
L 844 3500 
L 1563 769 
L 2278 3500 
L 2956 3500 
L 3675 769 
L 4391 3500 
L 4966 3500 
L 4050 0 
L 3372 0 
L 2619 2869 
L 1863 0 
L 1184 0 
L 269 3500 
z
" transform="scale(0.015625)"/>
       <path id="DejaVuSans-68" d="M 3513 2113 
L 3513 0 
L 2938 0 
L 2938 2094 
Q 2938 2591 2744 2837 
Q 2550 3084 2163 3084 
Q 1697 3084 1428 2787 
Q 1159 2491 1159 1978 
L 1159 0 
L 581 0 
L 581 4863 
L 1159 4863 
L 1159 2956 
Q 1366 3272 1645 3428 
Q 1925 3584 2291 3584 
Q 2894 3584 3203 3211 
Q 3513 2838 3513 2113 
z
" transform="scale(0.015625)"/>
       <path id="DejaVuSans-70" d="M 1159 525 
L 1159 -1331 
L 581 -1331 
L 581 3500 
L 1159 3500 
L 1159 2969 
Q 1341 3281 1617 3432 
Q 1894 3584 2278 3584 
Q 2916 3584 3314 3078 
Q 3713 2572 3713 1747 
Q 3713 922 3314 415 
Q 2916 -91 2278 -91 
Q 1894 -91 1617 61 
Q 1341 213 1159 525 
z
M 3116 1747 
Q 3116 2381 2855 2742 
Q 2594 3103 2138 3103 
Q 1681 3103 1420 2742 
Q 1159 2381 1159 1747 
Q 1159 1113 1420 752 
Q 1681 391 2138 391 
Q 2594 391 2855 752 
Q 3116 1113 3116 1747 
z
" transform="scale(0.015625)"/>
      </defs>
      <use xlink:href="#DejaVuSans-50"/>
      <use xlink:href="#DejaVuSans-72" x="58.552734"/>
      <use xlink:href="#DejaVuSans-65" x="97.416016"/>
      <use xlink:href="#DejaVuSans-64" x="158.939453"/>
      <use xlink:href="#DejaVuSans-69" x="222.416016"/>
      <use xlink:href="#DejaVuSans-63" x="250.199219"/>
      <use xlink:href="#DejaVuSans-74" x="305.179688"/>
      <use xlink:href="#DejaVuSans-69" x="344.388672"/>
      <use xlink:href="#DejaVuSans-6f" x="372.171875"/>
      <use xlink:href="#DejaVuSans-6e" x="433.353516"/>
      <use xlink:href="#DejaVuSans-20" x="496.732422"/>
      <use xlink:href="#DejaVuSans-77" x="528.519531"/>
      <use xlink:href="#DejaVuSans-69" x="610.306641"/>
      <use xlink:href="#DejaVuSans-74" x="638.089844"/>
      <use xlink:href="#DejaVuSans-68" x="677.298828"/>
      <use xlink:href="#DejaVuSans-6f" x="740.677734"/>
      <use xlink:href="#DejaVuSans-75" x="801.859375"/>
      <use xlink:href="#DejaVuSans-74" x="865.238281"/>
      <use xlink:href="#DejaVuSans-20" x="904.447266"/>
      <use xlink:href="#DejaVuSans-69" x="936.234375"/>
      <use xlink:href="#DejaVuSans-6e" x="964.017578"/>
      <use xlink:href="#DejaVuSans-74" x="1027.396484"/>
      <use xlink:href="#DejaVuSans-65" x="1066.605469"/>
      <use xlink:href="#DejaVuSans-72" x="1128.128906"/>
      <use xlink:href="#DejaVuSans-70" x="1169.242188"/>
      <use xlink:href="#DejaVuSans-6f" x="1232.71875"/>
      <use xlink:href="#DejaVuSans-6c" x="1293.900391"/>
      <use xlink:href="#DejaVuSans-61" x="1321.683594"/>
      <use xlink:href="#DejaVuSans-74" x="1382.962891"/>
      <use xlink:href="#DejaVuSans-69" x="1422.171875"/>
      <use xlink:href="#DejaVuSans-6f" x="1449.955078"/>
      <use xlink:href="#DejaVuSans-6e" x="1511.136719"/>
     </g>
    </g>
    <g id="line2d_18">
     <g>
      <use xlink:href="#m02d679d242" x="78.24" y="38.576563" style="fill: #ff7f0e; stroke: #ff7f0e"/>
     </g>
    </g>
    <g id="text_17">
     <!-- Prediction with interpolation -->
     <g transform="translate(96.24 42.076563) scale(0.1 -0.1)">
      <use xlink:href="#DejaVuSans-50"/>
      <use xlink:href="#DejaVuSans-72" x="58.552734"/>
      <use xlink:href="#DejaVuSans-65" x="97.416016"/>
      <use xlink:href="#DejaVuSans-64" x="158.939453"/>
      <use xlink:href="#DejaVuSans-69" x="222.416016"/>
      <use xlink:href="#DejaVuSans-63" x="250.199219"/>
      <use xlink:href="#DejaVuSans-74" x="305.179688"/>
      <use xlink:href="#DejaVuSans-69" x="344.388672"/>
      <use xlink:href="#DejaVuSans-6f" x="372.171875"/>
      <use xlink:href="#DejaVuSans-6e" x="433.353516"/>
      <use xlink:href="#DejaVuSans-20" x="496.732422"/>
      <use xlink:href="#DejaVuSans-77" x="528.519531"/>
      <use xlink:href="#DejaVuSans-69" x="610.306641"/>
      <use xlink:href="#DejaVuSans-74" x="638.089844"/>
      <use xlink:href="#DejaVuSans-68" x="677.298828"/>
      <use xlink:href="#DejaVuSans-20" x="740.677734"/>
      <use xlink:href="#DejaVuSans-69" x="772.464844"/>
      <use xlink:href="#DejaVuSans-6e" x="800.248047"/>
      <use xlink:href="#DejaVuSans-74" x="863.626953"/>
      <use xlink:href="#DejaVuSans-65" x="902.835938"/>
      <use xlink:href="#DejaVuSans-72" x="964.359375"/>
      <use xlink:href="#DejaVuSans-70" x="1005.472656"/>
      <use xlink:href="#DejaVuSans-6f" x="1068.949219"/>
      <use xlink:href="#DejaVuSans-6c" x="1130.130859"/>
      <use xlink:href="#DejaVuSans-61" x="1157.914062"/>
      <use xlink:href="#DejaVuSans-74" x="1219.193359"/>
      <use xlink:href="#DejaVuSans-69" x="1258.402344"/>
      <use xlink:href="#DejaVuSans-6f" x="1286.185547"/>
      <use xlink:href="#DejaVuSans-6e" x="1347.367188"/>
     </g>
    </g>
    <g id="line2d_19">
     <path d="M 68.24 53.254688 
L 78.24 53.254688 
L 88.24 53.254688 
" style="fill: none; stroke: #2ca02c; stroke-width: 1.5; stroke-linecap: square"/>
    </g>
    <g id="text_18">
     <!-- y=x -->
     <g transform="translate(96.24 56.754688) scale(0.1 -0.1)">
      <defs>
       <path id="DejaVuSans-79" d="M 2059 -325 
Q 1816 -950 1584 -1140 
Q 1353 -1331 966 -1331 
L 506 -1331 
L 506 -850 
L 844 -850 
Q 1081 -850 1212 -737 
Q 1344 -625 1503 -206 
L 1606 56 
L 191 3500 
L 800 3500 
L 1894 763 
L 2988 3500 
L 3597 3500 
L 2059 -325 
z
" transform="scale(0.015625)"/>
       <path id="DejaVuSans-3d" d="M 678 2906 
L 4684 2906 
L 4684 2381 
L 678 2381 
L 678 2906 
z
M 678 1631 
L 4684 1631 
L 4684 1100 
L 678 1100 
L 678 1631 
z
" transform="scale(0.015625)"/>
       <path id="DejaVuSans-78" d="M 3513 3500 
L 2247 1797 
L 3578 0 
L 2900 0 
L 1881 1375 
L 863 0 
L 184 0 
L 1544 1831 
L 300 3500 
L 978 3500 
L 1906 2253 
L 2834 3500 
L 3513 3500 
z
" transform="scale(0.015625)"/>
      </defs>
      <use xlink:href="#DejaVuSans-79"/>
      <use xlink:href="#DejaVuSans-3d" x="59.179688"/>
      <use xlink:href="#DejaVuSans-78" x="142.96875"/>
     </g>
    </g>
   </g>
  </g>
 </g>
 <defs>
  <clipPath id="pca3ab72969">
   <rect x="59.24" y="10.8" width="390.76" height="292.84"/>
  </clipPath>
 </defs>
</svg>
