<?xml version="1.0" encoding="utf-8" standalone="no"?>
<!DOCTYPE svg PUBLIC "-//W3C//DTD SVG 1.1//EN"
  "http://www.w3.org/Graphics/SVG/1.1/DTD/svg11.dtd">
<svg xmlns:xlink="http://www.w3.org/1999/xlink" width="460.8pt" height="345.6pt" viewBox="0 0 460.8 345.6" xmlns="http://www.w3.org/2000/svg" version="1.1">
 <metadata>
  <rdf:RDF xmlns:dc="http://purl.org/dc/elements/1.1/" xmlns:cc="http://creativecommons.org/ns#" xmlns:rdf="http://www.w3.org/1999/02/22-rdf-syntax-ns#">
   <cc:Work>
    <dc:type rdf:resource="http://purl.org/dc/dcmitype/StillImage"/>
    <dc:date>2024-05-03T09:56:01.836302</dc:date>
    <dc:format>image/svg+xml</dc:format>
    <dc:creator>
     <cc:Agent>
      <dc:title>Matplotlib v3.8.4, https://matplotlib.org/</dc:title>
     </cc:Agent>
    </dc:creator>
   </cc:Work>
  </rdf:RDF>
 </metadata>
 <defs>
  <style type="text/css">*{stroke-linejoin: round; stroke-linecap: butt}</style>
 </defs>
 <g id="figure_1">
  <g id="patch_1">
   <path d="M 0 345.6 
L 460.8 345.6 
L 460.8 0 
L 0 0 
z
" style="fill: #ffffff"/>
  </g>
  <g id="axes_1">
   <g id="patch_2">
    <path d="M 45.16 296.750464 
L 450 296.750464 
L 450 26.88 
L 45.16 26.88 
z
" style="fill: #ffffff"/>
   </g>
   <g id="matplotlib.axis_1">
    <g id="xtick_1">
     <g id="line2d_1">
      <defs>
       <path id="mf49a13c138" d="M 0 0 
L 0 3.5 
" style="stroke: #000000; stroke-width: 0.8"/>
      </defs>
      <g>
       <use xlink:href="#mf49a13c138" x="73.492958" y="296.750464" style="stroke: #000000; stroke-width: 0.8"/>
      </g>
     </g>
     <g id="text_1">
      <!-- 07:00:00 -->
      <g transform="translate(33.557748 332.787154) rotate(-30) scale(0.1 -0.1)">
       <defs>
        <path id="DejaVuSans-30" d="M 2034 4250 
Q 1547 4250 1301 3770 
Q 1056 3291 1056 2328 
Q 1056 1369 1301 889 
Q 1547 409 2034 409 
Q 2525 409 2770 889 
Q 3016 1369 3016 2328 
Q 3016 3291 2770 3770 
Q 2525 4250 2034 4250 
z
M 2034 4750 
Q 2819 4750 3233 4129 
Q 3647 3509 3647 2328 
Q 3647 1150 3233 529 
Q 2819 -91 2034 -91 
Q 1250 -91 836 529 
Q 422 1150 422 2328 
Q 422 3509 836 4129 
Q 1250 4750 2034 4750 
z
" transform="scale(0.015625)"/>
        <path id="DejaVuSans-37" d="M 525 4666 
L 3525 4666 
L 3525 4397 
L 1831 0 
L 1172 0 
L 2766 4134 
L 525 4134 
L 525 4666 
z
" transform="scale(0.015625)"/>
        <path id="DejaVuSans-3a" d="M 750 794 
L 1409 794 
L 1409 0 
L 750 0 
L 750 794 
z
M 750 3309 
L 1409 3309 
L 1409 2516 
L 750 2516 
L 750 3309 
z
" transform="scale(0.015625)"/>
       </defs>
       <use xlink:href="#DejaVuSans-30"/>
       <use xlink:href="#DejaVuSans-37" x="63.623047"/>
       <use xlink:href="#DejaVuSans-3a" x="127.246094"/>
       <use xlink:href="#DejaVuSans-30" x="160.9375"/>
       <use xlink:href="#DejaVuSans-30" x="224.560547"/>
       <use xlink:href="#DejaVuSans-3a" x="288.183594"/>
       <use xlink:href="#DejaVuSans-30" x="321.875"/>
       <use xlink:href="#DejaVuSans-30" x="385.498047"/>
      </g>
     </g>
    </g>
    <g id="xtick_2">
     <g id="line2d_2">
      <g>
       <use xlink:href="#mf49a13c138" x="108.54404" y="296.750464" style="stroke: #000000; stroke-width: 0.8"/>
      </g>
     </g>
     <g id="text_2">
      <!-- 08:00:00 -->
      <g transform="translate(68.608831 332.787154) rotate(-30) scale(0.1 -0.1)">
       <defs>
        <path id="DejaVuSans-38" d="M 2034 2216 
Q 1584 2216 1326 1975 
Q 1069 1734 1069 1313 
Q 1069 891 1326 650 
Q 1584 409 2034 409 
Q 2484 409 2743 651 
Q 3003 894 3003 1313 
Q 3003 1734 2745 1975 
Q 2488 2216 2034 2216 
z
M 1403 2484 
Q 997 2584 770 2862 
Q 544 3141 544 3541 
Q 544 4100 942 4425 
Q 1341 4750 2034 4750 
Q 2731 4750 3128 4425 
Q 3525 4100 3525 3541 
Q 3525 3141 3298 2862 
Q 3072 2584 2669 2484 
Q 3125 2378 3379 2068 
Q 3634 1759 3634 1313 
Q 3634 634 3220 271 
Q 2806 -91 2034 -91 
Q 1263 -91 848 271 
Q 434 634 434 1313 
Q 434 1759 690 2068 
Q 947 2378 1403 2484 
z
M 1172 3481 
Q 1172 3119 1398 2916 
Q 1625 2713 2034 2713 
Q 2441 2713 2670 2916 
Q 2900 3119 2900 3481 
Q 2900 3844 2670 4047 
Q 2441 4250 2034 4250 
Q 1625 4250 1398 4047 
Q 1172 3844 1172 3481 
z
" transform="scale(0.015625)"/>
       </defs>
       <use xlink:href="#DejaVuSans-30"/>
       <use xlink:href="#DejaVuSans-38" x="63.623047"/>
       <use xlink:href="#DejaVuSans-3a" x="127.246094"/>
       <use xlink:href="#DejaVuSans-30" x="160.9375"/>
       <use xlink:href="#DejaVuSans-30" x="224.560547"/>
       <use xlink:href="#DejaVuSans-3a" x="288.183594"/>
       <use xlink:href="#DejaVuSans-30" x="321.875"/>
       <use xlink:href="#DejaVuSans-30" x="385.498047"/>
      </g>
     </g>
    </g>
    <g id="xtick_3">
     <g id="line2d_3">
      <g>
       <use xlink:href="#mf49a13c138" x="143.595123" y="296.750464" style="stroke: #000000; stroke-width: 0.8"/>
      </g>
     </g>
     <g id="text_3">
      <!-- 09:00:00 -->
      <g transform="translate(103.659913 332.787154) rotate(-30) scale(0.1 -0.1)">
       <defs>
        <path id="DejaVuSans-39" d="M 703 97 
L 703 672 
Q 941 559 1184 500 
Q 1428 441 1663 441 
Q 2288 441 2617 861 
Q 2947 1281 2994 2138 
Q 2813 1869 2534 1725 
Q 2256 1581 1919 1581 
Q 1219 1581 811 2004 
Q 403 2428 403 3163 
Q 403 3881 828 4315 
Q 1253 4750 1959 4750 
Q 2769 4750 3195 4129 
Q 3622 3509 3622 2328 
Q 3622 1225 3098 567 
Q 2575 -91 1691 -91 
Q 1453 -91 1209 -44 
Q 966 3 703 97 
z
M 1959 2075 
Q 2384 2075 2632 2365 
Q 2881 2656 2881 3163 
Q 2881 3666 2632 3958 
Q 2384 4250 1959 4250 
Q 1534 4250 1286 3958 
Q 1038 3666 1038 3163 
Q 1038 2656 1286 2365 
Q 1534 2075 1959 2075 
z
" transform="scale(0.015625)"/>
       </defs>
       <use xlink:href="#DejaVuSans-30"/>
       <use xlink:href="#DejaVuSans-39" x="63.623047"/>
       <use xlink:href="#DejaVuSans-3a" x="127.246094"/>
       <use xlink:href="#DejaVuSans-30" x="160.9375"/>
       <use xlink:href="#DejaVuSans-30" x="224.560547"/>
       <use xlink:href="#DejaVuSans-3a" x="288.183594"/>
       <use xlink:href="#DejaVuSans-30" x="321.875"/>
       <use xlink:href="#DejaVuSans-30" x="385.498047"/>
      </g>
     </g>
    </g>
    <g id="xtick_4">
     <g id="line2d_4">
      <g>
       <use xlink:href="#mf49a13c138" x="178.646205" y="296.750464" style="stroke: #000000; stroke-width: 0.8"/>
      </g>
     </g>
     <g id="text_4">
      <!-- 10:00:00 -->
      <g transform="translate(138.710995 332.787154) rotate(-30) scale(0.1 -0.1)">
       <defs>
        <path id="DejaVuSans-31" d="M 794 531 
L 1825 531 
L 1825 4091 
L 703 3866 
L 703 4441 
L 1819 4666 
L 2450 4666 
L 2450 531 
L 3481 531 
L 3481 0 
L 794 0 
L 794 531 
z
" transform="scale(0.015625)"/>
       </defs>
       <use xlink:href="#DejaVuSans-31"/>
       <use xlink:href="#DejaVuSans-30" x="63.623047"/>
       <use xlink:href="#DejaVuSans-3a" x="127.246094"/>
       <use xlink:href="#DejaVuSans-30" x="160.9375"/>
       <use xlink:href="#DejaVuSans-30" x="224.560547"/>
       <use xlink:href="#DejaVuSans-3a" x="288.183594"/>
       <use xlink:href="#DejaVuSans-30" x="321.875"/>
       <use xlink:href="#DejaVuSans-30" x="385.498047"/>
      </g>
     </g>
    </g>
    <g id="xtick_5">
     <g id="line2d_5">
      <g>
       <use xlink:href="#mf49a13c138" x="213.697287" y="296.750464" style="stroke: #000000; stroke-width: 0.8"/>
      </g>
     </g>
     <g id="text_5">
      <!-- 11:00:00 -->
      <g transform="translate(173.762077 332.787154) rotate(-30) scale(0.1 -0.1)">
       <use xlink:href="#DejaVuSans-31"/>
       <use xlink:href="#DejaVuSans-31" x="63.623047"/>
       <use xlink:href="#DejaVuSans-3a" x="127.246094"/>
       <use xlink:href="#DejaVuSans-30" x="160.9375"/>
       <use xlink:href="#DejaVuSans-30" x="224.560547"/>
       <use xlink:href="#DejaVuSans-3a" x="288.183594"/>
       <use xlink:href="#DejaVuSans-30" x="321.875"/>
       <use xlink:href="#DejaVuSans-30" x="385.498047"/>
      </g>
     </g>
    </g>
    <g id="xtick_6">
     <g id="line2d_6">
      <g>
       <use xlink:href="#mf49a13c138" x="248.748369" y="296.750464" style="stroke: #000000; stroke-width: 0.8"/>
      </g>
     </g>
     <g id="text_6">
      <!-- 12:00:00 -->
      <g transform="translate(208.81316 332.787154) rotate(-30) scale(0.1 -0.1)">
       <defs>
        <path id="DejaVuSans-32" d="M 1228 531 
L 3431 531 
L 3431 0 
L 469 0 
L 469 531 
Q 828 903 1448 1529 
Q 2069 2156 2228 2338 
Q 2531 2678 2651 2914 
Q 2772 3150 2772 3378 
Q 2772 3750 2511 3984 
Q 2250 4219 1831 4219 
Q 1534 4219 1204 4116 
Q 875 4013 500 3803 
L 500 4441 
Q 881 4594 1212 4672 
Q 1544 4750 1819 4750 
Q 2544 4750 2975 4387 
Q 3406 4025 3406 3419 
Q 3406 3131 3298 2873 
Q 3191 2616 2906 2266 
Q 2828 2175 2409 1742 
Q 1991 1309 1228 531 
z
" transform="scale(0.015625)"/>
       </defs>
       <use xlink:href="#DejaVuSans-31"/>
       <use xlink:href="#DejaVuSans-32" x="63.623047"/>
       <use xlink:href="#DejaVuSans-3a" x="127.246094"/>
       <use xlink:href="#DejaVuSans-30" x="160.9375"/>
       <use xlink:href="#DejaVuSans-30" x="224.560547"/>
       <use xlink:href="#DejaVuSans-3a" x="288.183594"/>
       <use xlink:href="#DejaVuSans-30" x="321.875"/>
       <use xlink:href="#DejaVuSans-30" x="385.498047"/>
      </g>
     </g>
    </g>
    <g id="xtick_7">
     <g id="line2d_7">
      <g>
       <use xlink:href="#mf49a13c138" x="283.799452" y="296.750464" style="stroke: #000000; stroke-width: 0.8"/>
      </g>
     </g>
     <g id="text_7">
      <!-- 13:00:00 -->
      <g transform="translate(243.864242 332.787154) rotate(-30) scale(0.1 -0.1)">
       <defs>
        <path id="DejaVuSans-33" d="M 2597 2516 
Q 3050 2419 3304 2112 
Q 3559 1806 3559 1356 
Q 3559 666 3084 287 
Q 2609 -91 1734 -91 
Q 1441 -91 1130 -33 
Q 819 25 488 141 
L 488 750 
Q 750 597 1062 519 
Q 1375 441 1716 441 
Q 2309 441 2620 675 
Q 2931 909 2931 1356 
Q 2931 1769 2642 2001 
Q 2353 2234 1838 2234 
L 1294 2234 
L 1294 2753 
L 1863 2753 
Q 2328 2753 2575 2939 
Q 2822 3125 2822 3475 
Q 2822 3834 2567 4026 
Q 2313 4219 1838 4219 
Q 1578 4219 1281 4162 
Q 984 4106 628 3988 
L 628 4550 
Q 988 4650 1302 4700 
Q 1616 4750 1894 4750 
Q 2613 4750 3031 4423 
Q 3450 4097 3450 3541 
Q 3450 3153 3228 2886 
Q 3006 2619 2597 2516 
z
" transform="scale(0.015625)"/>
       </defs>
       <use xlink:href="#DejaVuSans-31"/>
       <use xlink:href="#DejaVuSans-33" x="63.623047"/>
       <use xlink:href="#DejaVuSans-3a" x="127.246094"/>
       <use xlink:href="#DejaVuSans-30" x="160.9375"/>
       <use xlink:href="#DejaVuSans-30" x="224.560547"/>
       <use xlink:href="#DejaVuSans-3a" x="288.183594"/>
       <use xlink:href="#DejaVuSans-30" x="321.875"/>
       <use xlink:href="#DejaVuSans-30" x="385.498047"/>
      </g>
     </g>
    </g>
    <g id="xtick_8">
     <g id="line2d_8">
      <g>
       <use xlink:href="#mf49a13c138" x="318.850534" y="296.750464" style="stroke: #000000; stroke-width: 0.8"/>
      </g>
     </g>
     <g id="text_8">
      <!-- 14:00:00 -->
      <g transform="translate(278.915324 332.787154) rotate(-30) scale(0.1 -0.1)">
       <defs>
        <path id="DejaVuSans-34" d="M 2419 4116 
L 825 1625 
L 2419 1625 
L 2419 4116 
z
M 2253 4666 
L 3047 4666 
L 3047 1625 
L 3713 1625 
L 3713 1100 
L 3047 1100 
L 3047 0 
L 2419 0 
L 2419 1100 
L 313 1100 
L 313 1709 
L 2253 4666 
z
" transform="scale(0.015625)"/>
       </defs>
       <use xlink:href="#DejaVuSans-31"/>
       <use xlink:href="#DejaVuSans-34" x="63.623047"/>
       <use xlink:href="#DejaVuSans-3a" x="127.246094"/>
       <use xlink:href="#DejaVuSans-30" x="160.9375"/>
       <use xlink:href="#DejaVuSans-30" x="224.560547"/>
       <use xlink:href="#DejaVuSans-3a" x="288.183594"/>
       <use xlink:href="#DejaVuSans-30" x="321.875"/>
       <use xlink:href="#DejaVuSans-30" x="385.498047"/>
      </g>
     </g>
    </g>
    <g id="xtick_9">
     <g id="line2d_9">
      <g>
       <use xlink:href="#mf49a13c138" x="353.901616" y="296.750464" style="stroke: #000000; stroke-width: 0.8"/>
      </g>
     </g>
     <g id="text_9">
      <!-- 15:00:00 -->
      <g transform="translate(313.966406 332.787154) rotate(-30) scale(0.1 -0.1)">
       <defs>
        <path id="DejaVuSans-35" d="M 691 4666 
L 3169 4666 
L 3169 4134 
L 1269 4134 
L 1269 2991 
Q 1406 3038 1543 3061 
Q 1681 3084 1819 3084 
Q 2600 3084 3056 2656 
Q 3513 2228 3513 1497 
Q 3513 744 3044 326 
Q 2575 -91 1722 -91 
Q 1428 -91 1123 -41 
Q 819 9 494 109 
L 494 744 
Q 775 591 1075 516 
Q 1375 441 1709 441 
Q 2250 441 2565 725 
Q 2881 1009 2881 1497 
Q 2881 1984 2565 2268 
Q 2250 2553 1709 2553 
Q 1456 2553 1204 2497 
Q 953 2441 691 2322 
L 691 4666 
z
" transform="scale(0.015625)"/>
       </defs>
       <use xlink:href="#DejaVuSans-31"/>
       <use xlink:href="#DejaVuSans-35" x="63.623047"/>
       <use xlink:href="#DejaVuSans-3a" x="127.246094"/>
       <use xlink:href="#DejaVuSans-30" x="160.9375"/>
       <use xlink:href="#DejaVuSans-30" x="224.560547"/>
       <use xlink:href="#DejaVuSans-3a" x="288.183594"/>
       <use xlink:href="#DejaVuSans-30" x="321.875"/>
       <use xlink:href="#DejaVuSans-30" x="385.498047"/>
      </g>
     </g>
    </g>
    <g id="xtick_10">
     <g id="line2d_10">
      <g>
       <use xlink:href="#mf49a13c138" x="388.952698" y="296.750464" style="stroke: #000000; stroke-width: 0.8"/>
      </g>
     </g>
     <g id="text_10">
      <!-- 16:00:00 -->
      <g transform="translate(349.017489 332.787154) rotate(-30) scale(0.1 -0.1)">
       <defs>
        <path id="DejaVuSans-36" d="M 2113 2584 
Q 1688 2584 1439 2293 
Q 1191 2003 1191 1497 
Q 1191 994 1439 701 
Q 1688 409 2113 409 
Q 2538 409 2786 701 
Q 3034 994 3034 1497 
Q 3034 2003 2786 2293 
Q 2538 2584 2113 2584 
z
M 3366 4563 
L 3366 3988 
Q 3128 4100 2886 4159 
Q 2644 4219 2406 4219 
Q 1781 4219 1451 3797 
Q 1122 3375 1075 2522 
Q 1259 2794 1537 2939 
Q 1816 3084 2150 3084 
Q 2853 3084 3261 2657 
Q 3669 2231 3669 1497 
Q 3669 778 3244 343 
Q 2819 -91 2113 -91 
Q 1303 -91 875 529 
Q 447 1150 447 2328 
Q 447 3434 972 4092 
Q 1497 4750 2381 4750 
Q 2619 4750 2861 4703 
Q 3103 4656 3366 4563 
z
" transform="scale(0.015625)"/>
       </defs>
       <use xlink:href="#DejaVuSans-31"/>
       <use xlink:href="#DejaVuSans-36" x="63.623047"/>
       <use xlink:href="#DejaVuSans-3a" x="127.246094"/>
       <use xlink:href="#DejaVuSans-30" x="160.9375"/>
       <use xlink:href="#DejaVuSans-30" x="224.560547"/>
       <use xlink:href="#DejaVuSans-3a" x="288.183594"/>
       <use xlink:href="#DejaVuSans-30" x="321.875"/>
       <use xlink:href="#DejaVuSans-30" x="385.498047"/>
      </g>
     </g>
    </g>
    <g id="xtick_11">
     <g id="line2d_11">
      <g>
       <use xlink:href="#mf49a13c138" x="424.003781" y="296.750464" style="stroke: #000000; stroke-width: 0.8"/>
      </g>
     </g>
     <g id="text_11">
      <!-- 17:00:00 -->
      <g transform="translate(384.068571 332.787154) rotate(-30) scale(0.1 -0.1)">
       <use xlink:href="#DejaVuSans-31"/>
       <use xlink:href="#DejaVuSans-37" x="63.623047"/>
       <use xlink:href="#DejaVuSans-3a" x="127.246094"/>
       <use xlink:href="#DejaVuSans-30" x="160.9375"/>
       <use xlink:href="#DejaVuSans-30" x="224.560547"/>
       <use xlink:href="#DejaVuSans-3a" x="288.183594"/>
       <use xlink:href="#DejaVuSans-30" x="321.875"/>
       <use xlink:href="#DejaVuSans-30" x="385.498047"/>
      </g>
     </g>
    </g>
   </g>
   <g id="matplotlib.axis_2">
    <g id="ytick_1">
     <g id="line2d_12">
      <defs>
       <path id="m77df67a4bb" d="M 0 0 
L -3.5 0 
" style="stroke: #000000; stroke-width: 0.8"/>
      </defs>
      <g>
       <use xlink:href="#m77df67a4bb" x="45.16" y="266.396032" style="stroke: #000000; stroke-width: 0.8"/>
      </g>
     </g>
     <g id="text_12">
      <!-- −200 -->
      <g transform="translate(10.692813 270.19525) scale(0.1 -0.1)">
       <defs>
        <path id="DejaVuSans-2212" d="M 678 2272 
L 4684 2272 
L 4684 1741 
L 678 1741 
L 678 2272 
z
" transform="scale(0.015625)"/>
       </defs>
       <use xlink:href="#DejaVuSans-2212"/>
       <use xlink:href="#DejaVuSans-32" x="83.789062"/>
       <use xlink:href="#DejaVuSans-30" x="147.412109"/>
       <use xlink:href="#DejaVuSans-30" x="211.035156"/>
      </g>
     </g>
    </g>
    <g id="ytick_2">
     <g id="line2d_13">
      <g>
       <use xlink:href="#m77df67a4bb" x="45.16" y="206.665642" style="stroke: #000000; stroke-width: 0.8"/>
      </g>
     </g>
     <g id="text_13">
      <!-- −100 -->
      <g transform="translate(10.692813 210.464861) scale(0.1 -0.1)">
       <use xlink:href="#DejaVuSans-2212"/>
       <use xlink:href="#DejaVuSans-31" x="83.789062"/>
       <use xlink:href="#DejaVuSans-30" x="147.412109"/>
       <use xlink:href="#DejaVuSans-30" x="211.035156"/>
      </g>
     </g>
    </g>
    <g id="ytick_3">
     <g id="line2d_14">
      <g>
       <use xlink:href="#m77df67a4bb" x="45.16" y="146.935253" style="stroke: #000000; stroke-width: 0.8"/>
      </g>
     </g>
     <g id="text_14">
      <!-- 0 -->
      <g transform="translate(31.7975 150.734472) scale(0.1 -0.1)">
       <use xlink:href="#DejaVuSans-30"/>
      </g>
     </g>
    </g>
    <g id="ytick_4">
     <g id="line2d_15">
      <g>
       <use xlink:href="#m77df67a4bb" x="45.16" y="87.204864" style="stroke: #000000; stroke-width: 0.8"/>
      </g>
     </g>
     <g id="text_15">
      <!-- 100 -->
      <g transform="translate(19.0725 91.004082) scale(0.1 -0.1)">
       <use xlink:href="#DejaVuSans-31"/>
       <use xlink:href="#DejaVuSans-30" x="63.623047"/>
       <use xlink:href="#DejaVuSans-30" x="127.246094"/>
      </g>
     </g>
    </g>
    <g id="ytick_5">
     <g id="line2d_16">
      <g>
       <use xlink:href="#m77df67a4bb" x="45.16" y="27.474474" style="stroke: #000000; stroke-width: 0.8"/>
      </g>
     </g>
     <g id="text_16">
      <!-- 200 -->
      <g transform="translate(19.0725 31.273693) scale(0.1 -0.1)">
       <use xlink:href="#DejaVuSans-32"/>
       <use xlink:href="#DejaVuSans-30" x="63.623047"/>
       <use xlink:href="#DejaVuSans-30" x="127.246094"/>
      </g>
     </g>
    </g>
   </g>
   <g id="line2d_17">
    <defs>
     <path id="mc8e2a17b49" d="M 0 3 
C 0.795609 3 1.55874 2.683901 2.12132 2.12132 
C 2.683901 1.55874 3 0.795609 3 0 
C 3 -0.795609 2.683901 -1.55874 2.12132 -2.12132 
C 1.55874 -2.683901 0.795609 -3 0 -3 
C -0.795609 -3 -1.55874 -2.683901 -2.12132 -2.12132 
C -2.683901 -1.55874 -3 -0.795609 -3 0 
C -3 0.795609 -2.683901 1.55874 -2.12132 2.12132 
C -1.55874 2.683901 -0.795609 3 0 3 
z
" style="stroke: #1f77b4"/>
    </defs>
    <g clip-path="url(#p594e8a4f2b)">
     <use xlink:href="#mc8e2a17b49" x="63.561818" y="143.352238" style="fill: #1f77b4; stroke: #1f77b4"/>
     <use xlink:href="#mc8e2a17b49" x="72.324589" y="39.146839" style="fill: #1f77b4; stroke: #1f77b4"/>
     <use xlink:href="#mc8e2a17b49" x="81.087359" y="99.619563" style="fill: #1f77b4; stroke: #1f77b4"/>
     <use xlink:href="#mc8e2a17b49" x="89.85013" y="114.296433" style="fill: #1f77b4; stroke: #1f77b4"/>
     <use xlink:href="#mc8e2a17b49" x="98.6129" y="121.556735" style="fill: #1f77b4; stroke: #1f77b4"/>
     <use xlink:href="#mc8e2a17b49" x="107.375671" y="153.832417" style="fill: #1f77b4; stroke: #1f77b4"/>
     <use xlink:href="#mc8e2a17b49" x="116.138442" y="136.874096" style="fill: #1f77b4; stroke: #1f77b4"/>
     <use xlink:href="#mc8e2a17b49" x="124.901212" y="158.449258" style="fill: #1f77b4; stroke: #1f77b4"/>
     <use xlink:href="#mc8e2a17b49" x="133.663983" y="142.928696" style="fill: #1f77b4; stroke: #1f77b4"/>
     <use xlink:href="#mc8e2a17b49" x="142.426753" y="167.704842" style="fill: #1f77b4; stroke: #1f77b4"/>
     <use xlink:href="#mc8e2a17b49" x="151.189524" y="149.837862" style="fill: #1f77b4; stroke: #1f77b4"/>
     <use xlink:href="#mc8e2a17b49" x="159.952294" y="120.355765" style="fill: #1f77b4; stroke: #1f77b4"/>
     <use xlink:href="#mc8e2a17b49" x="168.715065" y="127.11108" style="fill: #1f77b4; stroke: #1f77b4"/>
     <use xlink:href="#mc8e2a17b49" x="177.477835" y="134.507183" style="fill: #1f77b4; stroke: #1f77b4"/>
     <use xlink:href="#mc8e2a17b49" x="186.240606" y="160.488697" style="fill: #1f77b4; stroke: #1f77b4"/>
     <use xlink:href="#mc8e2a17b49" x="195.003377" y="176.410014" style="fill: #1f77b4; stroke: #1f77b4"/>
     <use xlink:href="#mc8e2a17b49" x="203.766147" y="186.442689" style="fill: #1f77b4; stroke: #1f77b4"/>
     <use xlink:href="#mc8e2a17b49" x="212.528918" y="209.53344" style="fill: #1f77b4; stroke: #1f77b4"/>
     <use xlink:href="#mc8e2a17b49" x="221.291688" y="190.471089" style="fill: #1f77b4; stroke: #1f77b4"/>
     <use xlink:href="#mc8e2a17b49" x="230.054459" y="174.947671" style="fill: #1f77b4; stroke: #1f77b4"/>
     <use xlink:href="#mc8e2a17b49" x="238.817229" y="186.366506" style="fill: #1f77b4; stroke: #1f77b4"/>
     <use xlink:href="#mc8e2a17b49" x="247.58" y="143.372475" style="fill: #1f77b4; stroke: #1f77b4"/>
     <use xlink:href="#mc8e2a17b49" x="256.342771" y="126.944452" style="fill: #1f77b4; stroke: #1f77b4"/>
     <use xlink:href="#mc8e2a17b49" x="265.105541" y="125.692496" style="fill: #1f77b4; stroke: #1f77b4"/>
     <use xlink:href="#mc8e2a17b49" x="273.868312" y="103.712053" style="fill: #1f77b4; stroke: #1f77b4"/>
     <use xlink:href="#mc8e2a17b49" x="282.631082" y="105.614405" style="fill: #1f77b4; stroke: #1f77b4"/>
     <use xlink:href="#mc8e2a17b49" x="291.393853" y="123.229102" style="fill: #1f77b4; stroke: #1f77b4"/>
     <use xlink:href="#mc8e2a17b49" x="300.156623" y="128.794318" style="fill: #1f77b4; stroke: #1f77b4"/>
     <use xlink:href="#mc8e2a17b49" x="308.919394" y="107.199391" style="fill: #1f77b4; stroke: #1f77b4"/>
     <use xlink:href="#mc8e2a17b49" x="317.682165" y="146.741171" style="fill: #1f77b4; stroke: #1f77b4"/>
     <use xlink:href="#mc8e2a17b49" x="326.444935" y="92.78517" style="fill: #1f77b4; stroke: #1f77b4"/>
     <use xlink:href="#mc8e2a17b49" x="335.207706" y="110.210898" style="fill: #1f77b4; stroke: #1f77b4"/>
     <use xlink:href="#mc8e2a17b49" x="343.970476" y="93.372047" style="fill: #1f77b4; stroke: #1f77b4"/>
     <use xlink:href="#mc8e2a17b49" x="352.733247" y="86.064732" style="fill: #1f77b4; stroke: #1f77b4"/>
     <use xlink:href="#mc8e2a17b49" x="361.496017" y="96.620005" style="fill: #1f77b4; stroke: #1f77b4"/>
     <use xlink:href="#mc8e2a17b49" x="370.258788" y="93.162191" style="fill: #1f77b4; stroke: #1f77b4"/>
     <use xlink:href="#mc8e2a17b49" x="379.021558" y="104.706748" style="fill: #1f77b4; stroke: #1f77b4"/>
     <use xlink:href="#mc8e2a17b49" x="387.784329" y="162.460489" style="fill: #1f77b4; stroke: #1f77b4"/>
     <use xlink:href="#mc8e2a17b49" x="396.5471" y="129.658877" style="fill: #1f77b4; stroke: #1f77b4"/>
     <use xlink:href="#mc8e2a17b49" x="405.30987" y="66.485637" style="fill: #1f77b4; stroke: #1f77b4"/>
     <use xlink:href="#mc8e2a17b49" x="414.072641" y="117.382679" style="fill: #1f77b4; stroke: #1f77b4"/>
     <use xlink:href="#mc8e2a17b49" x="422.835411" y="193.448177" style="fill: #1f77b4; stroke: #1f77b4"/>
     <use xlink:href="#mc8e2a17b49" x="431.598182" y="158.064537" style="fill: #1f77b4; stroke: #1f77b4"/>
    </g>
   </g>
   <g id="line2d_18">
    <defs>
     <path id="mb95f49f18f" d="M 0 3 
C 0.795609 3 1.55874 2.683901 2.12132 2.12132 
C 2.683901 1.55874 3 0.795609 3 0 
C 3 -0.795609 2.683901 -1.55874 2.12132 -2.12132 
C 1.55874 -2.683901 0.795609 -3 0 -3 
C -0.795609 -3 -1.55874 -2.683901 -2.12132 -2.12132 
C -2.683901 -1.55874 -3 -0.795609 -3 0 
C -3 0.795609 -2.683901 1.55874 -2.12132 2.12132 
C -1.55874 2.683901 -0.795609 3 0 3 
z
" style="stroke: #ff7f0e"/>
    </defs>
    <g clip-path="url(#p594e8a4f2b)">
     <use xlink:href="#mb95f49f18f" x="63.561818" y="157.701033" style="fill: #ff7f0e; stroke: #ff7f0e"/>
     <use xlink:href="#mb95f49f18f" x="72.324589" y="195.862233" style="fill: #ff7f0e; stroke: #ff7f0e"/>
     <use xlink:href="#mb95f49f18f" x="81.087359" y="127.438719" style="fill: #ff7f0e; stroke: #ff7f0e"/>
     <use xlink:href="#mb95f49f18f" x="89.85013" y="150.368004" style="fill: #ff7f0e; stroke: #ff7f0e"/>
     <use xlink:href="#mb95f49f18f" x="98.6129" y="103.61012" style="fill: #ff7f0e; stroke: #ff7f0e"/>
     <use xlink:href="#mb95f49f18f" x="107.375671" y="198.42756" style="fill: #ff7f0e; stroke: #ff7f0e"/>
     <use xlink:href="#mb95f49f18f" x="116.138442" y="181.031668" style="fill: #ff7f0e; stroke: #ff7f0e"/>
     <use xlink:href="#mb95f49f18f" x="124.901212" y="111.728421" style="fill: #ff7f0e; stroke: #ff7f0e"/>
     <use xlink:href="#mb95f49f18f" x="133.663983" y="216.753874" style="fill: #ff7f0e; stroke: #ff7f0e"/>
     <use xlink:href="#mb95f49f18f" x="142.426753" y="257.38116" style="fill: #ff7f0e; stroke: #ff7f0e"/>
     <use xlink:href="#mb95f49f18f" x="151.189524" y="239.061559" style="fill: #ff7f0e; stroke: #ff7f0e"/>
     <use xlink:href="#mb95f49f18f" x="159.952294" y="210.180716" style="fill: #ff7f0e; stroke: #ff7f0e"/>
     <use xlink:href="#mb95f49f18f" x="168.715065" y="179.573428" style="fill: #ff7f0e; stroke: #ff7f0e"/>
     <use xlink:href="#mb95f49f18f" x="177.477835" y="202.149194" style="fill: #ff7f0e; stroke: #ff7f0e"/>
     <use xlink:href="#mb95f49f18f" x="186.240606" y="241.663074" style="fill: #ff7f0e; stroke: #ff7f0e"/>
     <use xlink:href="#mb95f49f18f" x="195.003377" y="227.725716" style="fill: #ff7f0e; stroke: #ff7f0e"/>
     <use xlink:href="#mb95f49f18f" x="203.766147" y="237.468741" style="fill: #ff7f0e; stroke: #ff7f0e"/>
     <use xlink:href="#mb95f49f18f" x="212.528918" y="284.483625" style="fill: #ff7f0e; stroke: #ff7f0e"/>
     <use xlink:href="#mb95f49f18f" x="221.291688" y="236.178174" style="fill: #ff7f0e; stroke: #ff7f0e"/>
     <use xlink:href="#mb95f49f18f" x="230.054459" y="229.125132" style="fill: #ff7f0e; stroke: #ff7f0e"/>
     <use xlink:href="#mb95f49f18f" x="238.817229" y="226.08691" style="fill: #ff7f0e; stroke: #ff7f0e"/>
     <use xlink:href="#mb95f49f18f" x="247.58" y="213.99958" style="fill: #ff7f0e; stroke: #ff7f0e"/>
     <use xlink:href="#mb95f49f18f" x="256.342771" y="138.382693" style="fill: #ff7f0e; stroke: #ff7f0e"/>
     <use xlink:href="#mb95f49f18f" x="265.105541" y="168.020291" style="fill: #ff7f0e; stroke: #ff7f0e"/>
     <use xlink:href="#mb95f49f18f" x="273.868312" y="89.802292" style="fill: #ff7f0e; stroke: #ff7f0e"/>
     <use xlink:href="#mb95f49f18f" x="282.631082" y="153.262" style="fill: #ff7f0e; stroke: #ff7f0e"/>
     <use xlink:href="#mb95f49f18f" x="291.393853" y="179.376257" style="fill: #ff7f0e; stroke: #ff7f0e"/>
     <use xlink:href="#mb95f49f18f" x="300.156623" y="172.801648" style="fill: #ff7f0e; stroke: #ff7f0e"/>
     <use xlink:href="#mb95f49f18f" x="308.919394" y="134.057358" style="fill: #ff7f0e; stroke: #ff7f0e"/>
     <use xlink:href="#mb95f49f18f" x="317.682165" y="157.353193" style="fill: #ff7f0e; stroke: #ff7f0e"/>
     <use xlink:href="#mb95f49f18f" x="326.444935" y="117.133615" style="fill: #ff7f0e; stroke: #ff7f0e"/>
     <use xlink:href="#mb95f49f18f" x="335.207706" y="113.396261" style="fill: #ff7f0e; stroke: #ff7f0e"/>
     <use xlink:href="#mb95f49f18f" x="343.970476" y="91.300508" style="fill: #ff7f0e; stroke: #ff7f0e"/>
     <use xlink:href="#mb95f49f18f" x="352.733247" y="122.503869" style="fill: #ff7f0e; stroke: #ff7f0e"/>
     <use xlink:href="#mb95f49f18f" x="361.496017" y="149.050764" style="fill: #ff7f0e; stroke: #ff7f0e"/>
     <use xlink:href="#mb95f49f18f" x="370.258788" y="139.728228" style="fill: #ff7f0e; stroke: #ff7f0e"/>
     <use xlink:href="#mb95f49f18f" x="379.021558" y="178.639527" style="fill: #ff7f0e; stroke: #ff7f0e"/>
     <use xlink:href="#mb95f49f18f" x="387.784329" y="123.662388" style="fill: #ff7f0e; stroke: #ff7f0e"/>
     <use xlink:href="#mb95f49f18f" x="396.5471" y="194.953072" style="fill: #ff7f0e; stroke: #ff7f0e"/>
     <use xlink:href="#mb95f49f18f" x="405.30987" y="78.754681" style="fill: #ff7f0e; stroke: #ff7f0e"/>
     <use xlink:href="#mb95f49f18f" x="414.072641" y="209.902605" style="fill: #ff7f0e; stroke: #ff7f0e"/>
     <use xlink:href="#mb95f49f18f" x="422.835411" y="45.985956" style="fill: #ff7f0e; stroke: #ff7f0e"/>
     <use xlink:href="#mb95f49f18f" x="431.598182" y="119.814307" style="fill: #ff7f0e; stroke: #ff7f0e"/>
    </g>
   </g>
   <g id="line2d_19">
    <path d="M 45.16 146.935253 
L 450 146.935253 
" clip-path="url(#p594e8a4f2b)" style="fill: none; stroke-dasharray: 5.55,2.4; stroke-dashoffset: 0; stroke: #ff0000; stroke-width: 1.5"/>
   </g>
   <g id="patch_3">
    <path d="M 45.16 296.750464 
L 45.16 26.88 
" style="fill: none; stroke: #000000; stroke-width: 0.8; stroke-linejoin: miter; stroke-linecap: square"/>
   </g>
   <g id="patch_4">
    <path d="M 450 296.750464 
L 450 26.88 
" style="fill: none; stroke: #000000; stroke-width: 0.8; stroke-linejoin: miter; stroke-linecap: square"/>
   </g>
   <g id="patch_5">
    <path d="M 45.16 296.750464 
L 450 296.750464 
" style="fill: none; stroke: #000000; stroke-width: 0.8; stroke-linejoin: miter; stroke-linecap: square"/>
   </g>
   <g id="patch_6">
    <path d="M 45.16 26.88 
L 450 26.88 
" style="fill: none; stroke: #000000; stroke-width: 0.8; stroke-linejoin: miter; stroke-linecap: square"/>
   </g>
   <g id="text_17">
    <!-- Residuals -->
    <g transform="translate(219.115625 20.88) scale(0.12 -0.12)">
     <defs>
      <path id="DejaVuSans-52" d="M 2841 2188 
Q 3044 2119 3236 1894 
Q 3428 1669 3622 1275 
L 4263 0 
L 3584 0 
L 2988 1197 
Q 2756 1666 2539 1819 
Q 2322 1972 1947 1972 
L 1259 1972 
L 1259 0 
L 628 0 
L 628 4666 
L 2053 4666 
Q 2853 4666 3247 4331 
Q 3641 3997 3641 3322 
Q 3641 2881 3436 2590 
Q 3231 2300 2841 2188 
z
M 1259 4147 
L 1259 2491 
L 2053 2491 
Q 2509 2491 2742 2702 
Q 2975 2913 2975 3322 
Q 2975 3731 2742 3939 
Q 2509 4147 2053 4147 
L 1259 4147 
z
" transform="scale(0.015625)"/>
      <path id="DejaVuSans-65" d="M 3597 1894 
L 3597 1613 
L 953 1613 
Q 991 1019 1311 708 
Q 1631 397 2203 397 
Q 2534 397 2845 478 
Q 3156 559 3463 722 
L 3463 178 
Q 3153 47 2828 -22 
Q 2503 -91 2169 -91 
Q 1331 -91 842 396 
Q 353 884 353 1716 
Q 353 2575 817 3079 
Q 1281 3584 2069 3584 
Q 2775 3584 3186 3129 
Q 3597 2675 3597 1894 
z
M 3022 2063 
Q 3016 2534 2758 2815 
Q 2500 3097 2075 3097 
Q 1594 3097 1305 2825 
Q 1016 2553 972 2059 
L 3022 2063 
z
" transform="scale(0.015625)"/>
      <path id="DejaVuSans-73" d="M 2834 3397 
L 2834 2853 
Q 2591 2978 2328 3040 
Q 2066 3103 1784 3103 
Q 1356 3103 1142 2972 
Q 928 2841 928 2578 
Q 928 2378 1081 2264 
Q 1234 2150 1697 2047 
L 1894 2003 
Q 2506 1872 2764 1633 
Q 3022 1394 3022 966 
Q 3022 478 2636 193 
Q 2250 -91 1575 -91 
Q 1294 -91 989 -36 
Q 684 19 347 128 
L 347 722 
Q 666 556 975 473 
Q 1284 391 1588 391 
Q 1994 391 2212 530 
Q 2431 669 2431 922 
Q 2431 1156 2273 1281 
Q 2116 1406 1581 1522 
L 1381 1569 
Q 847 1681 609 1914 
Q 372 2147 372 2553 
Q 372 3047 722 3315 
Q 1072 3584 1716 3584 
Q 2034 3584 2315 3537 
Q 2597 3491 2834 3397 
z
" transform="scale(0.015625)"/>
      <path id="DejaVuSans-69" d="M 603 3500 
L 1178 3500 
L 1178 0 
L 603 0 
L 603 3500 
z
M 603 4863 
L 1178 4863 
L 1178 4134 
L 603 4134 
L 603 4863 
z
" transform="scale(0.015625)"/>
      <path id="DejaVuSans-64" d="M 2906 2969 
L 2906 4863 
L 3481 4863 
L 3481 0 
L 2906 0 
L 2906 525 
Q 2725 213 2448 61 
Q 2172 -91 1784 -91 
Q 1150 -91 751 415 
Q 353 922 353 1747 
Q 353 2572 751 3078 
Q 1150 3584 1784 3584 
Q 2172 3584 2448 3432 
Q 2725 3281 2906 2969 
z
M 947 1747 
Q 947 1113 1208 752 
Q 1469 391 1925 391 
Q 2381 391 2643 752 
Q 2906 1113 2906 1747 
Q 2906 2381 2643 2742 
Q 2381 3103 1925 3103 
Q 1469 3103 1208 2742 
Q 947 2381 947 1747 
z
" transform="scale(0.015625)"/>
      <path id="DejaVuSans-75" d="M 544 1381 
L 544 3500 
L 1119 3500 
L 1119 1403 
Q 1119 906 1312 657 
Q 1506 409 1894 409 
Q 2359 409 2629 706 
Q 2900 1003 2900 1516 
L 2900 3500 
L 3475 3500 
L 3475 0 
L 2900 0 
L 2900 538 
Q 2691 219 2414 64 
Q 2138 -91 1772 -91 
Q 1169 -91 856 284 
Q 544 659 544 1381 
z
M 1991 3584 
L 1991 3584 
z
" transform="scale(0.015625)"/>
      <path id="DejaVuSans-61" d="M 2194 1759 
Q 1497 1759 1228 1600 
Q 959 1441 959 1056 
Q 959 750 1161 570 
Q 1363 391 1709 391 
Q 2188 391 2477 730 
Q 2766 1069 2766 1631 
L 2766 1759 
L 2194 1759 
z
M 3341 1997 
L 3341 0 
L 2766 0 
L 2766 531 
Q 2569 213 2275 61 
Q 1981 -91 1556 -91 
Q 1019 -91 701 211 
Q 384 513 384 1019 
Q 384 1609 779 1909 
Q 1175 2209 1959 2209 
L 2766 2209 
L 2766 2266 
Q 2766 2663 2505 2880 
Q 2244 3097 1772 3097 
Q 1472 3097 1187 3025 
Q 903 2953 641 2809 
L 641 3341 
Q 956 3463 1253 3523 
Q 1550 3584 1831 3584 
Q 2591 3584 2966 3190 
Q 3341 2797 3341 1997 
z
" transform="scale(0.015625)"/>
      <path id="DejaVuSans-6c" d="M 603 4863 
L 1178 4863 
L 1178 0 
L 603 0 
L 603 4863 
z
" transform="scale(0.015625)"/>
     </defs>
     <use xlink:href="#DejaVuSans-52"/>
     <use xlink:href="#DejaVuSans-65" x="64.982422"/>
     <use xlink:href="#DejaVuSans-73" x="126.505859"/>
     <use xlink:href="#DejaVuSans-69" x="178.605469"/>
     <use xlink:href="#DejaVuSans-64" x="206.388672"/>
     <use xlink:href="#DejaVuSans-75" x="269.865234"/>
     <use xlink:href="#DejaVuSans-61" x="333.244141"/>
     <use xlink:href="#DejaVuSans-6c" x="394.523438"/>
     <use xlink:href="#DejaVuSans-73" x="422.306641"/>
    </g>
   </g>
   <g id="legend_1">
    <g id="patch_7">
     <path d="M 52.16 291.750464 
L 188.756875 291.750464 
Q 190.756875 291.750464 190.756875 289.750464 
L 190.756875 261.394214 
Q 190.756875 259.394214 188.756875 259.394214 
L 52.16 259.394214 
Q 50.16 259.394214 50.16 261.394214 
L 50.16 289.750464 
Q 50.16 291.750464 52.16 291.750464 
z
" style="fill: #ffffff; opacity: 0.8; stroke: #cccccc; stroke-linejoin: miter"/>
    </g>
    <g id="line2d_20">
     <g>
      <use xlink:href="#mc8e2a17b49" x="64.16" y="267.492651" style="fill: #1f77b4; stroke: #1f77b4"/>
     </g>
    </g>
    <g id="text_18">
     <!-- without interpolation -->
     <g transform="translate(82.16 270.992651) scale(0.1 -0.1)">
      <defs>
       <path id="DejaVuSans-77" d="M 269 3500 
L 844 3500 
L 1563 769 
L 2278 3500 
L 2956 3500 
L 3675 769 
L 4391 3500 
L 4966 3500 
L 4050 0 
L 3372 0 
L 2619 2869 
L 1863 0 
L 1184 0 
L 269 3500 
z
" transform="scale(0.015625)"/>
       <path id="DejaVuSans-74" d="M 1172 4494 
L 1172 3500 
L 2356 3500 
L 2356 3053 
L 1172 3053 
L 1172 1153 
Q 1172 725 1289 603 
Q 1406 481 1766 481 
L 2356 481 
L 2356 0 
L 1766 0 
Q 1100 0 847 248 
Q 594 497 594 1153 
L 594 3053 
L 172 3053 
L 172 3500 
L 594 3500 
L 594 4494 
L 1172 4494 
z
" transform="scale(0.015625)"/>
       <path id="DejaVuSans-68" d="M 3513 2113 
L 3513 0 
L 2938 0 
L 2938 2094 
Q 2938 2591 2744 2837 
Q 2550 3084 2163 3084 
Q 1697 3084 1428 2787 
Q 1159 2491 1159 1978 
L 1159 0 
L 581 0 
L 581 4863 
L 1159 4863 
L 1159 2956 
Q 1366 3272 1645 3428 
Q 1925 3584 2291 3584 
Q 2894 3584 3203 3211 
Q 3513 2838 3513 2113 
z
" transform="scale(0.015625)"/>
       <path id="DejaVuSans-6f" d="M 1959 3097 
Q 1497 3097 1228 2736 
Q 959 2375 959 1747 
Q 959 1119 1226 758 
Q 1494 397 1959 397 
Q 2419 397 2687 759 
Q 2956 1122 2956 1747 
Q 2956 2369 2687 2733 
Q 2419 3097 1959 3097 
z
M 1959 3584 
Q 2709 3584 3137 3096 
Q 3566 2609 3566 1747 
Q 3566 888 3137 398 
Q 2709 -91 1959 -91 
Q 1206 -91 779 398 
Q 353 888 353 1747 
Q 353 2609 779 3096 
Q 1206 3584 1959 3584 
z
" transform="scale(0.015625)"/>
       <path id="DejaVuSans-20" transform="scale(0.015625)"/>
       <path id="DejaVuSans-6e" d="M 3513 2113 
L 3513 0 
L 2938 0 
L 2938 2094 
Q 2938 2591 2744 2837 
Q 2550 3084 2163 3084 
Q 1697 3084 1428 2787 
Q 1159 2491 1159 1978 
L 1159 0 
L 581 0 
L 581 3500 
L 1159 3500 
L 1159 2956 
Q 1366 3272 1645 3428 
Q 1925 3584 2291 3584 
Q 2894 3584 3203 3211 
Q 3513 2838 3513 2113 
z
" transform="scale(0.015625)"/>
       <path id="DejaVuSans-72" d="M 2631 2963 
Q 2534 3019 2420 3045 
Q 2306 3072 2169 3072 
Q 1681 3072 1420 2755 
Q 1159 2438 1159 1844 
L 1159 0 
L 581 0 
L 581 3500 
L 1159 3500 
L 1159 2956 
Q 1341 3275 1631 3429 
Q 1922 3584 2338 3584 
Q 2397 3584 2469 3576 
Q 2541 3569 2628 3553 
L 2631 2963 
z
" transform="scale(0.015625)"/>
       <path id="DejaVuSans-70" d="M 1159 525 
L 1159 -1331 
L 581 -1331 
L 581 3500 
L 1159 3500 
L 1159 2969 
Q 1341 3281 1617 3432 
Q 1894 3584 2278 3584 
Q 2916 3584 3314 3078 
Q 3713 2572 3713 1747 
Q 3713 922 3314 415 
Q 2916 -91 2278 -91 
Q 1894 -91 1617 61 
Q 1341 213 1159 525 
z
M 3116 1747 
Q 3116 2381 2855 2742 
Q 2594 3103 2138 3103 
Q 1681 3103 1420 2742 
Q 1159 2381 1159 1747 
Q 1159 1113 1420 752 
Q 1681 391 2138 391 
Q 2594 391 2855 752 
Q 3116 1113 3116 1747 
z
" transform="scale(0.015625)"/>
      </defs>
      <use xlink:href="#DejaVuSans-77"/>
      <use xlink:href="#DejaVuSans-69" x="81.787109"/>
      <use xlink:href="#DejaVuSans-74" x="109.570312"/>
      <use xlink:href="#DejaVuSans-68" x="148.779297"/>
      <use xlink:href="#DejaVuSans-6f" x="212.158203"/>
      <use xlink:href="#DejaVuSans-75" x="273.339844"/>
      <use xlink:href="#DejaVuSans-74" x="336.71875"/>
      <use xlink:href="#DejaVuSans-20" x="375.927734"/>
      <use xlink:href="#DejaVuSans-69" x="407.714844"/>
      <use xlink:href="#DejaVuSans-6e" x="435.498047"/>
      <use xlink:href="#DejaVuSans-74" x="498.876953"/>
      <use xlink:href="#DejaVuSans-65" x="538.085938"/>
      <use xlink:href="#DejaVuSans-72" x="599.609375"/>
      <use xlink:href="#DejaVuSans-70" x="640.722656"/>
      <use xlink:href="#DejaVuSans-6f" x="704.199219"/>
      <use xlink:href="#DejaVuSans-6c" x="765.380859"/>
      <use xlink:href="#DejaVuSans-61" x="793.164062"/>
      <use xlink:href="#DejaVuSans-74" x="854.443359"/>
      <use xlink:href="#DejaVuSans-69" x="893.652344"/>
      <use xlink:href="#DejaVuSans-6f" x="921.435547"/>
      <use xlink:href="#DejaVuSans-6e" x="982.617188"/>
     </g>
    </g>
    <g id="line2d_21">
     <g>
      <use xlink:href="#mb95f49f18f" x="64.16" y="282.170776" style="fill: #ff7f0e; stroke: #ff7f0e"/>
     </g>
    </g>
    <g id="text_19">
     <!-- with interpolation -->
     <g transform="translate(82.16 285.670776) scale(0.1 -0.1)">
      <use xlink:href="#DejaVuSans-77"/>
      <use xlink:href="#DejaVuSans-69" x="81.787109"/>
      <use xlink:href="#DejaVuSans-74" x="109.570312"/>
      <use xlink:href="#DejaVuSans-68" x="148.779297"/>
      <use xlink:href="#DejaVuSans-20" x="212.158203"/>
      <use xlink:href="#DejaVuSans-69" x="243.945312"/>
      <use xlink:href="#DejaVuSans-6e" x="271.728516"/>
      <use xlink:href="#DejaVuSans-74" x="335.107422"/>
      <use xlink:href="#DejaVuSans-65" x="374.316406"/>
      <use xlink:href="#DejaVuSans-72" x="435.839844"/>
      <use xlink:href="#DejaVuSans-70" x="476.953125"/>
      <use xlink:href="#DejaVuSans-6f" x="540.429688"/>
      <use xlink:href="#DejaVuSans-6c" x="601.611328"/>
      <use xlink:href="#DejaVuSans-61" x="629.394531"/>
      <use xlink:href="#DejaVuSans-74" x="690.673828"/>
      <use xlink:href="#DejaVuSans-69" x="729.882812"/>
      <use xlink:href="#DejaVuSans-6f" x="757.666016"/>
      <use xlink:href="#DejaVuSans-6e" x="818.847656"/>
     </g>
    </g>
   </g>
  </g>
 </g>
 <defs>
  <clipPath id="p594e8a4f2b">
   <rect x="45.16" y="26.88" width="404.84" height="269.870464"/>
  </clipPath>
 </defs>
</svg>
