<?xml version="1.0" encoding="utf-8" standalone="no"?>
<!DOCTYPE svg PUBLIC "-//W3C//DTD SVG 1.1//EN"
  "http://www.w3.org/Graphics/SVG/1.1/DTD/svg11.dtd">
<svg xmlns:xlink="http://www.w3.org/1999/xlink" width="460.8pt" height="345.6pt" viewBox="0 0 460.8 345.6" xmlns="http://www.w3.org/2000/svg" version="1.1">
 <metadata>
  <rdf:RDF xmlns:dc="http://purl.org/dc/elements/1.1/" xmlns:cc="http://creativecommons.org/ns#" xmlns:rdf="http://www.w3.org/1999/02/22-rdf-syntax-ns#">
   <cc:Work>
    <dc:type rdf:resource="http://purl.org/dc/dcmitype/StillImage"/>
    <dc:date>2024-05-03T09:20:32.299649</dc:date>
    <dc:format>image/svg+xml</dc:format>
    <dc:creator>
     <cc:Agent>
      <dc:title>Matplotlib v3.8.4, https://matplotlib.org/</dc:title>
     </cc:Agent>
    </dc:creator>
   </cc:Work>
  </rdf:RDF>
 </metadata>
 <defs>
  <style type="text/css">*{stroke-linejoin: round; stroke-linecap: butt}</style>
 </defs>
 <g id="figure_1">
  <g id="patch_1">
   <path d="M 0 345.6 
L 460.8 345.6 
L 460.8 0 
L 0 0 
z
" style="fill: #ffffff"/>
  </g>
  <g id="axes_1">
   <g id="patch_2">
    <path d="M 57.6 307.584 
L 414.72 307.584 
L 414.72 41.472 
L 57.6 41.472 
z
" style="fill: #ffffff"/>
   </g>
   <g id="PathCollection_1">
    <defs>
     <path id="m56bf78d884" d="M 0 3 
C 0.795609 3 1.55874 2.683901 2.12132 2.12132 
C 2.683901 1.55874 3 0.795609 3 0 
C 3 -0.795609 2.683901 -1.55874 2.12132 -2.12132 
C 1.55874 -2.683901 0.795609 -3 0 -3 
C -0.795609 -3 -1.55874 -2.683901 -2.12132 -2.12132 
C -2.683901 -1.55874 -3 -0.795609 -3 0 
C -3 0.795609 -2.683901 1.55874 -2.12132 2.12132 
C -1.55874 2.683901 -0.795609 3 0 3 
z
" style="stroke: #1f77b4"/>
    </defs>
    <g clip-path="url(#pd1e5c07f69)">
     <use xlink:href="#m56bf78d884" x="169.991858" y="180.061326" style="fill: #1f77b4; stroke: #1f77b4"/>
     <use xlink:href="#m56bf78d884" x="115.940949" y="172.508072" style="fill: #1f77b4; stroke: #1f77b4"/>
     <use xlink:href="#m56bf78d884" x="156.157482" y="173.5495" style="fill: #1f77b4; stroke: #1f77b4"/>
     <use xlink:href="#m56bf78d884" x="104.69435" y="187.978518" style="fill: #1f77b4; stroke: #1f77b4"/>
     <use xlink:href="#m56bf78d884" x="108.645694" y="192.847488" style="fill: #1f77b4; stroke: #1f77b4"/>
     <use xlink:href="#m56bf78d884" x="167.073762" y="184.952438" style="fill: #1f77b4; stroke: #1f77b4"/>
     <use xlink:href="#m56bf78d884" x="140.984731" y="189.241887" style="fill: #1f77b4; stroke: #1f77b4"/>
     <use xlink:href="#m56bf78d884" x="168.747658" y="197.441841" style="fill: #1f77b4; stroke: #1f77b4"/>
     <use xlink:href="#m56bf78d884" x="111.027924" y="188.914834" style="fill: #1f77b4; stroke: #1f77b4"/>
     <use xlink:href="#m56bf78d884" x="77.549525" y="182.763673" style="fill: #1f77b4; stroke: #1f77b4"/>
     <use xlink:href="#m56bf78d884" x="161.882151" y="220.692034" style="fill: #1f77b4; stroke: #1f77b4"/>
     <use xlink:href="#m56bf78d884" x="343.241312" y="173.119302" style="fill: #1f77b4; stroke: #1f77b4"/>
     <use xlink:href="#m56bf78d884" x="75.534704" y="190.657972" style="fill: #1f77b4; stroke: #1f77b4"/>
     <use xlink:href="#m56bf78d884" x="104.438314" y="209.516609" style="fill: #1f77b4; stroke: #1f77b4"/>
     <use xlink:href="#m56bf78d884" x="73.833192" y="53.568" style="fill: #1f77b4; stroke: #1f77b4"/>
     <use xlink:href="#m56bf78d884" x="190.192956" y="188.855577" style="fill: #1f77b4; stroke: #1f77b4"/>
     <use xlink:href="#m56bf78d884" x="160.279974" y="157.840587" style="fill: #1f77b4; stroke: #1f77b4"/>
     <use xlink:href="#m56bf78d884" x="359.467161" y="189.38543" style="fill: #1f77b4; stroke: #1f77b4"/>
     <use xlink:href="#m56bf78d884" x="319.324928" y="183.882983" style="fill: #1f77b4; stroke: #1f77b4"/>
     <use xlink:href="#m56bf78d884" x="152.757923" y="171.283332" style="fill: #1f77b4; stroke: #1f77b4"/>
     <use xlink:href="#m56bf78d884" x="167.820537" y="180.301107" style="fill: #1f77b4; stroke: #1f77b4"/>
     <use xlink:href="#m56bf78d884" x="131.270178" y="178.336637" style="fill: #1f77b4; stroke: #1f77b4"/>
     <use xlink:href="#m56bf78d884" x="168.442593" y="194.177451" style="fill: #1f77b4; stroke: #1f77b4"/>
     <use xlink:href="#m56bf78d884" x="155.44916" y="187.305338" style="fill: #1f77b4; stroke: #1f77b4"/>
     <use xlink:href="#m56bf78d884" x="238.021723" y="184.285937" style="fill: #1f77b4; stroke: #1f77b4"/>
     <use xlink:href="#m56bf78d884" x="78.344037" y="184.191908" style="fill: #1f77b4; stroke: #1f77b4"/>
     <use xlink:href="#m56bf78d884" x="91.029732" y="195.911004" style="fill: #1f77b4; stroke: #1f77b4"/>
     <use xlink:href="#m56bf78d884" x="199.327877" y="196.958792" style="fill: #1f77b4; stroke: #1f77b4"/>
     <use xlink:href="#m56bf78d884" x="134.08876" y="191.068358" style="fill: #1f77b4; stroke: #1f77b4"/>
     <use xlink:href="#m56bf78d884" x="338.905328" y="163.030448" style="fill: #1f77b4; stroke: #1f77b4"/>
     <use xlink:href="#m56bf78d884" x="201.674295" y="191.006916" style="fill: #1f77b4; stroke: #1f77b4"/>
     <use xlink:href="#m56bf78d884" x="168.913497" y="177.212906" style="fill: #1f77b4; stroke: #1f77b4"/>
     <use xlink:href="#m56bf78d884" x="168.552733" y="165.90011" style="fill: #1f77b4; stroke: #1f77b4"/>
     <use xlink:href="#m56bf78d884" x="119.002282" y="176.369531" style="fill: #1f77b4; stroke: #1f77b4"/>
     <use xlink:href="#m56bf78d884" x="94.544732" y="178.920578" style="fill: #1f77b4; stroke: #1f77b4"/>
     <use xlink:href="#m56bf78d884" x="129.537894" y="179.176963" style="fill: #1f77b4; stroke: #1f77b4"/>
     <use xlink:href="#m56bf78d884" x="141.146555" y="187.440317" style="fill: #1f77b4; stroke: #1f77b4"/>
     <use xlink:href="#m56bf78d884" x="105.541952" y="172.15097" style="fill: #1f77b4; stroke: #1f77b4"/>
     <use xlink:href="#m56bf78d884" x="108.588671" y="187.121182" style="fill: #1f77b4; stroke: #1f77b4"/>
     <use xlink:href="#m56bf78d884" x="129.624081" y="194.316719" style="fill: #1f77b4; stroke: #1f77b4"/>
     <use xlink:href="#m56bf78d884" x="176.793647" y="180.798184" style="fill: #1f77b4; stroke: #1f77b4"/>
     <use xlink:href="#m56bf78d884" x="255.546161" y="182.670039" style="fill: #1f77b4; stroke: #1f77b4"/>
     <use xlink:href="#m56bf78d884" x="159.165727" y="196.426082" style="fill: #1f77b4; stroke: #1f77b4"/>
     <use xlink:href="#m56bf78d884" x="116.474135" y="188.776203" style="fill: #1f77b4; stroke: #1f77b4"/>
     <use xlink:href="#m56bf78d884" x="96.131115" y="176.839501" style="fill: #1f77b4; stroke: #1f77b4"/>
     <use xlink:href="#m56bf78d884" x="124.8637" y="153.768137" style="fill: #1f77b4; stroke: #1f77b4"/>
     <use xlink:href="#m56bf78d884" x="142.503408" y="216.099316" style="fill: #1f77b4; stroke: #1f77b4"/>
     <use xlink:href="#m56bf78d884" x="237.526958" y="194.30107" style="fill: #1f77b4; stroke: #1f77b4"/>
     <use xlink:href="#m56bf78d884" x="75.037315" y="184.374565" style="fill: #1f77b4; stroke: #1f77b4"/>
     <use xlink:href="#m56bf78d884" x="78.7844" y="186.182905" style="fill: #1f77b4; stroke: #1f77b4"/>
     <use xlink:href="#m56bf78d884" x="84.210727" y="179.132987" style="fill: #1f77b4; stroke: #1f77b4"/>
     <use xlink:href="#m56bf78d884" x="119.584534" y="195.446733" style="fill: #1f77b4; stroke: #1f77b4"/>
     <use xlink:href="#m56bf78d884" x="73.832963" y="172.556366" style="fill: #1f77b4; stroke: #1f77b4"/>
     <use xlink:href="#m56bf78d884" x="187.540169" y="178.802577" style="fill: #1f77b4; stroke: #1f77b4"/>
     <use xlink:href="#m56bf78d884" x="398.487273" y="189.793094" style="fill: #1f77b4; stroke: #1f77b4"/>
     <use xlink:href="#m56bf78d884" x="100.162086" y="159.568929" style="fill: #1f77b4; stroke: #1f77b4"/>
     <use xlink:href="#m56bf78d884" x="197.285225" y="190.546666" style="fill: #1f77b4; stroke: #1f77b4"/>
     <use xlink:href="#m56bf78d884" x="206.791566" y="187.572301" style="fill: #1f77b4; stroke: #1f77b4"/>
     <use xlink:href="#m56bf78d884" x="237.671547" y="186.033069" style="fill: #1f77b4; stroke: #1f77b4"/>
     <use xlink:href="#m56bf78d884" x="82.398865" y="177.113208" style="fill: #1f77b4; stroke: #1f77b4"/>
     <use xlink:href="#m56bf78d884" x="146.879265" y="191.604028" style="fill: #1f77b4; stroke: #1f77b4"/>
     <use xlink:href="#m56bf78d884" x="149.097024" y="182.698289" style="fill: #1f77b4; stroke: #1f77b4"/>
     <use xlink:href="#m56bf78d884" x="153.659843" y="187.94589" style="fill: #1f77b4; stroke: #1f77b4"/>
     <use xlink:href="#m56bf78d884" x="172.267952" y="185.340503" style="fill: #1f77b4; stroke: #1f77b4"/>
     <use xlink:href="#m56bf78d884" x="77.162211" y="184.995807" style="fill: #1f77b4; stroke: #1f77b4"/>
     <use xlink:href="#m56bf78d884" x="75.104879" y="227.333244" style="fill: #1f77b4; stroke: #1f77b4"/>
     <use xlink:href="#m56bf78d884" x="124.22034" y="181.768599" style="fill: #1f77b4; stroke: #1f77b4"/>
     <use xlink:href="#m56bf78d884" x="232.210777" y="175.450577" style="fill: #1f77b4; stroke: #1f77b4"/>
     <use xlink:href="#m56bf78d884" x="134.515869" y="187.203836" style="fill: #1f77b4; stroke: #1f77b4"/>
     <use xlink:href="#m56bf78d884" x="123.412566" y="179.559456" style="fill: #1f77b4; stroke: #1f77b4"/>
     <use xlink:href="#m56bf78d884" x="130.898781" y="181.41719" style="fill: #1f77b4; stroke: #1f77b4"/>
     <use xlink:href="#m56bf78d884" x="343.192206" y="188.147125" style="fill: #1f77b4; stroke: #1f77b4"/>
     <use xlink:href="#m56bf78d884" x="95.666846" y="191.321347" style="fill: #1f77b4; stroke: #1f77b4"/>
     <use xlink:href="#m56bf78d884" x="141.210226" y="186.391552" style="fill: #1f77b4; stroke: #1f77b4"/>
     <use xlink:href="#m56bf78d884" x="97.405769" y="186.979221" style="fill: #1f77b4; stroke: #1f77b4"/>
     <use xlink:href="#m56bf78d884" x="111.74683" y="190.323108" style="fill: #1f77b4; stroke: #1f77b4"/>
     <use xlink:href="#m56bf78d884" x="100.359681" y="180.460838" style="fill: #1f77b4; stroke: #1f77b4"/>
     <use xlink:href="#m56bf78d884" x="114.270991" y="181.539851" style="fill: #1f77b4; stroke: #1f77b4"/>
     <use xlink:href="#m56bf78d884" x="73.832727" y="295.488" style="fill: #1f77b4; stroke: #1f77b4"/>
     <use xlink:href="#m56bf78d884" x="119.641583" y="187.77945" style="fill: #1f77b4; stroke: #1f77b4"/>
     <use xlink:href="#m56bf78d884" x="237.698094" y="181.256332" style="fill: #1f77b4; stroke: #1f77b4"/>
     <use xlink:href="#m56bf78d884" x="128.968852" y="186.66223" style="fill: #1f77b4; stroke: #1f77b4"/>
     <use xlink:href="#m56bf78d884" x="358.738956" y="195.183677" style="fill: #1f77b4; stroke: #1f77b4"/>
     <use xlink:href="#m56bf78d884" x="166.788589" y="181.50057" style="fill: #1f77b4; stroke: #1f77b4"/>
     <use xlink:href="#m56bf78d884" x="80.890729" y="185.123853" style="fill: #1f77b4; stroke: #1f77b4"/>
     <use xlink:href="#m56bf78d884" x="84.942896" y="182.116383" style="fill: #1f77b4; stroke: #1f77b4"/>
     <use xlink:href="#m56bf78d884" x="163.862504" y="202.668848" style="fill: #1f77b4; stroke: #1f77b4"/>
     <use xlink:href="#m56bf78d884" x="114.212612" y="190.308921" style="fill: #1f77b4; stroke: #1f77b4"/>
     <use xlink:href="#m56bf78d884" x="267.799466" y="185.91986" style="fill: #1f77b4; stroke: #1f77b4"/>
     <use xlink:href="#m56bf78d884" x="160.54127" y="162.952419" style="fill: #1f77b4; stroke: #1f77b4"/>
     <use xlink:href="#m56bf78d884" x="162.903566" y="177.268253" style="fill: #1f77b4; stroke: #1f77b4"/>
     <use xlink:href="#m56bf78d884" x="92.832323" y="191.651819" style="fill: #1f77b4; stroke: #1f77b4"/>
     <use xlink:href="#m56bf78d884" x="229.071162" y="182.750146" style="fill: #1f77b4; stroke: #1f77b4"/>
     <use xlink:href="#m56bf78d884" x="129.187711" y="184.857042" style="fill: #1f77b4; stroke: #1f77b4"/>
     <use xlink:href="#m56bf78d884" x="89.635701" y="186.588642" style="fill: #1f77b4; stroke: #1f77b4"/>
     <use xlink:href="#m56bf78d884" x="139.70211" y="184.724955" style="fill: #1f77b4; stroke: #1f77b4"/>
     <use xlink:href="#m56bf78d884" x="73.832963" y="172.556366" style="fill: #1f77b4; stroke: #1f77b4"/>
     <use xlink:href="#m56bf78d884" x="153.419788" y="175.688412" style="fill: #1f77b4; stroke: #1f77b4"/>
     <use xlink:href="#m56bf78d884" x="159.969538" y="190.2723" style="fill: #1f77b4; stroke: #1f77b4"/>
     <use xlink:href="#m56bf78d884" x="179.491504" y="206.484289" style="fill: #1f77b4; stroke: #1f77b4"/>
     <use xlink:href="#m56bf78d884" x="223.655506" y="160.867874" style="fill: #1f77b4; stroke: #1f77b4"/>
     <use xlink:href="#m56bf78d884" x="243.532934" y="184.167406" style="fill: #1f77b4; stroke: #1f77b4"/>
     <use xlink:href="#m56bf78d884" x="103.426304" y="190.776162" style="fill: #1f77b4; stroke: #1f77b4"/>
     <use xlink:href="#m56bf78d884" x="281.811615" y="171.818259" style="fill: #1f77b4; stroke: #1f77b4"/>
     <use xlink:href="#m56bf78d884" x="118.198453" y="191.86883" style="fill: #1f77b4; stroke: #1f77b4"/>
     <use xlink:href="#m56bf78d884" x="145.884477" y="184.31374" style="fill: #1f77b4; stroke: #1f77b4"/>
     <use xlink:href="#m56bf78d884" x="76.2271" y="183.023102" style="fill: #1f77b4; stroke: #1f77b4"/>
     <use xlink:href="#m56bf78d884" x="82.59252" y="177.099772" style="fill: #1f77b4; stroke: #1f77b4"/>
     <use xlink:href="#m56bf78d884" x="380.278451" y="184.835843" style="fill: #1f77b4; stroke: #1f77b4"/>
     <use xlink:href="#m56bf78d884" x="97.29569" y="180.290625" style="fill: #1f77b4; stroke: #1f77b4"/>
     <use xlink:href="#m56bf78d884" x="143.662752" y="184.390484" style="fill: #1f77b4; stroke: #1f77b4"/>
     <use xlink:href="#m56bf78d884" x="90.622548" y="184.997666" style="fill: #1f77b4; stroke: #1f77b4"/>
     <use xlink:href="#m56bf78d884" x="73.832963" y="172.556366" style="fill: #1f77b4; stroke: #1f77b4"/>
     <use xlink:href="#m56bf78d884" x="87.643451" y="183.131154" style="fill: #1f77b4; stroke: #1f77b4"/>
     <use xlink:href="#m56bf78d884" x="318.188212" y="173.347538" style="fill: #1f77b4; stroke: #1f77b4"/>
     <use xlink:href="#m56bf78d884" x="103.293652" y="196.735928" style="fill: #1f77b4; stroke: #1f77b4"/>
     <use xlink:href="#m56bf78d884" x="231.907031" y="172.65777" style="fill: #1f77b4; stroke: #1f77b4"/>
     <use xlink:href="#m56bf78d884" x="73.83305" y="127.42927" style="fill: #1f77b4; stroke: #1f77b4"/>
     <use xlink:href="#m56bf78d884" x="113.472473" y="194.531397" style="fill: #1f77b4; stroke: #1f77b4"/>
     <use xlink:href="#m56bf78d884" x="104.720868" y="193.279917" style="fill: #1f77b4; stroke: #1f77b4"/>
     <use xlink:href="#m56bf78d884" x="341.983809" y="212.421274" style="fill: #1f77b4; stroke: #1f77b4"/>
     <use xlink:href="#m56bf78d884" x="156.933416" y="181.775512" style="fill: #1f77b4; stroke: #1f77b4"/>
     <use xlink:href="#m56bf78d884" x="167.587094" y="177.292891" style="fill: #1f77b4; stroke: #1f77b4"/>
     <use xlink:href="#m56bf78d884" x="78.034983" y="185.468166" style="fill: #1f77b4; stroke: #1f77b4"/>
     <use xlink:href="#m56bf78d884" x="189.435614" y="169.754711" style="fill: #1f77b4; stroke: #1f77b4"/>
     <use xlink:href="#m56bf78d884" x="73.832936" y="186.558733" style="fill: #1f77b4; stroke: #1f77b4"/>
     <use xlink:href="#m56bf78d884" x="169.912247" y="191.239396" style="fill: #1f77b4; stroke: #1f77b4"/>
     <use xlink:href="#m56bf78d884" x="150.634321" y="186.499662" style="fill: #1f77b4; stroke: #1f77b4"/>
     <use xlink:href="#m56bf78d884" x="127.954162" y="182.56483" style="fill: #1f77b4; stroke: #1f77b4"/>
     <use xlink:href="#m56bf78d884" x="393.531871" y="178.395307" style="fill: #1f77b4; stroke: #1f77b4"/>
     <use xlink:href="#m56bf78d884" x="131.48236" y="200.598028" style="fill: #1f77b4; stroke: #1f77b4"/>
     <use xlink:href="#m56bf78d884" x="282.895264" y="186.422468" style="fill: #1f77b4; stroke: #1f77b4"/>
     <use xlink:href="#m56bf78d884" x="166.211566" y="202.559581" style="fill: #1f77b4; stroke: #1f77b4"/>
     <use xlink:href="#m56bf78d884" x="355.58347" y="179.017523" style="fill: #1f77b4; stroke: #1f77b4"/>
     <use xlink:href="#m56bf78d884" x="198.311872" y="184.215503" style="fill: #1f77b4; stroke: #1f77b4"/>
     <use xlink:href="#m56bf78d884" x="292.906931" y="196.456784" style="fill: #1f77b4; stroke: #1f77b4"/>
     <use xlink:href="#m56bf78d884" x="88.443254" y="191.990065" style="fill: #1f77b4; stroke: #1f77b4"/>
     <use xlink:href="#m56bf78d884" x="219.322072" y="197.237285" style="fill: #1f77b4; stroke: #1f77b4"/>
     <use xlink:href="#m56bf78d884" x="79.186301" y="185.636539" style="fill: #1f77b4; stroke: #1f77b4"/>
     <use xlink:href="#m56bf78d884" x="124.273386" y="186.871586" style="fill: #1f77b4; stroke: #1f77b4"/>
     <use xlink:href="#m56bf78d884" x="111.573064" y="194.286425" style="fill: #1f77b4; stroke: #1f77b4"/>
     <use xlink:href="#m56bf78d884" x="241.884208" y="184.301968" style="fill: #1f77b4; stroke: #1f77b4"/>
     <use xlink:href="#m56bf78d884" x="197.626136" y="177.829647" style="fill: #1f77b4; stroke: #1f77b4"/>
     <use xlink:href="#m56bf78d884" x="261.829286" y="206.00001" style="fill: #1f77b4; stroke: #1f77b4"/>
     <use xlink:href="#m56bf78d884" x="220.660438" y="182.082336" style="fill: #1f77b4; stroke: #1f77b4"/>
     <use xlink:href="#m56bf78d884" x="100.772183" y="185.369833" style="fill: #1f77b4; stroke: #1f77b4"/>
     <use xlink:href="#m56bf78d884" x="185.997502" y="210.126378" style="fill: #1f77b4; stroke: #1f77b4"/>
     <use xlink:href="#m56bf78d884" x="161.059872" y="172.458258" style="fill: #1f77b4; stroke: #1f77b4"/>
     <use xlink:href="#m56bf78d884" x="120.03684" y="194.483249" style="fill: #1f77b4; stroke: #1f77b4"/>
     <use xlink:href="#m56bf78d884" x="73.832955" y="176.822759" style="fill: #1f77b4; stroke: #1f77b4"/>
     <use xlink:href="#m56bf78d884" x="256.375152" y="188.523681" style="fill: #1f77b4; stroke: #1f77b4"/>
     <use xlink:href="#m56bf78d884" x="78.622589" y="180.809212" style="fill: #1f77b4; stroke: #1f77b4"/>
     <use xlink:href="#m56bf78d884" x="128.322917" y="174.785439" style="fill: #1f77b4; stroke: #1f77b4"/>
     <use xlink:href="#m56bf78d884" x="112.916729" y="184.647434" style="fill: #1f77b4; stroke: #1f77b4"/>
     <use xlink:href="#m56bf78d884" x="182.401646" y="199.328171" style="fill: #1f77b4; stroke: #1f77b4"/>
     <use xlink:href="#m56bf78d884" x="74.368808" y="183.832779" style="fill: #1f77b4; stroke: #1f77b4"/>
     <use xlink:href="#m56bf78d884" x="85.201534" y="187.725078" style="fill: #1f77b4; stroke: #1f77b4"/>
     <use xlink:href="#m56bf78d884" x="194.558159" y="181.457357" style="fill: #1f77b4; stroke: #1f77b4"/>
     <use xlink:href="#m56bf78d884" x="80.185077" y="188.111818" style="fill: #1f77b4; stroke: #1f77b4"/>
     <use xlink:href="#m56bf78d884" x="137.680685" y="176.346185" style="fill: #1f77b4; stroke: #1f77b4"/>
     <use xlink:href="#m56bf78d884" x="99.091663" y="167.688663" style="fill: #1f77b4; stroke: #1f77b4"/>
     <use xlink:href="#m56bf78d884" x="217.983708" y="212.275513" style="fill: #1f77b4; stroke: #1f77b4"/>
     <use xlink:href="#m56bf78d884" x="180.252916" y="176.352965" style="fill: #1f77b4; stroke: #1f77b4"/>
     <use xlink:href="#m56bf78d884" x="196.777239" y="179.92525" style="fill: #1f77b4; stroke: #1f77b4"/>
     <use xlink:href="#m56bf78d884" x="126.93548" y="185.654412" style="fill: #1f77b4; stroke: #1f77b4"/>
     <use xlink:href="#m56bf78d884" x="225.275003" y="179.68769" style="fill: #1f77b4; stroke: #1f77b4"/>
     <use xlink:href="#m56bf78d884" x="76.610439" y="179.095032" style="fill: #1f77b4; stroke: #1f77b4"/>
     <use xlink:href="#m56bf78d884" x="185.493511" y="189.121238" style="fill: #1f77b4; stroke: #1f77b4"/>
     <use xlink:href="#m56bf78d884" x="159.728188" y="161.045498" style="fill: #1f77b4; stroke: #1f77b4"/>
     <use xlink:href="#m56bf78d884" x="96.17484" y="200.766239" style="fill: #1f77b4; stroke: #1f77b4"/>
     <use xlink:href="#m56bf78d884" x="73.902062" y="107.023055" style="fill: #1f77b4; stroke: #1f77b4"/>
     <use xlink:href="#m56bf78d884" x="289.880075" y="194.178148" style="fill: #1f77b4; stroke: #1f77b4"/>
     <use xlink:href="#m56bf78d884" x="85.304994" y="187.357163" style="fill: #1f77b4; stroke: #1f77b4"/>
     <use xlink:href="#m56bf78d884" x="357.862242" y="185.025792" style="fill: #1f77b4; stroke: #1f77b4"/>
     <use xlink:href="#m56bf78d884" x="122.900564" y="183.852424" style="fill: #1f77b4; stroke: #1f77b4"/>
     <use xlink:href="#m56bf78d884" x="196.094136" y="181.432977" style="fill: #1f77b4; stroke: #1f77b4"/>
     <use xlink:href="#m56bf78d884" x="94.487677" y="189.698511" style="fill: #1f77b4; stroke: #1f77b4"/>
     <use xlink:href="#m56bf78d884" x="108.412284" y="175.223614" style="fill: #1f77b4; stroke: #1f77b4"/>
     <use xlink:href="#m56bf78d884" x="108.514393" y="186.943731" style="fill: #1f77b4; stroke: #1f77b4"/>
     <use xlink:href="#m56bf78d884" x="135.795841" y="190.017521" style="fill: #1f77b4; stroke: #1f77b4"/>
     <use xlink:href="#m56bf78d884" x="169.452004" y="183.49893" style="fill: #1f77b4; stroke: #1f77b4"/>
     <use xlink:href="#m56bf78d884" x="212.83996" y="188.113722" style="fill: #1f77b4; stroke: #1f77b4"/>
     <use xlink:href="#m56bf78d884" x="255.116391" y="191.173474" style="fill: #1f77b4; stroke: #1f77b4"/>
     <use xlink:href="#m56bf78d884" x="95.446672" y="186.251775" style="fill: #1f77b4; stroke: #1f77b4"/>
     <use xlink:href="#m56bf78d884" x="254.349731" y="188.62109" style="fill: #1f77b4; stroke: #1f77b4"/>
     <use xlink:href="#m56bf78d884" x="221.626067" y="179.71536" style="fill: #1f77b4; stroke: #1f77b4"/>
     <use xlink:href="#m56bf78d884" x="131.886947" y="182.234831" style="fill: #1f77b4; stroke: #1f77b4"/>
     <use xlink:href="#m56bf78d884" x="171.88332" y="170.695514" style="fill: #1f77b4; stroke: #1f77b4"/>
    </g>
   </g>
   <g id="matplotlib.axis_1">
    <g id="xtick_1">
     <g id="line2d_1">
      <defs>
       <path id="m7269cbe7e9" d="M 0 0 
L 0 3.5 
" style="stroke: #000000; stroke-width: 0.8"/>
      </defs>
      <g>
       <use xlink:href="#m7269cbe7e9" x="73.832941" y="307.584" style="stroke: #000000; stroke-width: 0.8"/>
      </g>
     </g>
     <g id="text_1">
      <!-- 0 -->
      <g transform="translate(70.651691 322.182437) scale(0.1 -0.1)">
       <defs>
        <path id="DejaVuSans-30" d="M 2034 4250 
Q 1547 4250 1301 3770 
Q 1056 3291 1056 2328 
Q 1056 1369 1301 889 
Q 1547 409 2034 409 
Q 2525 409 2770 889 
Q 3016 1369 3016 2328 
Q 3016 3291 2770 3770 
Q 2525 4250 2034 4250 
z
M 2034 4750 
Q 2819 4750 3233 4129 
Q 3647 3509 3647 2328 
Q 3647 1150 3233 529 
Q 2819 -91 2034 -91 
Q 1250 -91 836 529 
Q 422 1150 422 2328 
Q 422 3509 836 4129 
Q 1250 4750 2034 4750 
z
" transform="scale(0.015625)"/>
       </defs>
       <use xlink:href="#DejaVuSans-30"/>
      </g>
     </g>
    </g>
    <g id="xtick_2">
     <g id="line2d_2">
      <g>
       <use xlink:href="#m7269cbe7e9" x="140.153087" y="307.584" style="stroke: #000000; stroke-width: 0.8"/>
      </g>
     </g>
     <g id="text_2">
      <!-- 500 -->
      <g transform="translate(130.609337 322.182437) scale(0.1 -0.1)">
       <defs>
        <path id="DejaVuSans-35" d="M 691 4666 
L 3169 4666 
L 3169 4134 
L 1269 4134 
L 1269 2991 
Q 1406 3038 1543 3061 
Q 1681 3084 1819 3084 
Q 2600 3084 3056 2656 
Q 3513 2228 3513 1497 
Q 3513 744 3044 326 
Q 2575 -91 1722 -91 
Q 1428 -91 1123 -41 
Q 819 9 494 109 
L 494 744 
Q 775 591 1075 516 
Q 1375 441 1709 441 
Q 2250 441 2565 725 
Q 2881 1009 2881 1497 
Q 2881 1984 2565 2268 
Q 2250 2553 1709 2553 
Q 1456 2553 1204 2497 
Q 953 2441 691 2322 
L 691 4666 
z
" transform="scale(0.015625)"/>
       </defs>
       <use xlink:href="#DejaVuSans-35"/>
       <use xlink:href="#DejaVuSans-30" x="63.623047"/>
       <use xlink:href="#DejaVuSans-30" x="127.246094"/>
      </g>
     </g>
    </g>
    <g id="xtick_3">
     <g id="line2d_3">
      <g>
       <use xlink:href="#m7269cbe7e9" x="206.473233" y="307.584" style="stroke: #000000; stroke-width: 0.8"/>
      </g>
     </g>
     <g id="text_3">
      <!-- 1000 -->
      <g transform="translate(193.748233 322.182437) scale(0.1 -0.1)">
       <defs>
        <path id="DejaVuSans-31" d="M 794 531 
L 1825 531 
L 1825 4091 
L 703 3866 
L 703 4441 
L 1819 4666 
L 2450 4666 
L 2450 531 
L 3481 531 
L 3481 0 
L 794 0 
L 794 531 
z
" transform="scale(0.015625)"/>
       </defs>
       <use xlink:href="#DejaVuSans-31"/>
       <use xlink:href="#DejaVuSans-30" x="63.623047"/>
       <use xlink:href="#DejaVuSans-30" x="127.246094"/>
       <use xlink:href="#DejaVuSans-30" x="190.869141"/>
      </g>
     </g>
    </g>
    <g id="xtick_4">
     <g id="line2d_4">
      <g>
       <use xlink:href="#m7269cbe7e9" x="272.793379" y="307.584" style="stroke: #000000; stroke-width: 0.8"/>
      </g>
     </g>
     <g id="text_4">
      <!-- 1500 -->
      <g transform="translate(260.068379 322.182437) scale(0.1 -0.1)">
       <use xlink:href="#DejaVuSans-31"/>
       <use xlink:href="#DejaVuSans-35" x="63.623047"/>
       <use xlink:href="#DejaVuSans-30" x="127.246094"/>
       <use xlink:href="#DejaVuSans-30" x="190.869141"/>
      </g>
     </g>
    </g>
    <g id="xtick_5">
     <g id="line2d_5">
      <g>
       <use xlink:href="#m7269cbe7e9" x="339.113525" y="307.584" style="stroke: #000000; stroke-width: 0.8"/>
      </g>
     </g>
     <g id="text_5">
      <!-- 2000 -->
      <g transform="translate(326.388525 322.182437) scale(0.1 -0.1)">
       <defs>
        <path id="DejaVuSans-32" d="M 1228 531 
L 3431 531 
L 3431 0 
L 469 0 
L 469 531 
Q 828 903 1448 1529 
Q 2069 2156 2228 2338 
Q 2531 2678 2651 2914 
Q 2772 3150 2772 3378 
Q 2772 3750 2511 3984 
Q 2250 4219 1831 4219 
Q 1534 4219 1204 4116 
Q 875 4013 500 3803 
L 500 4441 
Q 881 4594 1212 4672 
Q 1544 4750 1819 4750 
Q 2544 4750 2975 4387 
Q 3406 4025 3406 3419 
Q 3406 3131 3298 2873 
Q 3191 2616 2906 2266 
Q 2828 2175 2409 1742 
Q 1991 1309 1228 531 
z
" transform="scale(0.015625)"/>
       </defs>
       <use xlink:href="#DejaVuSans-32"/>
       <use xlink:href="#DejaVuSans-30" x="63.623047"/>
       <use xlink:href="#DejaVuSans-30" x="127.246094"/>
       <use xlink:href="#DejaVuSans-30" x="190.869141"/>
      </g>
     </g>
    </g>
    <g id="xtick_6">
     <g id="line2d_6">
      <g>
       <use xlink:href="#m7269cbe7e9" x="405.433671" y="307.584" style="stroke: #000000; stroke-width: 0.8"/>
      </g>
     </g>
     <g id="text_6">
      <!-- 2500 -->
      <g transform="translate(392.708671 322.182437) scale(0.1 -0.1)">
       <use xlink:href="#DejaVuSans-32"/>
       <use xlink:href="#DejaVuSans-35" x="63.623047"/>
       <use xlink:href="#DejaVuSans-30" x="127.246094"/>
       <use xlink:href="#DejaVuSans-30" x="190.869141"/>
      </g>
     </g>
    </g>
    <g id="text_7">
     <!-- Predicted values -->
     <g transform="translate(194.838125 335.860562) scale(0.1 -0.1)">
      <defs>
       <path id="DejaVuSans-50" d="M 1259 4147 
L 1259 2394 
L 2053 2394 
Q 2494 2394 2734 2622 
Q 2975 2850 2975 3272 
Q 2975 3691 2734 3919 
Q 2494 4147 2053 4147 
L 1259 4147 
z
M 628 4666 
L 2053 4666 
Q 2838 4666 3239 4311 
Q 3641 3956 3641 3272 
Q 3641 2581 3239 2228 
Q 2838 1875 2053 1875 
L 1259 1875 
L 1259 0 
L 628 0 
L 628 4666 
z
" transform="scale(0.015625)"/>
       <path id="DejaVuSans-72" d="M 2631 2963 
Q 2534 3019 2420 3045 
Q 2306 3072 2169 3072 
Q 1681 3072 1420 2755 
Q 1159 2438 1159 1844 
L 1159 0 
L 581 0 
L 581 3500 
L 1159 3500 
L 1159 2956 
Q 1341 3275 1631 3429 
Q 1922 3584 2338 3584 
Q 2397 3584 2469 3576 
Q 2541 3569 2628 3553 
L 2631 2963 
z
" transform="scale(0.015625)"/>
       <path id="DejaVuSans-65" d="M 3597 1894 
L 3597 1613 
L 953 1613 
Q 991 1019 1311 708 
Q 1631 397 2203 397 
Q 2534 397 2845 478 
Q 3156 559 3463 722 
L 3463 178 
Q 3153 47 2828 -22 
Q 2503 -91 2169 -91 
Q 1331 -91 842 396 
Q 353 884 353 1716 
Q 353 2575 817 3079 
Q 1281 3584 2069 3584 
Q 2775 3584 3186 3129 
Q 3597 2675 3597 1894 
z
M 3022 2063 
Q 3016 2534 2758 2815 
Q 2500 3097 2075 3097 
Q 1594 3097 1305 2825 
Q 1016 2553 972 2059 
L 3022 2063 
z
" transform="scale(0.015625)"/>
       <path id="DejaVuSans-64" d="M 2906 2969 
L 2906 4863 
L 3481 4863 
L 3481 0 
L 2906 0 
L 2906 525 
Q 2725 213 2448 61 
Q 2172 -91 1784 -91 
Q 1150 -91 751 415 
Q 353 922 353 1747 
Q 353 2572 751 3078 
Q 1150 3584 1784 3584 
Q 2172 3584 2448 3432 
Q 2725 3281 2906 2969 
z
M 947 1747 
Q 947 1113 1208 752 
Q 1469 391 1925 391 
Q 2381 391 2643 752 
Q 2906 1113 2906 1747 
Q 2906 2381 2643 2742 
Q 2381 3103 1925 3103 
Q 1469 3103 1208 2742 
Q 947 2381 947 1747 
z
" transform="scale(0.015625)"/>
       <path id="DejaVuSans-69" d="M 603 3500 
L 1178 3500 
L 1178 0 
L 603 0 
L 603 3500 
z
M 603 4863 
L 1178 4863 
L 1178 4134 
L 603 4134 
L 603 4863 
z
" transform="scale(0.015625)"/>
       <path id="DejaVuSans-63" d="M 3122 3366 
L 3122 2828 
Q 2878 2963 2633 3030 
Q 2388 3097 2138 3097 
Q 1578 3097 1268 2742 
Q 959 2388 959 1747 
Q 959 1106 1268 751 
Q 1578 397 2138 397 
Q 2388 397 2633 464 
Q 2878 531 3122 666 
L 3122 134 
Q 2881 22 2623 -34 
Q 2366 -91 2075 -91 
Q 1284 -91 818 406 
Q 353 903 353 1747 
Q 353 2603 823 3093 
Q 1294 3584 2113 3584 
Q 2378 3584 2631 3529 
Q 2884 3475 3122 3366 
z
" transform="scale(0.015625)"/>
       <path id="DejaVuSans-74" d="M 1172 4494 
L 1172 3500 
L 2356 3500 
L 2356 3053 
L 1172 3053 
L 1172 1153 
Q 1172 725 1289 603 
Q 1406 481 1766 481 
L 2356 481 
L 2356 0 
L 1766 0 
Q 1100 0 847 248 
Q 594 497 594 1153 
L 594 3053 
L 172 3053 
L 172 3500 
L 594 3500 
L 594 4494 
L 1172 4494 
z
" transform="scale(0.015625)"/>
       <path id="DejaVuSans-20" transform="scale(0.015625)"/>
       <path id="DejaVuSans-76" d="M 191 3500 
L 800 3500 
L 1894 563 
L 2988 3500 
L 3597 3500 
L 2284 0 
L 1503 0 
L 191 3500 
z
" transform="scale(0.015625)"/>
       <path id="DejaVuSans-61" d="M 2194 1759 
Q 1497 1759 1228 1600 
Q 959 1441 959 1056 
Q 959 750 1161 570 
Q 1363 391 1709 391 
Q 2188 391 2477 730 
Q 2766 1069 2766 1631 
L 2766 1759 
L 2194 1759 
z
M 3341 1997 
L 3341 0 
L 2766 0 
L 2766 531 
Q 2569 213 2275 61 
Q 1981 -91 1556 -91 
Q 1019 -91 701 211 
Q 384 513 384 1019 
Q 384 1609 779 1909 
Q 1175 2209 1959 2209 
L 2766 2209 
L 2766 2266 
Q 2766 2663 2505 2880 
Q 2244 3097 1772 3097 
Q 1472 3097 1187 3025 
Q 903 2953 641 2809 
L 641 3341 
Q 956 3463 1253 3523 
Q 1550 3584 1831 3584 
Q 2591 3584 2966 3190 
Q 3341 2797 3341 1997 
z
" transform="scale(0.015625)"/>
       <path id="DejaVuSans-6c" d="M 603 4863 
L 1178 4863 
L 1178 0 
L 603 0 
L 603 4863 
z
" transform="scale(0.015625)"/>
       <path id="DejaVuSans-75" d="M 544 1381 
L 544 3500 
L 1119 3500 
L 1119 1403 
Q 1119 906 1312 657 
Q 1506 409 1894 409 
Q 2359 409 2629 706 
Q 2900 1003 2900 1516 
L 2900 3500 
L 3475 3500 
L 3475 0 
L 2900 0 
L 2900 538 
Q 2691 219 2414 64 
Q 2138 -91 1772 -91 
Q 1169 -91 856 284 
Q 544 659 544 1381 
z
M 1991 3584 
L 1991 3584 
z
" transform="scale(0.015625)"/>
       <path id="DejaVuSans-73" d="M 2834 3397 
L 2834 2853 
Q 2591 2978 2328 3040 
Q 2066 3103 1784 3103 
Q 1356 3103 1142 2972 
Q 928 2841 928 2578 
Q 928 2378 1081 2264 
Q 1234 2150 1697 2047 
L 1894 2003 
Q 2506 1872 2764 1633 
Q 3022 1394 3022 966 
Q 3022 478 2636 193 
Q 2250 -91 1575 -91 
Q 1294 -91 989 -36 
Q 684 19 347 128 
L 347 722 
Q 666 556 975 473 
Q 1284 391 1588 391 
Q 1994 391 2212 530 
Q 2431 669 2431 922 
Q 2431 1156 2273 1281 
Q 2116 1406 1581 1522 
L 1381 1569 
Q 847 1681 609 1914 
Q 372 2147 372 2553 
Q 372 3047 722 3315 
Q 1072 3584 1716 3584 
Q 2034 3584 2315 3537 
Q 2597 3491 2834 3397 
z
" transform="scale(0.015625)"/>
      </defs>
      <use xlink:href="#DejaVuSans-50"/>
      <use xlink:href="#DejaVuSans-72" x="58.552734"/>
      <use xlink:href="#DejaVuSans-65" x="97.416016"/>
      <use xlink:href="#DejaVuSans-64" x="158.939453"/>
      <use xlink:href="#DejaVuSans-69" x="222.416016"/>
      <use xlink:href="#DejaVuSans-63" x="250.199219"/>
      <use xlink:href="#DejaVuSans-74" x="305.179688"/>
      <use xlink:href="#DejaVuSans-65" x="344.388672"/>
      <use xlink:href="#DejaVuSans-64" x="405.912109"/>
      <use xlink:href="#DejaVuSans-20" x="469.388672"/>
      <use xlink:href="#DejaVuSans-76" x="501.175781"/>
      <use xlink:href="#DejaVuSans-61" x="560.355469"/>
      <use xlink:href="#DejaVuSans-6c" x="621.634766"/>
      <use xlink:href="#DejaVuSans-75" x="649.417969"/>
      <use xlink:href="#DejaVuSans-65" x="712.796875"/>
      <use xlink:href="#DejaVuSans-73" x="774.320312"/>
     </g>
    </g>
   </g>
   <g id="matplotlib.axis_2">
    <g id="ytick_1">
     <g id="line2d_7">
      <defs>
       <path id="mbf30e7c503" d="M 0 0 
L -3.5 0 
" style="stroke: #000000; stroke-width: 0.8"/>
      </defs>
      <g>
       <use xlink:href="#mbf30e7c503" x="57.6" y="287.975218" style="stroke: #000000; stroke-width: 0.8"/>
      </g>
     </g>
     <g id="text_8">
      <!-- −0.0015 -->
      <g transform="translate(7.229687 291.774436) scale(0.1 -0.1)">
       <defs>
        <path id="DejaVuSans-2212" d="M 678 2272 
L 4684 2272 
L 4684 1741 
L 678 1741 
L 678 2272 
z
" transform="scale(0.015625)"/>
        <path id="DejaVuSans-2e" d="M 684 794 
L 1344 794 
L 1344 0 
L 684 0 
L 684 794 
z
" transform="scale(0.015625)"/>
       </defs>
       <use xlink:href="#DejaVuSans-2212"/>
       <use xlink:href="#DejaVuSans-30" x="83.789062"/>
       <use xlink:href="#DejaVuSans-2e" x="147.412109"/>
       <use xlink:href="#DejaVuSans-30" x="179.199219"/>
       <use xlink:href="#DejaVuSans-30" x="242.822266"/>
       <use xlink:href="#DejaVuSans-31" x="306.445312"/>
       <use xlink:href="#DejaVuSans-35" x="370.068359"/>
      </g>
     </g>
    </g>
    <g id="ytick_2">
     <g id="line2d_8">
      <g>
       <use xlink:href="#mbf30e7c503" x="57.6" y="253.44393" style="stroke: #000000; stroke-width: 0.8"/>
      </g>
     </g>
     <g id="text_9">
      <!-- −0.0010 -->
      <g transform="translate(7.229687 257.243149) scale(0.1 -0.1)">
       <use xlink:href="#DejaVuSans-2212"/>
       <use xlink:href="#DejaVuSans-30" x="83.789062"/>
       <use xlink:href="#DejaVuSans-2e" x="147.412109"/>
       <use xlink:href="#DejaVuSans-30" x="179.199219"/>
       <use xlink:href="#DejaVuSans-30" x="242.822266"/>
       <use xlink:href="#DejaVuSans-31" x="306.445312"/>
       <use xlink:href="#DejaVuSans-30" x="370.068359"/>
      </g>
     </g>
    </g>
    <g id="ytick_3">
     <g id="line2d_9">
      <g>
       <use xlink:href="#mbf30e7c503" x="57.6" y="218.912642" style="stroke: #000000; stroke-width: 0.8"/>
      </g>
     </g>
     <g id="text_10">
      <!-- −0.0005 -->
      <g transform="translate(7.229687 222.711861) scale(0.1 -0.1)">
       <use xlink:href="#DejaVuSans-2212"/>
       <use xlink:href="#DejaVuSans-30" x="83.789062"/>
       <use xlink:href="#DejaVuSans-2e" x="147.412109"/>
       <use xlink:href="#DejaVuSans-30" x="179.199219"/>
       <use xlink:href="#DejaVuSans-30" x="242.822266"/>
       <use xlink:href="#DejaVuSans-30" x="306.445312"/>
       <use xlink:href="#DejaVuSans-35" x="370.068359"/>
      </g>
     </g>
    </g>
    <g id="ytick_4">
     <g id="line2d_10">
      <g>
       <use xlink:href="#mbf30e7c503" x="57.6" y="184.381355" style="stroke: #000000; stroke-width: 0.8"/>
      </g>
     </g>
     <g id="text_11">
      <!-- 0.0000 -->
      <g transform="translate(15.609375 188.180574) scale(0.1 -0.1)">
       <use xlink:href="#DejaVuSans-30"/>
       <use xlink:href="#DejaVuSans-2e" x="63.623047"/>
       <use xlink:href="#DejaVuSans-30" x="95.410156"/>
       <use xlink:href="#DejaVuSans-30" x="159.033203"/>
       <use xlink:href="#DejaVuSans-30" x="222.65625"/>
       <use xlink:href="#DejaVuSans-30" x="286.279297"/>
      </g>
     </g>
    </g>
    <g id="ytick_5">
     <g id="line2d_11">
      <g>
       <use xlink:href="#mbf30e7c503" x="57.6" y="149.850067" style="stroke: #000000; stroke-width: 0.8"/>
      </g>
     </g>
     <g id="text_12">
      <!-- 0.0005 -->
      <g transform="translate(15.609375 153.649286) scale(0.1 -0.1)">
       <use xlink:href="#DejaVuSans-30"/>
       <use xlink:href="#DejaVuSans-2e" x="63.623047"/>
       <use xlink:href="#DejaVuSans-30" x="95.410156"/>
       <use xlink:href="#DejaVuSans-30" x="159.033203"/>
       <use xlink:href="#DejaVuSans-30" x="222.65625"/>
       <use xlink:href="#DejaVuSans-35" x="286.279297"/>
      </g>
     </g>
    </g>
    <g id="ytick_6">
     <g id="line2d_12">
      <g>
       <use xlink:href="#mbf30e7c503" x="57.6" y="115.31878" style="stroke: #000000; stroke-width: 0.8"/>
      </g>
     </g>
     <g id="text_13">
      <!-- 0.0010 -->
      <g transform="translate(15.609375 119.117998) scale(0.1 -0.1)">
       <use xlink:href="#DejaVuSans-30"/>
       <use xlink:href="#DejaVuSans-2e" x="63.623047"/>
       <use xlink:href="#DejaVuSans-30" x="95.410156"/>
       <use xlink:href="#DejaVuSans-30" x="159.033203"/>
       <use xlink:href="#DejaVuSans-31" x="222.65625"/>
       <use xlink:href="#DejaVuSans-30" x="286.279297"/>
      </g>
     </g>
    </g>
    <g id="ytick_7">
     <g id="line2d_13">
      <g>
       <use xlink:href="#mbf30e7c503" x="57.6" y="80.787492" style="stroke: #000000; stroke-width: 0.8"/>
      </g>
     </g>
     <g id="text_14">
      <!-- 0.0015 -->
      <g transform="translate(15.609375 84.586711) scale(0.1 -0.1)">
       <use xlink:href="#DejaVuSans-30"/>
       <use xlink:href="#DejaVuSans-2e" x="63.623047"/>
       <use xlink:href="#DejaVuSans-30" x="95.410156"/>
       <use xlink:href="#DejaVuSans-30" x="159.033203"/>
       <use xlink:href="#DejaVuSans-31" x="222.65625"/>
       <use xlink:href="#DejaVuSans-35" x="286.279297"/>
      </g>
     </g>
    </g>
    <g id="ytick_8">
     <g id="line2d_14">
      <g>
       <use xlink:href="#mbf30e7c503" x="57.6" y="46.256205" style="stroke: #000000; stroke-width: 0.8"/>
      </g>
     </g>
     <g id="text_15">
      <!-- 0.0020 -->
      <g transform="translate(15.609375 50.055423) scale(0.1 -0.1)">
       <use xlink:href="#DejaVuSans-30"/>
       <use xlink:href="#DejaVuSans-2e" x="63.623047"/>
       <use xlink:href="#DejaVuSans-30" x="95.410156"/>
       <use xlink:href="#DejaVuSans-30" x="159.033203"/>
       <use xlink:href="#DejaVuSans-32" x="222.65625"/>
       <use xlink:href="#DejaVuSans-30" x="286.279297"/>
      </g>
     </g>
    </g>
    <g id="text_16">
     <!-- Residuals -->
     <g transform="translate(1.15 198.248312) rotate(-90) scale(0.1 -0.1)">
      <defs>
       <path id="DejaVuSans-52" d="M 2841 2188 
Q 3044 2119 3236 1894 
Q 3428 1669 3622 1275 
L 4263 0 
L 3584 0 
L 2988 1197 
Q 2756 1666 2539 1819 
Q 2322 1972 1947 1972 
L 1259 1972 
L 1259 0 
L 628 0 
L 628 4666 
L 2053 4666 
Q 2853 4666 3247 4331 
Q 3641 3997 3641 3322 
Q 3641 2881 3436 2590 
Q 3231 2300 2841 2188 
z
M 1259 4147 
L 1259 2491 
L 2053 2491 
Q 2509 2491 2742 2702 
Q 2975 2913 2975 3322 
Q 2975 3731 2742 3939 
Q 2509 4147 2053 4147 
L 1259 4147 
z
" transform="scale(0.015625)"/>
      </defs>
      <use xlink:href="#DejaVuSans-52"/>
      <use xlink:href="#DejaVuSans-65" x="64.982422"/>
      <use xlink:href="#DejaVuSans-73" x="126.505859"/>
      <use xlink:href="#DejaVuSans-69" x="178.605469"/>
      <use xlink:href="#DejaVuSans-64" x="206.388672"/>
      <use xlink:href="#DejaVuSans-75" x="269.865234"/>
      <use xlink:href="#DejaVuSans-61" x="333.244141"/>
      <use xlink:href="#DejaVuSans-6c" x="394.523438"/>
      <use xlink:href="#DejaVuSans-73" x="422.306641"/>
     </g>
    </g>
   </g>
   <g id="line2d_15">
    <path d="M 57.6 184.381355 
L 414.72 184.381355 
" clip-path="url(#pd1e5c07f69)" style="fill: none; stroke-dasharray: 5.55,2.4; stroke-dashoffset: 0; stroke: #ff0000; stroke-width: 1.5"/>
   </g>
   <g id="patch_3">
    <path d="M 57.6 307.584 
L 57.6 41.472 
" style="fill: none; stroke: #000000; stroke-width: 0.8; stroke-linejoin: miter; stroke-linecap: square"/>
   </g>
   <g id="patch_4">
    <path d="M 414.72 307.584 
L 414.72 41.472 
" style="fill: none; stroke: #000000; stroke-width: 0.8; stroke-linejoin: miter; stroke-linecap: square"/>
   </g>
   <g id="patch_5">
    <path d="M 57.6 307.584 
L 414.72 307.584 
" style="fill: none; stroke: #000000; stroke-width: 0.8; stroke-linejoin: miter; stroke-linecap: square"/>
   </g>
   <g id="patch_6">
    <path d="M 57.6 41.472 
L 414.72 41.472 
" style="fill: none; stroke: #000000; stroke-width: 0.8; stroke-linejoin: miter; stroke-linecap: square"/>
   </g>
   <g id="text_17">
    <!-- Residuals for model with simple weighted interpolation -->
    <g transform="translate(70.760625 35.472) scale(0.12 -0.12)">
     <defs>
      <path id="DejaVuSans-66" d="M 2375 4863 
L 2375 4384 
L 1825 4384 
Q 1516 4384 1395 4259 
Q 1275 4134 1275 3809 
L 1275 3500 
L 2222 3500 
L 2222 3053 
L 1275 3053 
L 1275 0 
L 697 0 
L 697 3053 
L 147 3053 
L 147 3500 
L 697 3500 
L 697 3744 
Q 697 4328 969 4595 
Q 1241 4863 1831 4863 
L 2375 4863 
z
" transform="scale(0.015625)"/>
      <path id="DejaVuSans-6f" d="M 1959 3097 
Q 1497 3097 1228 2736 
Q 959 2375 959 1747 
Q 959 1119 1226 758 
Q 1494 397 1959 397 
Q 2419 397 2687 759 
Q 2956 1122 2956 1747 
Q 2956 2369 2687 2733 
Q 2419 3097 1959 3097 
z
M 1959 3584 
Q 2709 3584 3137 3096 
Q 3566 2609 3566 1747 
Q 3566 888 3137 398 
Q 2709 -91 1959 -91 
Q 1206 -91 779 398 
Q 353 888 353 1747 
Q 353 2609 779 3096 
Q 1206 3584 1959 3584 
z
" transform="scale(0.015625)"/>
      <path id="DejaVuSans-6d" d="M 3328 2828 
Q 3544 3216 3844 3400 
Q 4144 3584 4550 3584 
Q 5097 3584 5394 3201 
Q 5691 2819 5691 2113 
L 5691 0 
L 5113 0 
L 5113 2094 
Q 5113 2597 4934 2840 
Q 4756 3084 4391 3084 
Q 3944 3084 3684 2787 
Q 3425 2491 3425 1978 
L 3425 0 
L 2847 0 
L 2847 2094 
Q 2847 2600 2669 2842 
Q 2491 3084 2119 3084 
Q 1678 3084 1418 2786 
Q 1159 2488 1159 1978 
L 1159 0 
L 581 0 
L 581 3500 
L 1159 3500 
L 1159 2956 
Q 1356 3278 1631 3431 
Q 1906 3584 2284 3584 
Q 2666 3584 2933 3390 
Q 3200 3197 3328 2828 
z
" transform="scale(0.015625)"/>
      <path id="DejaVuSans-77" d="M 269 3500 
L 844 3500 
L 1563 769 
L 2278 3500 
L 2956 3500 
L 3675 769 
L 4391 3500 
L 4966 3500 
L 4050 0 
L 3372 0 
L 2619 2869 
L 1863 0 
L 1184 0 
L 269 3500 
z
" transform="scale(0.015625)"/>
      <path id="DejaVuSans-68" d="M 3513 2113 
L 3513 0 
L 2938 0 
L 2938 2094 
Q 2938 2591 2744 2837 
Q 2550 3084 2163 3084 
Q 1697 3084 1428 2787 
Q 1159 2491 1159 1978 
L 1159 0 
L 581 0 
L 581 4863 
L 1159 4863 
L 1159 2956 
Q 1366 3272 1645 3428 
Q 1925 3584 2291 3584 
Q 2894 3584 3203 3211 
Q 3513 2838 3513 2113 
z
" transform="scale(0.015625)"/>
      <path id="DejaVuSans-70" d="M 1159 525 
L 1159 -1331 
L 581 -1331 
L 581 3500 
L 1159 3500 
L 1159 2969 
Q 1341 3281 1617 3432 
Q 1894 3584 2278 3584 
Q 2916 3584 3314 3078 
Q 3713 2572 3713 1747 
Q 3713 922 3314 415 
Q 2916 -91 2278 -91 
Q 1894 -91 1617 61 
Q 1341 213 1159 525 
z
M 3116 1747 
Q 3116 2381 2855 2742 
Q 2594 3103 2138 3103 
Q 1681 3103 1420 2742 
Q 1159 2381 1159 1747 
Q 1159 1113 1420 752 
Q 1681 391 2138 391 
Q 2594 391 2855 752 
Q 3116 1113 3116 1747 
z
" transform="scale(0.015625)"/>
      <path id="DejaVuSans-67" d="M 2906 1791 
Q 2906 2416 2648 2759 
Q 2391 3103 1925 3103 
Q 1463 3103 1205 2759 
Q 947 2416 947 1791 
Q 947 1169 1205 825 
Q 1463 481 1925 481 
Q 2391 481 2648 825 
Q 2906 1169 2906 1791 
z
M 3481 434 
Q 3481 -459 3084 -895 
Q 2688 -1331 1869 -1331 
Q 1566 -1331 1297 -1286 
Q 1028 -1241 775 -1147 
L 775 -588 
Q 1028 -725 1275 -790 
Q 1522 -856 1778 -856 
Q 2344 -856 2625 -561 
Q 2906 -266 2906 331 
L 2906 616 
Q 2728 306 2450 153 
Q 2172 0 1784 0 
Q 1141 0 747 490 
Q 353 981 353 1791 
Q 353 2603 747 3093 
Q 1141 3584 1784 3584 
Q 2172 3584 2450 3431 
Q 2728 3278 2906 2969 
L 2906 3500 
L 3481 3500 
L 3481 434 
z
" transform="scale(0.015625)"/>
      <path id="DejaVuSans-6e" d="M 3513 2113 
L 3513 0 
L 2938 0 
L 2938 2094 
Q 2938 2591 2744 2837 
Q 2550 3084 2163 3084 
Q 1697 3084 1428 2787 
Q 1159 2491 1159 1978 
L 1159 0 
L 581 0 
L 581 3500 
L 1159 3500 
L 1159 2956 
Q 1366 3272 1645 3428 
Q 1925 3584 2291 3584 
Q 2894 3584 3203 3211 
Q 3513 2838 3513 2113 
z
" transform="scale(0.015625)"/>
     </defs>
     <use xlink:href="#DejaVuSans-52"/>
     <use xlink:href="#DejaVuSans-65" x="64.982422"/>
     <use xlink:href="#DejaVuSans-73" x="126.505859"/>
     <use xlink:href="#DejaVuSans-69" x="178.605469"/>
     <use xlink:href="#DejaVuSans-64" x="206.388672"/>
     <use xlink:href="#DejaVuSans-75" x="269.865234"/>
     <use xlink:href="#DejaVuSans-61" x="333.244141"/>
     <use xlink:href="#DejaVuSans-6c" x="394.523438"/>
     <use xlink:href="#DejaVuSans-73" x="422.306641"/>
     <use xlink:href="#DejaVuSans-20" x="474.40625"/>
     <use xlink:href="#DejaVuSans-66" x="506.193359"/>
     <use xlink:href="#DejaVuSans-6f" x="541.398438"/>
     <use xlink:href="#DejaVuSans-72" x="602.580078"/>
     <use xlink:href="#DejaVuSans-20" x="643.693359"/>
     <use xlink:href="#DejaVuSans-6d" x="675.480469"/>
     <use xlink:href="#DejaVuSans-6f" x="772.892578"/>
     <use xlink:href="#DejaVuSans-64" x="834.074219"/>
     <use xlink:href="#DejaVuSans-65" x="897.550781"/>
     <use xlink:href="#DejaVuSans-6c" x="959.074219"/>
     <use xlink:href="#DejaVuSans-20" x="986.857422"/>
     <use xlink:href="#DejaVuSans-77" x="1018.644531"/>
     <use xlink:href="#DejaVuSans-69" x="1100.431641"/>
     <use xlink:href="#DejaVuSans-74" x="1128.214844"/>
     <use xlink:href="#DejaVuSans-68" x="1167.423828"/>
     <use xlink:href="#DejaVuSans-20" x="1230.802734"/>
     <use xlink:href="#DejaVuSans-73" x="1262.589844"/>
     <use xlink:href="#DejaVuSans-69" x="1314.689453"/>
     <use xlink:href="#DejaVuSans-6d" x="1342.472656"/>
     <use xlink:href="#DejaVuSans-70" x="1439.884766"/>
     <use xlink:href="#DejaVuSans-6c" x="1503.361328"/>
     <use xlink:href="#DejaVuSans-65" x="1531.144531"/>
     <use xlink:href="#DejaVuSans-20" x="1592.667969"/>
     <use xlink:href="#DejaVuSans-77" x="1624.455078"/>
     <use xlink:href="#DejaVuSans-65" x="1706.242188"/>
     <use xlink:href="#DejaVuSans-69" x="1767.765625"/>
     <use xlink:href="#DejaVuSans-67" x="1795.548828"/>
     <use xlink:href="#DejaVuSans-68" x="1859.025391"/>
     <use xlink:href="#DejaVuSans-74" x="1922.404297"/>
     <use xlink:href="#DejaVuSans-65" x="1961.613281"/>
     <use xlink:href="#DejaVuSans-64" x="2023.136719"/>
     <use xlink:href="#DejaVuSans-20" x="2086.613281"/>
     <use xlink:href="#DejaVuSans-69" x="2118.400391"/>
     <use xlink:href="#DejaVuSans-6e" x="2146.183594"/>
     <use xlink:href="#DejaVuSans-74" x="2209.5625"/>
     <use xlink:href="#DejaVuSans-65" x="2248.771484"/>
     <use xlink:href="#DejaVuSans-72" x="2310.294922"/>
     <use xlink:href="#DejaVuSans-70" x="2351.408203"/>
     <use xlink:href="#DejaVuSans-6f" x="2414.884766"/>
     <use xlink:href="#DejaVuSans-6c" x="2476.066406"/>
     <use xlink:href="#DejaVuSans-61" x="2503.849609"/>
     <use xlink:href="#DejaVuSans-74" x="2565.128906"/>
     <use xlink:href="#DejaVuSans-69" x="2604.337891"/>
     <use xlink:href="#DejaVuSans-6f" x="2632.121094"/>
     <use xlink:href="#DejaVuSans-6e" x="2693.302734"/>
    </g>
   </g>
  </g>
 </g>
 <defs>
  <clipPath id="pd1e5c07f69">
   <rect x="57.6" y="41.472" width="357.12" height="266.112"/>
  </clipPath>
 </defs>
</svg>
