<?xml version="1.0" encoding="utf-8" standalone="no"?>
<!DOCTYPE svg PUBLIC "-//W3C//DTD SVG 1.1//EN"
  "http://www.w3.org/Graphics/SVG/1.1/DTD/svg11.dtd">
<svg xmlns:xlink="http://www.w3.org/1999/xlink" width="460.8pt" height="345.6pt" viewBox="0 0 460.8 345.6" xmlns="http://www.w3.org/2000/svg" version="1.1">
 <metadata>
  <rdf:RDF xmlns:dc="http://purl.org/dc/elements/1.1/" xmlns:cc="http://creativecommons.org/ns#" xmlns:rdf="http://www.w3.org/1999/02/22-rdf-syntax-ns#">
   <cc:Work>
    <dc:type rdf:resource="http://purl.org/dc/dcmitype/StillImage"/>
    <dc:date>2024-05-03T09:20:26.371234</dc:date>
    <dc:format>image/svg+xml</dc:format>
    <dc:creator>
     <cc:Agent>
      <dc:title>Matplotlib v3.8.4, https://matplotlib.org/</dc:title>
     </cc:Agent>
    </dc:creator>
   </cc:Work>
  </rdf:RDF>
 </metadata>
 <defs>
  <style type="text/css">*{stroke-linejoin: round; stroke-linecap: butt}</style>
 </defs>
 <g id="figure_1">
  <g id="patch_1">
   <path d="M 0 345.6 
L 460.8 345.6 
L 460.8 0 
L 0 0 
z
" style="fill: #ffffff"/>
  </g>
  <g id="axes_1">
   <g id="patch_2">
    <path d="M 57.6 307.584 
L 414.72 307.584 
L 414.72 41.472 
L 57.6 41.472 
z
" style="fill: #ffffff"/>
   </g>
   <g id="PathCollection_1">
    <defs>
     <path id="m3c33928edf" d="M 0 3 
C 0.795609 3 1.55874 2.683901 2.12132 2.12132 
C 2.683901 1.55874 3 0.795609 3 0 
C 3 -0.795609 2.683901 -1.55874 2.12132 -2.12132 
C 1.55874 -2.683901 0.795609 -3 0 -3 
C -0.795609 -3 -1.55874 -2.683901 -2.12132 -2.12132 
C -2.683901 -1.55874 -3 -0.795609 -3 0 
C -3 0.795609 -2.683901 1.55874 -2.12132 2.12132 
C -1.55874 2.683901 -0.795609 3 0 3 
z
" style="stroke: #1f77b4"/>
    </defs>
    <g clip-path="url(#p85628731fc)">
     <use xlink:href="#m3c33928edf" x="143.516723" y="259.303833" style="fill: #1f77b4; stroke: #1f77b4"/>
     <use xlink:href="#m3c33928edf" x="127.098965" y="216.812247" style="fill: #1f77b4; stroke: #1f77b4"/>
     <use xlink:href="#m3c33928edf" x="168.249443" y="214.60903" style="fill: #1f77b4; stroke: #1f77b4"/>
     <use xlink:href="#m3c33928edf" x="135.707646" y="193.916317" style="fill: #1f77b4; stroke: #1f77b4"/>
     <use xlink:href="#m3c33928edf" x="133.906396" y="200.530735" style="fill: #1f77b4; stroke: #1f77b4"/>
     <use xlink:href="#m3c33928edf" x="195.607765" y="195.089877" style="fill: #1f77b4; stroke: #1f77b4"/>
     <use xlink:href="#m3c33928edf" x="181.952147" y="181.278852" style="fill: #1f77b4; stroke: #1f77b4"/>
     <use xlink:href="#m3c33928edf" x="167.154994" y="230.255655" style="fill: #1f77b4; stroke: #1f77b4"/>
     <use xlink:href="#m3c33928edf" x="243.028458" y="75.70747" style="fill: #1f77b4; stroke: #1f77b4"/>
     <use xlink:href="#m3c33928edf" x="154.646337" y="140.804248" style="fill: #1f77b4; stroke: #1f77b4"/>
     <use xlink:href="#m3c33928edf" x="104.640461" y="295.488" style="fill: #1f77b4; stroke: #1f77b4"/>
     <use xlink:href="#m3c33928edf" x="313.814562" y="257.964875" style="fill: #1f77b4; stroke: #1f77b4"/>
     <use xlink:href="#m3c33928edf" x="122.142768" y="176.495175" style="fill: #1f77b4; stroke: #1f77b4"/>
     <use xlink:href="#m3c33928edf" x="120.743117" y="211.114713" style="fill: #1f77b4; stroke: #1f77b4"/>
     <use xlink:href="#m3c33928edf" x="129.979834" y="165.393225" style="fill: #1f77b4; stroke: #1f77b4"/>
     <use xlink:href="#m3c33928edf" x="205.867438" y="209.481043" style="fill: #1f77b4; stroke: #1f77b4"/>
     <use xlink:href="#m3c33928edf" x="117.018387" y="279.192218" style="fill: #1f77b4; stroke: #1f77b4"/>
     <use xlink:href="#m3c33928edf" x="316.884366" y="272.893185" style="fill: #1f77b4; stroke: #1f77b4"/>
     <use xlink:href="#m3c33928edf" x="342.550841" y="197.085592" style="fill: #1f77b4; stroke: #1f77b4"/>
     <use xlink:href="#m3c33928edf" x="206.535243" y="165.981187" style="fill: #1f77b4; stroke: #1f77b4"/>
     <use xlink:href="#m3c33928edf" x="185.583858" y="207.657987" style="fill: #1f77b4; stroke: #1f77b4"/>
     <use xlink:href="#m3c33928edf" x="195.513301" y="154.342725" style="fill: #1f77b4; stroke: #1f77b4"/>
     <use xlink:href="#m3c33928edf" x="189.757796" y="203.489387" style="fill: #1f77b4; stroke: #1f77b4"/>
     <use xlink:href="#m3c33928edf" x="173.729862" y="207.395246" style="fill: #1f77b4; stroke: #1f77b4"/>
     <use xlink:href="#m3c33928edf" x="309.184326" y="143.304538" style="fill: #1f77b4; stroke: #1f77b4"/>
     <use xlink:href="#m3c33928edf" x="148.965272" y="148.350938" style="fill: #1f77b4; stroke: #1f77b4"/>
     <use xlink:href="#m3c33928edf" x="131.199377" y="183.592106" style="fill: #1f77b4; stroke: #1f77b4"/>
     <use xlink:href="#m3c33928edf" x="235.77894" y="184.944916" style="fill: #1f77b4; stroke: #1f77b4"/>
     <use xlink:href="#m3c33928edf" x="133.923422" y="229.545389" style="fill: #1f77b4; stroke: #1f77b4"/>
     <use xlink:href="#m3c33928edf" x="309.066182" y="258.566712" style="fill: #1f77b4; stroke: #1f77b4"/>
     <use xlink:href="#m3c33928edf" x="221.742182" y="204.028685" style="fill: #1f77b4; stroke: #1f77b4"/>
     <use xlink:href="#m3c33928edf" x="189.049058" y="204.855098" style="fill: #1f77b4; stroke: #1f77b4"/>
     <use xlink:href="#m3c33928edf" x="173.426996" y="222.702435" style="fill: #1f77b4; stroke: #1f77b4"/>
     <use xlink:href="#m3c33928edf" x="238.680773" y="89.889015" style="fill: #1f77b4; stroke: #1f77b4"/>
     <use xlink:href="#m3c33928edf" x="139.496688" y="177.905351" style="fill: #1f77b4; stroke: #1f77b4"/>
     <use xlink:href="#m3c33928edf" x="176.282718" y="174.842604" style="fill: #1f77b4; stroke: #1f77b4"/>
     <use xlink:href="#m3c33928edf" x="213.507098" y="144.58212" style="fill: #1f77b4; stroke: #1f77b4"/>
     <use xlink:href="#m3c33928edf" x="137.345872" y="192.968773" style="fill: #1f77b4; stroke: #1f77b4"/>
     <use xlink:href="#m3c33928edf" x="133.316698" y="201.154889" style="fill: #1f77b4; stroke: #1f77b4"/>
     <use xlink:href="#m3c33928edf" x="142.888533" y="213.972079" style="fill: #1f77b4; stroke: #1f77b4"/>
     <use xlink:href="#m3c33928edf" x="229.327156" y="166.770601" style="fill: #1f77b4; stroke: #1f77b4"/>
     <use xlink:href="#m3c33928edf" x="214.378092" y="274.112119" style="fill: #1f77b4; stroke: #1f77b4"/>
     <use xlink:href="#m3c33928edf" x="186.298527" y="196.946212" style="fill: #1f77b4; stroke: #1f77b4"/>
     <use xlink:href="#m3c33928edf" x="179.215577" y="156.506888" style="fill: #1f77b4; stroke: #1f77b4"/>
     <use xlink:href="#m3c33928edf" x="170.917321" y="142.991255" style="fill: #1f77b4; stroke: #1f77b4"/>
     <use xlink:href="#m3c33928edf" x="221.376189" y="116.80335" style="fill: #1f77b4; stroke: #1f77b4"/>
     <use xlink:href="#m3c33928edf" x="214.974914" y="144.414984" style="fill: #1f77b4; stroke: #1f77b4"/>
     <use xlink:href="#m3c33928edf" x="262.723614" y="197.043189" style="fill: #1f77b4; stroke: #1f77b4"/>
     <use xlink:href="#m3c33928edf" x="182.991213" y="104.80796" style="fill: #1f77b4; stroke: #1f77b4"/>
     <use xlink:href="#m3c33928edf" x="116.791861" y="186.457716" style="fill: #1f77b4; stroke: #1f77b4"/>
     <use xlink:href="#m3c33928edf" x="132.157469" y="174.69069" style="fill: #1f77b4; stroke: #1f77b4"/>
     <use xlink:href="#m3c33928edf" x="136.595257" y="209.870947" style="fill: #1f77b4; stroke: #1f77b4"/>
     <use xlink:href="#m3c33928edf" x="129.608159" y="165.827638" style="fill: #1f77b4; stroke: #1f77b4"/>
     <use xlink:href="#m3c33928edf" x="193.503715" y="220.90448" style="fill: #1f77b4; stroke: #1f77b4"/>
     <use xlink:href="#m3c33928edf" x="386.712169" y="235.806632" style="fill: #1f77b4; stroke: #1f77b4"/>
     <use xlink:href="#m3c33928edf" x="129.068583" y="196.503956" style="fill: #1f77b4; stroke: #1f77b4"/>
     <use xlink:href="#m3c33928edf" x="182.674017" y="244.682894" style="fill: #1f77b4; stroke: #1f77b4"/>
     <use xlink:href="#m3c33928edf" x="221.110016" y="210.607168" style="fill: #1f77b4; stroke: #1f77b4"/>
     <use xlink:href="#m3c33928edf" x="266.515529" y="192.776184" style="fill: #1f77b4; stroke: #1f77b4"/>
     <use xlink:href="#m3c33928edf" x="130.836738" y="174.166735" style="fill: #1f77b4; stroke: #1f77b4"/>
     <use xlink:href="#m3c33928edf" x="176.096332" y="194.849723" style="fill: #1f77b4; stroke: #1f77b4"/>
     <use xlink:href="#m3c33928edf" x="193.474256" y="177.069216" style="fill: #1f77b4; stroke: #1f77b4"/>
     <use xlink:href="#m3c33928edf" x="164.556226" y="216.07549" style="fill: #1f77b4; stroke: #1f77b4"/>
     <use xlink:href="#m3c33928edf" x="222.599101" y="169.469822" style="fill: #1f77b4; stroke: #1f77b4"/>
     <use xlink:href="#m3c33928edf" x="123.269634" y="177.035325" style="fill: #1f77b4; stroke: #1f77b4"/>
     <use xlink:href="#m3c33928edf" x="134.418995" y="161.656315" style="fill: #1f77b4; stroke: #1f77b4"/>
     <use xlink:href="#m3c33928edf" x="162.612597" y="184.752064" style="fill: #1f77b4; stroke: #1f77b4"/>
     <use xlink:href="#m3c33928edf" x="263.024188" y="190.625235" style="fill: #1f77b4; stroke: #1f77b4"/>
     <use xlink:href="#m3c33928edf" x="145.140488" y="216.922284" style="fill: #1f77b4; stroke: #1f77b4"/>
     <use xlink:href="#m3c33928edf" x="209.192303" y="129.387947" style="fill: #1f77b4; stroke: #1f77b4"/>
     <use xlink:href="#m3c33928edf" x="214.846106" y="131.322745" style="fill: #1f77b4; stroke: #1f77b4"/>
     <use xlink:href="#m3c33928edf" x="316.980258" y="254.208809" style="fill: #1f77b4; stroke: #1f77b4"/>
     <use xlink:href="#m3c33928edf" x="148.468696" y="168.699413" style="fill: #1f77b4; stroke: #1f77b4"/>
     <use xlink:href="#m3c33928edf" x="185.994301" y="176.811706" style="fill: #1f77b4; stroke: #1f77b4"/>
     <use xlink:href="#m3c33928edf" x="117.113504" y="207.331706" style="fill: #1f77b4; stroke: #1f77b4"/>
     <use xlink:href="#m3c33928edf" x="128.026844" y="210.94163" style="fill: #1f77b4; stroke: #1f77b4"/>
     <use xlink:href="#m3c33928edf" x="167.531821" y="151.773694" style="fill: #1f77b4; stroke: #1f77b4"/>
     <use xlink:href="#m3c33928edf" x="142.220072" y="197.233047" style="fill: #1f77b4; stroke: #1f77b4"/>
     <use xlink:href="#m3c33928edf" x="130.177433" y="165.162272" style="fill: #1f77b4; stroke: #1f77b4"/>
     <use xlink:href="#m3c33928edf" x="152.330273" y="191.544961" style="fill: #1f77b4; stroke: #1f77b4"/>
     <use xlink:href="#m3c33928edf" x="284.986071" y="171.218116" style="fill: #1f77b4; stroke: #1f77b4"/>
     <use xlink:href="#m3c33928edf" x="167.499637" y="184.458909" style="fill: #1f77b4; stroke: #1f77b4"/>
     <use xlink:href="#m3c33928edf" x="300.205507" y="291.556434" style="fill: #1f77b4; stroke: #1f77b4"/>
     <use xlink:href="#m3c33928edf" x="197.661217" y="192.364369" style="fill: #1f77b4; stroke: #1f77b4"/>
     <use xlink:href="#m3c33928edf" x="102.439778" y="205.636069" style="fill: #1f77b4; stroke: #1f77b4"/>
     <use xlink:href="#m3c33928edf" x="148.083806" y="156.911531" style="fill: #1f77b4; stroke: #1f77b4"/>
     <use xlink:href="#m3c33928edf" x="183.530858" y="205.540839" style="fill: #1f77b4; stroke: #1f77b4"/>
     <use xlink:href="#m3c33928edf" x="145.21977" y="193.660402" style="fill: #1f77b4; stroke: #1f77b4"/>
     <use xlink:href="#m3c33928edf" x="287.361126" y="202.792586" style="fill: #1f77b4; stroke: #1f77b4"/>
     <use xlink:href="#m3c33928edf" x="187.868232" y="196.681181" style="fill: #1f77b4; stroke: #1f77b4"/>
     <use xlink:href="#m3c33928edf" x="183.344125" y="204.664738" style="fill: #1f77b4; stroke: #1f77b4"/>
     <use xlink:href="#m3c33928edf" x="150.373527" y="163.238411" style="fill: #1f77b4; stroke: #1f77b4"/>
     <use xlink:href="#m3c33928edf" x="237.526261" y="216.844405" style="fill: #1f77b4; stroke: #1f77b4"/>
     <use xlink:href="#m3c33928edf" x="177.728214" y="172.753508" style="fill: #1f77b4; stroke: #1f77b4"/>
     <use xlink:href="#m3c33928edf" x="160.305401" y="147.982185" style="fill: #1f77b4; stroke: #1f77b4"/>
     <use xlink:href="#m3c33928edf" x="162.638576" y="202.388851" style="fill: #1f77b4; stroke: #1f77b4"/>
     <use xlink:href="#m3c33928edf" x="129.608159" y="165.827638" style="fill: #1f77b4; stroke: #1f77b4"/>
     <use xlink:href="#m3c33928edf" x="203.096842" y="170.755289" style="fill: #1f77b4; stroke: #1f77b4"/>
     <use xlink:href="#m3c33928edf" x="198.080512" y="184.092702" style="fill: #1f77b4; stroke: #1f77b4"/>
     <use xlink:href="#m3c33928edf" x="155.321411" y="256.347181" style="fill: #1f77b4; stroke: #1f77b4"/>
     <use xlink:href="#m3c33928edf" x="233.987615" y="214.800204" style="fill: #1f77b4; stroke: #1f77b4"/>
     <use xlink:href="#m3c33928edf" x="244.351167" y="225.370631" style="fill: #1f77b4; stroke: #1f77b4"/>
     <use xlink:href="#m3c33928edf" x="122.726718" y="207.641379" style="fill: #1f77b4; stroke: #1f77b4"/>
     <use xlink:href="#m3c33928edf" x="298.067794" y="206.268688" style="fill: #1f77b4; stroke: #1f77b4"/>
     <use xlink:href="#m3c33928edf" x="143.705522" y="199.978731" style="fill: #1f77b4; stroke: #1f77b4"/>
     <use xlink:href="#m3c33928edf" x="184.772317" y="183.574014" style="fill: #1f77b4; stroke: #1f77b4"/>
     <use xlink:href="#m3c33928edf" x="152.243555" y="142.103522" style="fill: #1f77b4; stroke: #1f77b4"/>
     <use xlink:href="#m3c33928edf" x="170.832413" y="127.640819" style="fill: #1f77b4; stroke: #1f77b4"/>
     <use xlink:href="#m3c33928edf" x="340.836154" y="268.647319" style="fill: #1f77b4; stroke: #1f77b4"/>
     <use xlink:href="#m3c33928edf" x="160.006782" y="157.072454" style="fill: #1f77b4; stroke: #1f77b4"/>
     <use xlink:href="#m3c33928edf" x="162.679298" y="206.860973" style="fill: #1f77b4; stroke: #1f77b4"/>
     <use xlink:href="#m3c33928edf" x="163.293109" y="145.616299" style="fill: #1f77b4; stroke: #1f77b4"/>
     <use xlink:href="#m3c33928edf" x="129.608159" y="165.827638" style="fill: #1f77b4; stroke: #1f77b4"/>
     <use xlink:href="#m3c33928edf" x="110.964004" y="203.37888" style="fill: #1f77b4; stroke: #1f77b4"/>
     <use xlink:href="#m3c33928edf" x="321.600097" y="220.275605" style="fill: #1f77b4; stroke: #1f77b4"/>
     <use xlink:href="#m3c33928edf" x="128.657283" y="200.558376" style="fill: #1f77b4; stroke: #1f77b4"/>
     <use xlink:href="#m3c33928edf" x="272.904417" y="178.730605" style="fill: #1f77b4; stroke: #1f77b4"/>
     <use xlink:href="#m3c33928edf" x="129.755997" y="165.654846" style="fill: #1f77b4; stroke: #1f77b4"/>
     <use xlink:href="#m3c33928edf" x="227.255772" y="96.932199" style="fill: #1f77b4; stroke: #1f77b4"/>
     <use xlink:href="#m3c33928edf" x="143.655284" y="184.657398" style="fill: #1f77b4; stroke: #1f77b4"/>
     <use xlink:href="#m3c33928edf" x="312.501314" y="258.064874" style="fill: #1f77b4; stroke: #1f77b4"/>
     <use xlink:href="#m3c33928edf" x="190.736888" y="189.211209" style="fill: #1f77b4; stroke: #1f77b4"/>
     <use xlink:href="#m3c33928edf" x="206.30755" y="183.169755" style="fill: #1f77b4; stroke: #1f77b4"/>
     <use xlink:href="#m3c33928edf" x="122.547395" y="178.87545" style="fill: #1f77b4; stroke: #1f77b4"/>
     <use xlink:href="#m3c33928edf" x="253.909196" y="152.465595" style="fill: #1f77b4; stroke: #1f77b4"/>
     <use xlink:href="#m3c33928edf" x="119.899998" y="177.174527" style="fill: #1f77b4; stroke: #1f77b4"/>
     <use xlink:href="#m3c33928edf" x="250.657029" y="133.987526" style="fill: #1f77b4; stroke: #1f77b4"/>
     <use xlink:href="#m3c33928edf" x="197.070642" y="174.620071" style="fill: #1f77b4; stroke: #1f77b4"/>
     <use xlink:href="#m3c33928edf" x="156.345871" y="196.33749" style="fill: #1f77b4; stroke: #1f77b4"/>
     <use xlink:href="#m3c33928edf" x="398.487273" y="216.388982" style="fill: #1f77b4; stroke: #1f77b4"/>
     <use xlink:href="#m3c33928edf" x="139.776583" y="219.729927" style="fill: #1f77b4; stroke: #1f77b4"/>
     <use xlink:href="#m3c33928edf" x="321.562735" y="180.044472" style="fill: #1f77b4; stroke: #1f77b4"/>
     <use xlink:href="#m3c33928edf" x="174.596409" y="218.664066" style="fill: #1f77b4; stroke: #1f77b4"/>
     <use xlink:href="#m3c33928edf" x="300.70221" y="287.374944" style="fill: #1f77b4; stroke: #1f77b4"/>
     <use xlink:href="#m3c33928edf" x="209.544563" y="214.448179" style="fill: #1f77b4; stroke: #1f77b4"/>
     <use xlink:href="#m3c33928edf" x="303.737331" y="212.303703" style="fill: #1f77b4; stroke: #1f77b4"/>
     <use xlink:href="#m3c33928edf" x="109.22304" y="206.326439" style="fill: #1f77b4; stroke: #1f77b4"/>
     <use xlink:href="#m3c33928edf" x="186.259477" y="265.639752" style="fill: #1f77b4; stroke: #1f77b4"/>
     <use xlink:href="#m3c33928edf" x="91.518724" y="216.455564" style="fill: #1f77b4; stroke: #1f77b4"/>
     <use xlink:href="#m3c33928edf" x="153.048236" y="195.991424" style="fill: #1f77b4; stroke: #1f77b4"/>
     <use xlink:href="#m3c33928edf" x="117.833595" y="222.657202" style="fill: #1f77b4; stroke: #1f77b4"/>
     <use xlink:href="#m3c33928edf" x="229.237893" y="241.153555" style="fill: #1f77b4; stroke: #1f77b4"/>
     <use xlink:href="#m3c33928edf" x="236.65862" y="181.974749" style="fill: #1f77b4; stroke: #1f77b4"/>
     <use xlink:href="#m3c33928edf" x="286.730787" y="196.716451" style="fill: #1f77b4; stroke: #1f77b4"/>
     <use xlink:href="#m3c33928edf" x="217.357348" y="230.819843" style="fill: #1f77b4; stroke: #1f77b4"/>
     <use xlink:href="#m3c33928edf" x="105.958735" y="224.210996" style="fill: #1f77b4; stroke: #1f77b4"/>
     <use xlink:href="#m3c33928edf" x="168.10922" y="248.825181" style="fill: #1f77b4; stroke: #1f77b4"/>
     <use xlink:href="#m3c33928edf" x="176.904786" y="210.087074" style="fill: #1f77b4; stroke: #1f77b4"/>
     <use xlink:href="#m3c33928edf" x="181.957652" y="157.367576" style="fill: #1f77b4; stroke: #1f77b4"/>
     <use xlink:href="#m3c33928edf" x="131.393762" y="163.740628" style="fill: #1f77b4; stroke: #1f77b4"/>
     <use xlink:href="#m3c33928edf" x="281.355313" y="196.775232" style="fill: #1f77b4; stroke: #1f77b4"/>
     <use xlink:href="#m3c33928edf" x="230.331531" y="53.568" style="fill: #1f77b4; stroke: #1f77b4"/>
     <use xlink:href="#m3c33928edf" x="152.156902" y="201.654343" style="fill: #1f77b4; stroke: #1f77b4"/>
     <use xlink:href="#m3c33928edf" x="133.365946" y="206.036319" style="fill: #1f77b4; stroke: #1f77b4"/>
     <use xlink:href="#m3c33928edf" x="156.489289" y="258.303082" style="fill: #1f77b4; stroke: #1f77b4"/>
     <use xlink:href="#m3c33928edf" x="130.944928" y="164.876734" style="fill: #1f77b4; stroke: #1f77b4"/>
     <use xlink:href="#m3c33928edf" x="121.008588" y="188.852177" style="fill: #1f77b4; stroke: #1f77b4"/>
     <use xlink:href="#m3c33928edf" x="202.987443" y="217.828548" style="fill: #1f77b4; stroke: #1f77b4"/>
     <use xlink:href="#m3c33928edf" x="134.308226" y="167.583005" style="fill: #1f77b4; stroke: #1f77b4"/>
     <use xlink:href="#m3c33928edf" x="182.152991" y="177.27364" style="fill: #1f77b4; stroke: #1f77b4"/>
     <use xlink:href="#m3c33928edf" x="141.44376" y="180.818357" style="fill: #1f77b4; stroke: #1f77b4"/>
     <use xlink:href="#m3c33928edf" x="224.421544" y="219.508713" style="fill: #1f77b4; stroke: #1f77b4"/>
     <use xlink:href="#m3c33928edf" x="206.047132" y="197.927833" style="fill: #1f77b4; stroke: #1f77b4"/>
     <use xlink:href="#m3c33928edf" x="222.460037" y="197.601318" style="fill: #1f77b4; stroke: #1f77b4"/>
     <use xlink:href="#m3c33928edf" x="165.912032" y="183.994099" style="fill: #1f77b4; stroke: #1f77b4"/>
     <use xlink:href="#m3c33928edf" x="217.220799" y="236.245385" style="fill: #1f77b4; stroke: #1f77b4"/>
     <use xlink:href="#m3c33928edf" x="73.832727" y="234.18746" style="fill: #1f77b4; stroke: #1f77b4"/>
     <use xlink:href="#m3c33928edf" x="216.233313" y="192.00261" style="fill: #1f77b4; stroke: #1f77b4"/>
     <use xlink:href="#m3c33928edf" x="216.811845" y="161.924056" style="fill: #1f77b4; stroke: #1f77b4"/>
     <use xlink:href="#m3c33928edf" x="108.313241" y="216.212791" style="fill: #1f77b4; stroke: #1f77b4"/>
     <use xlink:href="#m3c33928edf" x="132.450458" y="162.584272" style="fill: #1f77b4; stroke: #1f77b4"/>
     <use xlink:href="#m3c33928edf" x="285.374032" y="230.312582" style="fill: #1f77b4; stroke: #1f77b4"/>
     <use xlink:href="#m3c33928edf" x="131.162023" y="177.102916" style="fill: #1f77b4; stroke: #1f77b4"/>
     <use xlink:href="#m3c33928edf" x="343.216804" y="240.284382" style="fill: #1f77b4; stroke: #1f77b4"/>
     <use xlink:href="#m3c33928edf" x="165.844376" y="179.468695" style="fill: #1f77b4; stroke: #1f77b4"/>
     <use xlink:href="#m3c33928edf" x="202.082736" y="220.638761" style="fill: #1f77b4; stroke: #1f77b4"/>
     <use xlink:href="#m3c33928edf" x="133.225573" y="185.169938" style="fill: #1f77b4; stroke: #1f77b4"/>
     <use xlink:href="#m3c33928edf" x="120.605608" y="215.810285" style="fill: #1f77b4; stroke: #1f77b4"/>
     <use xlink:href="#m3c33928edf" x="116.733904" y="220.452078" style="fill: #1f77b4; stroke: #1f77b4"/>
     <use xlink:href="#m3c33928edf" x="173.054788" y="185.756735" style="fill: #1f77b4; stroke: #1f77b4"/>
     <use xlink:href="#m3c33928edf" x="180.169208" y="215.848393" style="fill: #1f77b4; stroke: #1f77b4"/>
     <use xlink:href="#m3c33928edf" x="266.343409" y="164.640597" style="fill: #1f77b4; stroke: #1f77b4"/>
     <use xlink:href="#m3c33928edf" x="233.034794" y="251.815768" style="fill: #1f77b4; stroke: #1f77b4"/>
     <use xlink:href="#m3c33928edf" x="138.761665" y="179.793717" style="fill: #1f77b4; stroke: #1f77b4"/>
     <use xlink:href="#m3c33928edf" x="245.982506" y="235.80761" style="fill: #1f77b4; stroke: #1f77b4"/>
     <use xlink:href="#m3c33928edf" x="225.610386" y="222.275631" style="fill: #1f77b4; stroke: #1f77b4"/>
     <use xlink:href="#m3c33928edf" x="192.322556" y="158.775904" style="fill: #1f77b4; stroke: #1f77b4"/>
     <use xlink:href="#m3c33928edf" x="208.48072" y="185.532414" style="fill: #1f77b4; stroke: #1f77b4"/>
    </g>
   </g>
   <g id="matplotlib.axis_1">
    <g id="xtick_1">
     <g id="line2d_1">
      <defs>
       <path id="m6f3db469e2" d="M 0 0 
L 0 3.5 
" style="stroke: #000000; stroke-width: 0.8"/>
      </defs>
      <g>
       <use xlink:href="#m6f3db469e2" x="104.944254" y="307.584" style="stroke: #000000; stroke-width: 0.8"/>
      </g>
     </g>
     <g id="text_1">
      <!-- 0 -->
      <g transform="translate(101.763004 322.182437) scale(0.1 -0.1)">
       <defs>
        <path id="DejaVuSans-30" d="M 2034 4250 
Q 1547 4250 1301 3770 
Q 1056 3291 1056 2328 
Q 1056 1369 1301 889 
Q 1547 409 2034 409 
Q 2525 409 2770 889 
Q 3016 1369 3016 2328 
Q 3016 3291 2770 3770 
Q 2525 4250 2034 4250 
z
M 2034 4750 
Q 2819 4750 3233 4129 
Q 3647 3509 3647 2328 
Q 3647 1150 3233 529 
Q 2819 -91 2034 -91 
Q 1250 -91 836 529 
Q 422 1150 422 2328 
Q 422 3509 836 4129 
Q 1250 4750 2034 4750 
z
" transform="scale(0.015625)"/>
       </defs>
       <use xlink:href="#DejaVuSans-30"/>
      </g>
     </g>
    </g>
    <g id="xtick_2">
     <g id="line2d_2">
      <g>
       <use xlink:href="#m6f3db469e2" x="169.695992" y="307.584" style="stroke: #000000; stroke-width: 0.8"/>
      </g>
     </g>
     <g id="text_2">
      <!-- 500 -->
      <g transform="translate(160.152242 322.182437) scale(0.1 -0.1)">
       <defs>
        <path id="DejaVuSans-35" d="M 691 4666 
L 3169 4666 
L 3169 4134 
L 1269 4134 
L 1269 2991 
Q 1406 3038 1543 3061 
Q 1681 3084 1819 3084 
Q 2600 3084 3056 2656 
Q 3513 2228 3513 1497 
Q 3513 744 3044 326 
Q 2575 -91 1722 -91 
Q 1428 -91 1123 -41 
Q 819 9 494 109 
L 494 744 
Q 775 591 1075 516 
Q 1375 441 1709 441 
Q 2250 441 2565 725 
Q 2881 1009 2881 1497 
Q 2881 1984 2565 2268 
Q 2250 2553 1709 2553 
Q 1456 2553 1204 2497 
Q 953 2441 691 2322 
L 691 4666 
z
" transform="scale(0.015625)"/>
       </defs>
       <use xlink:href="#DejaVuSans-35"/>
       <use xlink:href="#DejaVuSans-30" x="63.623047"/>
       <use xlink:href="#DejaVuSans-30" x="127.246094"/>
      </g>
     </g>
    </g>
    <g id="xtick_3">
     <g id="line2d_3">
      <g>
       <use xlink:href="#m6f3db469e2" x="234.447729" y="307.584" style="stroke: #000000; stroke-width: 0.8"/>
      </g>
     </g>
     <g id="text_3">
      <!-- 1000 -->
      <g transform="translate(221.722729 322.182437) scale(0.1 -0.1)">
       <defs>
        <path id="DejaVuSans-31" d="M 794 531 
L 1825 531 
L 1825 4091 
L 703 3866 
L 703 4441 
L 1819 4666 
L 2450 4666 
L 2450 531 
L 3481 531 
L 3481 0 
L 794 0 
L 794 531 
z
" transform="scale(0.015625)"/>
       </defs>
       <use xlink:href="#DejaVuSans-31"/>
       <use xlink:href="#DejaVuSans-30" x="63.623047"/>
       <use xlink:href="#DejaVuSans-30" x="127.246094"/>
       <use xlink:href="#DejaVuSans-30" x="190.869141"/>
      </g>
     </g>
    </g>
    <g id="xtick_4">
     <g id="line2d_4">
      <g>
       <use xlink:href="#m6f3db469e2" x="299.199466" y="307.584" style="stroke: #000000; stroke-width: 0.8"/>
      </g>
     </g>
     <g id="text_4">
      <!-- 1500 -->
      <g transform="translate(286.474466 322.182437) scale(0.1 -0.1)">
       <use xlink:href="#DejaVuSans-31"/>
       <use xlink:href="#DejaVuSans-35" x="63.623047"/>
       <use xlink:href="#DejaVuSans-30" x="127.246094"/>
       <use xlink:href="#DejaVuSans-30" x="190.869141"/>
      </g>
     </g>
    </g>
    <g id="xtick_5">
     <g id="line2d_5">
      <g>
       <use xlink:href="#m6f3db469e2" x="363.951204" y="307.584" style="stroke: #000000; stroke-width: 0.8"/>
      </g>
     </g>
     <g id="text_5">
      <!-- 2000 -->
      <g transform="translate(351.226204 322.182437) scale(0.1 -0.1)">
       <defs>
        <path id="DejaVuSans-32" d="M 1228 531 
L 3431 531 
L 3431 0 
L 469 0 
L 469 531 
Q 828 903 1448 1529 
Q 2069 2156 2228 2338 
Q 2531 2678 2651 2914 
Q 2772 3150 2772 3378 
Q 2772 3750 2511 3984 
Q 2250 4219 1831 4219 
Q 1534 4219 1204 4116 
Q 875 4013 500 3803 
L 500 4441 
Q 881 4594 1212 4672 
Q 1544 4750 1819 4750 
Q 2544 4750 2975 4387 
Q 3406 4025 3406 3419 
Q 3406 3131 3298 2873 
Q 3191 2616 2906 2266 
Q 2828 2175 2409 1742 
Q 1991 1309 1228 531 
z
" transform="scale(0.015625)"/>
       </defs>
       <use xlink:href="#DejaVuSans-32"/>
       <use xlink:href="#DejaVuSans-30" x="63.623047"/>
       <use xlink:href="#DejaVuSans-30" x="127.246094"/>
       <use xlink:href="#DejaVuSans-30" x="190.869141"/>
      </g>
     </g>
    </g>
    <g id="text_6">
     <!-- Predicted values -->
     <g transform="translate(194.838125 335.860562) scale(0.1 -0.1)">
      <defs>
       <path id="DejaVuSans-50" d="M 1259 4147 
L 1259 2394 
L 2053 2394 
Q 2494 2394 2734 2622 
Q 2975 2850 2975 3272 
Q 2975 3691 2734 3919 
Q 2494 4147 2053 4147 
L 1259 4147 
z
M 628 4666 
L 2053 4666 
Q 2838 4666 3239 4311 
Q 3641 3956 3641 3272 
Q 3641 2581 3239 2228 
Q 2838 1875 2053 1875 
L 1259 1875 
L 1259 0 
L 628 0 
L 628 4666 
z
" transform="scale(0.015625)"/>
       <path id="DejaVuSans-72" d="M 2631 2963 
Q 2534 3019 2420 3045 
Q 2306 3072 2169 3072 
Q 1681 3072 1420 2755 
Q 1159 2438 1159 1844 
L 1159 0 
L 581 0 
L 581 3500 
L 1159 3500 
L 1159 2956 
Q 1341 3275 1631 3429 
Q 1922 3584 2338 3584 
Q 2397 3584 2469 3576 
Q 2541 3569 2628 3553 
L 2631 2963 
z
" transform="scale(0.015625)"/>
       <path id="DejaVuSans-65" d="M 3597 1894 
L 3597 1613 
L 953 1613 
Q 991 1019 1311 708 
Q 1631 397 2203 397 
Q 2534 397 2845 478 
Q 3156 559 3463 722 
L 3463 178 
Q 3153 47 2828 -22 
Q 2503 -91 2169 -91 
Q 1331 -91 842 396 
Q 353 884 353 1716 
Q 353 2575 817 3079 
Q 1281 3584 2069 3584 
Q 2775 3584 3186 3129 
Q 3597 2675 3597 1894 
z
M 3022 2063 
Q 3016 2534 2758 2815 
Q 2500 3097 2075 3097 
Q 1594 3097 1305 2825 
Q 1016 2553 972 2059 
L 3022 2063 
z
" transform="scale(0.015625)"/>
       <path id="DejaVuSans-64" d="M 2906 2969 
L 2906 4863 
L 3481 4863 
L 3481 0 
L 2906 0 
L 2906 525 
Q 2725 213 2448 61 
Q 2172 -91 1784 -91 
Q 1150 -91 751 415 
Q 353 922 353 1747 
Q 353 2572 751 3078 
Q 1150 3584 1784 3584 
Q 2172 3584 2448 3432 
Q 2725 3281 2906 2969 
z
M 947 1747 
Q 947 1113 1208 752 
Q 1469 391 1925 391 
Q 2381 391 2643 752 
Q 2906 1113 2906 1747 
Q 2906 2381 2643 2742 
Q 2381 3103 1925 3103 
Q 1469 3103 1208 2742 
Q 947 2381 947 1747 
z
" transform="scale(0.015625)"/>
       <path id="DejaVuSans-69" d="M 603 3500 
L 1178 3500 
L 1178 0 
L 603 0 
L 603 3500 
z
M 603 4863 
L 1178 4863 
L 1178 4134 
L 603 4134 
L 603 4863 
z
" transform="scale(0.015625)"/>
       <path id="DejaVuSans-63" d="M 3122 3366 
L 3122 2828 
Q 2878 2963 2633 3030 
Q 2388 3097 2138 3097 
Q 1578 3097 1268 2742 
Q 959 2388 959 1747 
Q 959 1106 1268 751 
Q 1578 397 2138 397 
Q 2388 397 2633 464 
Q 2878 531 3122 666 
L 3122 134 
Q 2881 22 2623 -34 
Q 2366 -91 2075 -91 
Q 1284 -91 818 406 
Q 353 903 353 1747 
Q 353 2603 823 3093 
Q 1294 3584 2113 3584 
Q 2378 3584 2631 3529 
Q 2884 3475 3122 3366 
z
" transform="scale(0.015625)"/>
       <path id="DejaVuSans-74" d="M 1172 4494 
L 1172 3500 
L 2356 3500 
L 2356 3053 
L 1172 3053 
L 1172 1153 
Q 1172 725 1289 603 
Q 1406 481 1766 481 
L 2356 481 
L 2356 0 
L 1766 0 
Q 1100 0 847 248 
Q 594 497 594 1153 
L 594 3053 
L 172 3053 
L 172 3500 
L 594 3500 
L 594 4494 
L 1172 4494 
z
" transform="scale(0.015625)"/>
       <path id="DejaVuSans-20" transform="scale(0.015625)"/>
       <path id="DejaVuSans-76" d="M 191 3500 
L 800 3500 
L 1894 563 
L 2988 3500 
L 3597 3500 
L 2284 0 
L 1503 0 
L 191 3500 
z
" transform="scale(0.015625)"/>
       <path id="DejaVuSans-61" d="M 2194 1759 
Q 1497 1759 1228 1600 
Q 959 1441 959 1056 
Q 959 750 1161 570 
Q 1363 391 1709 391 
Q 2188 391 2477 730 
Q 2766 1069 2766 1631 
L 2766 1759 
L 2194 1759 
z
M 3341 1997 
L 3341 0 
L 2766 0 
L 2766 531 
Q 2569 213 2275 61 
Q 1981 -91 1556 -91 
Q 1019 -91 701 211 
Q 384 513 384 1019 
Q 384 1609 779 1909 
Q 1175 2209 1959 2209 
L 2766 2209 
L 2766 2266 
Q 2766 2663 2505 2880 
Q 2244 3097 1772 3097 
Q 1472 3097 1187 3025 
Q 903 2953 641 2809 
L 641 3341 
Q 956 3463 1253 3523 
Q 1550 3584 1831 3584 
Q 2591 3584 2966 3190 
Q 3341 2797 3341 1997 
z
" transform="scale(0.015625)"/>
       <path id="DejaVuSans-6c" d="M 603 4863 
L 1178 4863 
L 1178 0 
L 603 0 
L 603 4863 
z
" transform="scale(0.015625)"/>
       <path id="DejaVuSans-75" d="M 544 1381 
L 544 3500 
L 1119 3500 
L 1119 1403 
Q 1119 906 1312 657 
Q 1506 409 1894 409 
Q 2359 409 2629 706 
Q 2900 1003 2900 1516 
L 2900 3500 
L 3475 3500 
L 3475 0 
L 2900 0 
L 2900 538 
Q 2691 219 2414 64 
Q 2138 -91 1772 -91 
Q 1169 -91 856 284 
Q 544 659 544 1381 
z
M 1991 3584 
L 1991 3584 
z
" transform="scale(0.015625)"/>
       <path id="DejaVuSans-73" d="M 2834 3397 
L 2834 2853 
Q 2591 2978 2328 3040 
Q 2066 3103 1784 3103 
Q 1356 3103 1142 2972 
Q 928 2841 928 2578 
Q 928 2378 1081 2264 
Q 1234 2150 1697 2047 
L 1894 2003 
Q 2506 1872 2764 1633 
Q 3022 1394 3022 966 
Q 3022 478 2636 193 
Q 2250 -91 1575 -91 
Q 1294 -91 989 -36 
Q 684 19 347 128 
L 347 722 
Q 666 556 975 473 
Q 1284 391 1588 391 
Q 1994 391 2212 530 
Q 2431 669 2431 922 
Q 2431 1156 2273 1281 
Q 2116 1406 1581 1522 
L 1381 1569 
Q 847 1681 609 1914 
Q 372 2147 372 2553 
Q 372 3047 722 3315 
Q 1072 3584 1716 3584 
Q 2034 3584 2315 3537 
Q 2597 3491 2834 3397 
z
" transform="scale(0.015625)"/>
      </defs>
      <use xlink:href="#DejaVuSans-50"/>
      <use xlink:href="#DejaVuSans-72" x="58.552734"/>
      <use xlink:href="#DejaVuSans-65" x="97.416016"/>
      <use xlink:href="#DejaVuSans-64" x="158.939453"/>
      <use xlink:href="#DejaVuSans-69" x="222.416016"/>
      <use xlink:href="#DejaVuSans-63" x="250.199219"/>
      <use xlink:href="#DejaVuSans-74" x="305.179688"/>
      <use xlink:href="#DejaVuSans-65" x="344.388672"/>
      <use xlink:href="#DejaVuSans-64" x="405.912109"/>
      <use xlink:href="#DejaVuSans-20" x="469.388672"/>
      <use xlink:href="#DejaVuSans-76" x="501.175781"/>
      <use xlink:href="#DejaVuSans-61" x="560.355469"/>
      <use xlink:href="#DejaVuSans-6c" x="621.634766"/>
      <use xlink:href="#DejaVuSans-75" x="649.417969"/>
      <use xlink:href="#DejaVuSans-65" x="712.796875"/>
      <use xlink:href="#DejaVuSans-73" x="774.320312"/>
     </g>
    </g>
   </g>
   <g id="matplotlib.axis_2">
    <g id="ytick_1">
     <g id="line2d_6">
      <defs>
       <path id="m8da8dd49c6" d="M 0 0 
L -3.5 0 
" style="stroke: #000000; stroke-width: 0.8"/>
      </defs>
      <g>
       <use xlink:href="#m8da8dd49c6" x="57.6" y="285.472905" style="stroke: #000000; stroke-width: 0.8"/>
      </g>
     </g>
     <g id="text_7">
      <!-- −600 -->
      <g transform="translate(23.132812 289.272124) scale(0.1 -0.1)">
       <defs>
        <path id="DejaVuSans-2212" d="M 678 2272 
L 4684 2272 
L 4684 1741 
L 678 1741 
L 678 2272 
z
" transform="scale(0.015625)"/>
        <path id="DejaVuSans-36" d="M 2113 2584 
Q 1688 2584 1439 2293 
Q 1191 2003 1191 1497 
Q 1191 994 1439 701 
Q 1688 409 2113 409 
Q 2538 409 2786 701 
Q 3034 994 3034 1497 
Q 3034 2003 2786 2293 
Q 2538 2584 2113 2584 
z
M 3366 4563 
L 3366 3988 
Q 3128 4100 2886 4159 
Q 2644 4219 2406 4219 
Q 1781 4219 1451 3797 
Q 1122 3375 1075 2522 
Q 1259 2794 1537 2939 
Q 1816 3084 2150 3084 
Q 2853 3084 3261 2657 
Q 3669 2231 3669 1497 
Q 3669 778 3244 343 
Q 2819 -91 2113 -91 
Q 1303 -91 875 529 
Q 447 1150 447 2328 
Q 447 3434 972 4092 
Q 1497 4750 2381 4750 
Q 2619 4750 2861 4703 
Q 3103 4656 3366 4563 
z
" transform="scale(0.015625)"/>
       </defs>
       <use xlink:href="#DejaVuSans-2212"/>
       <use xlink:href="#DejaVuSans-36" x="83.789062"/>
       <use xlink:href="#DejaVuSans-30" x="147.412109"/>
       <use xlink:href="#DejaVuSans-30" x="211.035156"/>
      </g>
     </g>
    </g>
    <g id="ytick_2">
     <g id="line2d_7">
      <g>
       <use xlink:href="#m8da8dd49c6" x="57.6" y="255.200198" style="stroke: #000000; stroke-width: 0.8"/>
      </g>
     </g>
     <g id="text_8">
      <!-- −400 -->
      <g transform="translate(23.132812 258.999417) scale(0.1 -0.1)">
       <defs>
        <path id="DejaVuSans-34" d="M 2419 4116 
L 825 1625 
L 2419 1625 
L 2419 4116 
z
M 2253 4666 
L 3047 4666 
L 3047 1625 
L 3713 1625 
L 3713 1100 
L 3047 1100 
L 3047 0 
L 2419 0 
L 2419 1100 
L 313 1100 
L 313 1709 
L 2253 4666 
z
" transform="scale(0.015625)"/>
       </defs>
       <use xlink:href="#DejaVuSans-2212"/>
       <use xlink:href="#DejaVuSans-34" x="83.789062"/>
       <use xlink:href="#DejaVuSans-30" x="147.412109"/>
       <use xlink:href="#DejaVuSans-30" x="211.035156"/>
      </g>
     </g>
    </g>
    <g id="ytick_3">
     <g id="line2d_8">
      <g>
       <use xlink:href="#m8da8dd49c6" x="57.6" y="224.927492" style="stroke: #000000; stroke-width: 0.8"/>
      </g>
     </g>
     <g id="text_9">
      <!-- −200 -->
      <g transform="translate(23.132812 228.726711) scale(0.1 -0.1)">
       <use xlink:href="#DejaVuSans-2212"/>
       <use xlink:href="#DejaVuSans-32" x="83.789062"/>
       <use xlink:href="#DejaVuSans-30" x="147.412109"/>
       <use xlink:href="#DejaVuSans-30" x="211.035156"/>
      </g>
     </g>
    </g>
    <g id="ytick_4">
     <g id="line2d_9">
      <g>
       <use xlink:href="#m8da8dd49c6" x="57.6" y="194.654786" style="stroke: #000000; stroke-width: 0.8"/>
      </g>
     </g>
     <g id="text_10">
      <!-- 0 -->
      <g transform="translate(44.2375 198.454005) scale(0.1 -0.1)">
       <use xlink:href="#DejaVuSans-30"/>
      </g>
     </g>
    </g>
    <g id="ytick_5">
     <g id="line2d_10">
      <g>
       <use xlink:href="#m8da8dd49c6" x="57.6" y="164.38208" style="stroke: #000000; stroke-width: 0.8"/>
      </g>
     </g>
     <g id="text_11">
      <!-- 200 -->
      <g transform="translate(31.5125 168.181298) scale(0.1 -0.1)">
       <use xlink:href="#DejaVuSans-32"/>
       <use xlink:href="#DejaVuSans-30" x="63.623047"/>
       <use xlink:href="#DejaVuSans-30" x="127.246094"/>
      </g>
     </g>
    </g>
    <g id="ytick_6">
     <g id="line2d_11">
      <g>
       <use xlink:href="#m8da8dd49c6" x="57.6" y="134.109373" style="stroke: #000000; stroke-width: 0.8"/>
      </g>
     </g>
     <g id="text_12">
      <!-- 400 -->
      <g transform="translate(31.5125 137.908592) scale(0.1 -0.1)">
       <use xlink:href="#DejaVuSans-34"/>
       <use xlink:href="#DejaVuSans-30" x="63.623047"/>
       <use xlink:href="#DejaVuSans-30" x="127.246094"/>
      </g>
     </g>
    </g>
    <g id="ytick_7">
     <g id="line2d_12">
      <g>
       <use xlink:href="#m8da8dd49c6" x="57.6" y="103.836667" style="stroke: #000000; stroke-width: 0.8"/>
      </g>
     </g>
     <g id="text_13">
      <!-- 600 -->
      <g transform="translate(31.5125 107.635886) scale(0.1 -0.1)">
       <use xlink:href="#DejaVuSans-36"/>
       <use xlink:href="#DejaVuSans-30" x="63.623047"/>
       <use xlink:href="#DejaVuSans-30" x="127.246094"/>
      </g>
     </g>
    </g>
    <g id="ytick_8">
     <g id="line2d_13">
      <g>
       <use xlink:href="#m8da8dd49c6" x="57.6" y="73.563961" style="stroke: #000000; stroke-width: 0.8"/>
      </g>
     </g>
     <g id="text_14">
      <!-- 800 -->
      <g transform="translate(31.5125 77.363179) scale(0.1 -0.1)">
       <defs>
        <path id="DejaVuSans-38" d="M 2034 2216 
Q 1584 2216 1326 1975 
Q 1069 1734 1069 1313 
Q 1069 891 1326 650 
Q 1584 409 2034 409 
Q 2484 409 2743 651 
Q 3003 894 3003 1313 
Q 3003 1734 2745 1975 
Q 2488 2216 2034 2216 
z
M 1403 2484 
Q 997 2584 770 2862 
Q 544 3141 544 3541 
Q 544 4100 942 4425 
Q 1341 4750 2034 4750 
Q 2731 4750 3128 4425 
Q 3525 4100 3525 3541 
Q 3525 3141 3298 2862 
Q 3072 2584 2669 2484 
Q 3125 2378 3379 2068 
Q 3634 1759 3634 1313 
Q 3634 634 3220 271 
Q 2806 -91 2034 -91 
Q 1263 -91 848 271 
Q 434 634 434 1313 
Q 434 1759 690 2068 
Q 947 2378 1403 2484 
z
M 1172 3481 
Q 1172 3119 1398 2916 
Q 1625 2713 2034 2713 
Q 2441 2713 2670 2916 
Q 2900 3119 2900 3481 
Q 2900 3844 2670 4047 
Q 2441 4250 2034 4250 
Q 1625 4250 1398 4047 
Q 1172 3844 1172 3481 
z
" transform="scale(0.015625)"/>
       </defs>
       <use xlink:href="#DejaVuSans-38"/>
       <use xlink:href="#DejaVuSans-30" x="63.623047"/>
       <use xlink:href="#DejaVuSans-30" x="127.246094"/>
      </g>
     </g>
    </g>
    <g id="ytick_9">
     <g id="line2d_14">
      <g>
       <use xlink:href="#m8da8dd49c6" x="57.6" y="43.291254" style="stroke: #000000; stroke-width: 0.8"/>
      </g>
     </g>
     <g id="text_15">
      <!-- 1000 -->
      <g transform="translate(25.15 47.090473) scale(0.1 -0.1)">
       <use xlink:href="#DejaVuSans-31"/>
       <use xlink:href="#DejaVuSans-30" x="63.623047"/>
       <use xlink:href="#DejaVuSans-30" x="127.246094"/>
       <use xlink:href="#DejaVuSans-30" x="190.869141"/>
      </g>
     </g>
    </g>
    <g id="text_16">
     <!-- Residuals -->
     <g transform="translate(17.053125 198.248312) rotate(-90) scale(0.1 -0.1)">
      <defs>
       <path id="DejaVuSans-52" d="M 2841 2188 
Q 3044 2119 3236 1894 
Q 3428 1669 3622 1275 
L 4263 0 
L 3584 0 
L 2988 1197 
Q 2756 1666 2539 1819 
Q 2322 1972 1947 1972 
L 1259 1972 
L 1259 0 
L 628 0 
L 628 4666 
L 2053 4666 
Q 2853 4666 3247 4331 
Q 3641 3997 3641 3322 
Q 3641 2881 3436 2590 
Q 3231 2300 2841 2188 
z
M 1259 4147 
L 1259 2491 
L 2053 2491 
Q 2509 2491 2742 2702 
Q 2975 2913 2975 3322 
Q 2975 3731 2742 3939 
Q 2509 4147 2053 4147 
L 1259 4147 
z
" transform="scale(0.015625)"/>
      </defs>
      <use xlink:href="#DejaVuSans-52"/>
      <use xlink:href="#DejaVuSans-65" x="64.982422"/>
      <use xlink:href="#DejaVuSans-73" x="126.505859"/>
      <use xlink:href="#DejaVuSans-69" x="178.605469"/>
      <use xlink:href="#DejaVuSans-64" x="206.388672"/>
      <use xlink:href="#DejaVuSans-75" x="269.865234"/>
      <use xlink:href="#DejaVuSans-61" x="333.244141"/>
      <use xlink:href="#DejaVuSans-6c" x="394.523438"/>
      <use xlink:href="#DejaVuSans-73" x="422.306641"/>
     </g>
    </g>
   </g>
   <g id="line2d_15">
    <path d="M 57.6 194.654786 
L 414.72 194.654786 
" clip-path="url(#p85628731fc)" style="fill: none; stroke-dasharray: 5.55,2.4; stroke-dashoffset: 0; stroke: #ff0000; stroke-width: 1.5"/>
   </g>
   <g id="patch_3">
    <path d="M 57.6 307.584 
L 57.6 41.472 
" style="fill: none; stroke: #000000; stroke-width: 0.8; stroke-linejoin: miter; stroke-linecap: square"/>
   </g>
   <g id="patch_4">
    <path d="M 414.72 307.584 
L 414.72 41.472 
" style="fill: none; stroke: #000000; stroke-width: 0.8; stroke-linejoin: miter; stroke-linecap: square"/>
   </g>
   <g id="patch_5">
    <path d="M 57.6 307.584 
L 414.72 307.584 
" style="fill: none; stroke: #000000; stroke-width: 0.8; stroke-linejoin: miter; stroke-linecap: square"/>
   </g>
   <g id="patch_6">
    <path d="M 57.6 41.472 
L 414.72 41.472 
" style="fill: none; stroke: #000000; stroke-width: 0.8; stroke-linejoin: miter; stroke-linecap: square"/>
   </g>
   <g id="text_17">
    <!-- Residuals for model without interpolation -->
    <g transform="translate(112.283438 35.472) scale(0.12 -0.12)">
     <defs>
      <path id="DejaVuSans-66" d="M 2375 4863 
L 2375 4384 
L 1825 4384 
Q 1516 4384 1395 4259 
Q 1275 4134 1275 3809 
L 1275 3500 
L 2222 3500 
L 2222 3053 
L 1275 3053 
L 1275 0 
L 697 0 
L 697 3053 
L 147 3053 
L 147 3500 
L 697 3500 
L 697 3744 
Q 697 4328 969 4595 
Q 1241 4863 1831 4863 
L 2375 4863 
z
" transform="scale(0.015625)"/>
      <path id="DejaVuSans-6f" d="M 1959 3097 
Q 1497 3097 1228 2736 
Q 959 2375 959 1747 
Q 959 1119 1226 758 
Q 1494 397 1959 397 
Q 2419 397 2687 759 
Q 2956 1122 2956 1747 
Q 2956 2369 2687 2733 
Q 2419 3097 1959 3097 
z
M 1959 3584 
Q 2709 3584 3137 3096 
Q 3566 2609 3566 1747 
Q 3566 888 3137 398 
Q 2709 -91 1959 -91 
Q 1206 -91 779 398 
Q 353 888 353 1747 
Q 353 2609 779 3096 
Q 1206 3584 1959 3584 
z
" transform="scale(0.015625)"/>
      <path id="DejaVuSans-6d" d="M 3328 2828 
Q 3544 3216 3844 3400 
Q 4144 3584 4550 3584 
Q 5097 3584 5394 3201 
Q 5691 2819 5691 2113 
L 5691 0 
L 5113 0 
L 5113 2094 
Q 5113 2597 4934 2840 
Q 4756 3084 4391 3084 
Q 3944 3084 3684 2787 
Q 3425 2491 3425 1978 
L 3425 0 
L 2847 0 
L 2847 2094 
Q 2847 2600 2669 2842 
Q 2491 3084 2119 3084 
Q 1678 3084 1418 2786 
Q 1159 2488 1159 1978 
L 1159 0 
L 581 0 
L 581 3500 
L 1159 3500 
L 1159 2956 
Q 1356 3278 1631 3431 
Q 1906 3584 2284 3584 
Q 2666 3584 2933 3390 
Q 3200 3197 3328 2828 
z
" transform="scale(0.015625)"/>
      <path id="DejaVuSans-77" d="M 269 3500 
L 844 3500 
L 1563 769 
L 2278 3500 
L 2956 3500 
L 3675 769 
L 4391 3500 
L 4966 3500 
L 4050 0 
L 3372 0 
L 2619 2869 
L 1863 0 
L 1184 0 
L 269 3500 
z
" transform="scale(0.015625)"/>
      <path id="DejaVuSans-68" d="M 3513 2113 
L 3513 0 
L 2938 0 
L 2938 2094 
Q 2938 2591 2744 2837 
Q 2550 3084 2163 3084 
Q 1697 3084 1428 2787 
Q 1159 2491 1159 1978 
L 1159 0 
L 581 0 
L 581 4863 
L 1159 4863 
L 1159 2956 
Q 1366 3272 1645 3428 
Q 1925 3584 2291 3584 
Q 2894 3584 3203 3211 
Q 3513 2838 3513 2113 
z
" transform="scale(0.015625)"/>
      <path id="DejaVuSans-6e" d="M 3513 2113 
L 3513 0 
L 2938 0 
L 2938 2094 
Q 2938 2591 2744 2837 
Q 2550 3084 2163 3084 
Q 1697 3084 1428 2787 
Q 1159 2491 1159 1978 
L 1159 0 
L 581 0 
L 581 3500 
L 1159 3500 
L 1159 2956 
Q 1366 3272 1645 3428 
Q 1925 3584 2291 3584 
Q 2894 3584 3203 3211 
Q 3513 2838 3513 2113 
z
" transform="scale(0.015625)"/>
      <path id="DejaVuSans-70" d="M 1159 525 
L 1159 -1331 
L 581 -1331 
L 581 3500 
L 1159 3500 
L 1159 2969 
Q 1341 3281 1617 3432 
Q 1894 3584 2278 3584 
Q 2916 3584 3314 3078 
Q 3713 2572 3713 1747 
Q 3713 922 3314 415 
Q 2916 -91 2278 -91 
Q 1894 -91 1617 61 
Q 1341 213 1159 525 
z
M 3116 1747 
Q 3116 2381 2855 2742 
Q 2594 3103 2138 3103 
Q 1681 3103 1420 2742 
Q 1159 2381 1159 1747 
Q 1159 1113 1420 752 
Q 1681 391 2138 391 
Q 2594 391 2855 752 
Q 3116 1113 3116 1747 
z
" transform="scale(0.015625)"/>
     </defs>
     <use xlink:href="#DejaVuSans-52"/>
     <use xlink:href="#DejaVuSans-65" x="64.982422"/>
     <use xlink:href="#DejaVuSans-73" x="126.505859"/>
     <use xlink:href="#DejaVuSans-69" x="178.605469"/>
     <use xlink:href="#DejaVuSans-64" x="206.388672"/>
     <use xlink:href="#DejaVuSans-75" x="269.865234"/>
     <use xlink:href="#DejaVuSans-61" x="333.244141"/>
     <use xlink:href="#DejaVuSans-6c" x="394.523438"/>
     <use xlink:href="#DejaVuSans-73" x="422.306641"/>
     <use xlink:href="#DejaVuSans-20" x="474.40625"/>
     <use xlink:href="#DejaVuSans-66" x="506.193359"/>
     <use xlink:href="#DejaVuSans-6f" x="541.398438"/>
     <use xlink:href="#DejaVuSans-72" x="602.580078"/>
     <use xlink:href="#DejaVuSans-20" x="643.693359"/>
     <use xlink:href="#DejaVuSans-6d" x="675.480469"/>
     <use xlink:href="#DejaVuSans-6f" x="772.892578"/>
     <use xlink:href="#DejaVuSans-64" x="834.074219"/>
     <use xlink:href="#DejaVuSans-65" x="897.550781"/>
     <use xlink:href="#DejaVuSans-6c" x="959.074219"/>
     <use xlink:href="#DejaVuSans-20" x="986.857422"/>
     <use xlink:href="#DejaVuSans-77" x="1018.644531"/>
     <use xlink:href="#DejaVuSans-69" x="1100.431641"/>
     <use xlink:href="#DejaVuSans-74" x="1128.214844"/>
     <use xlink:href="#DejaVuSans-68" x="1167.423828"/>
     <use xlink:href="#DejaVuSans-6f" x="1230.802734"/>
     <use xlink:href="#DejaVuSans-75" x="1291.984375"/>
     <use xlink:href="#DejaVuSans-74" x="1355.363281"/>
     <use xlink:href="#DejaVuSans-20" x="1394.572266"/>
     <use xlink:href="#DejaVuSans-69" x="1426.359375"/>
     <use xlink:href="#DejaVuSans-6e" x="1454.142578"/>
     <use xlink:href="#DejaVuSans-74" x="1517.521484"/>
     <use xlink:href="#DejaVuSans-65" x="1556.730469"/>
     <use xlink:href="#DejaVuSans-72" x="1618.253906"/>
     <use xlink:href="#DejaVuSans-70" x="1659.367188"/>
     <use xlink:href="#DejaVuSans-6f" x="1722.84375"/>
     <use xlink:href="#DejaVuSans-6c" x="1784.025391"/>
     <use xlink:href="#DejaVuSans-61" x="1811.808594"/>
     <use xlink:href="#DejaVuSans-74" x="1873.087891"/>
     <use xlink:href="#DejaVuSans-69" x="1912.296875"/>
     <use xlink:href="#DejaVuSans-6f" x="1940.080078"/>
     <use xlink:href="#DejaVuSans-6e" x="2001.261719"/>
    </g>
   </g>
  </g>
 </g>
 <defs>
  <clipPath id="p85628731fc">
   <rect x="57.6" y="41.472" width="357.12" height="266.112"/>
  </clipPath>
 </defs>
</svg>
