<?xml version="1.0" encoding="utf-8" standalone="no"?>
<!DOCTYPE svg PUBLIC "-//W3C//DTD SVG 1.1//EN"
  "http://www.w3.org/Graphics/SVG/1.1/DTD/svg11.dtd">
<svg xmlns:xlink="http://www.w3.org/1999/xlink" width="864pt" height="432pt" viewBox="0 0 864 432" xmlns="http://www.w3.org/2000/svg" version="1.1">
 <metadata>
  <rdf:RDF xmlns:dc="http://purl.org/dc/elements/1.1/" xmlns:cc="http://creativecommons.org/ns#" xmlns:rdf="http://www.w3.org/1999/02/22-rdf-syntax-ns#">
   <cc:Work>
    <dc:type rdf:resource="http://purl.org/dc/dcmitype/StillImage"/>
    <dc:date>2024-04-02T11:53:56.523526</dc:date>
    <dc:format>image/svg+xml</dc:format>
    <dc:creator>
     <cc:Agent>
      <dc:title>Matplotlib v3.5.3, https://matplotlib.org/</dc:title>
     </cc:Agent>
    </dc:creator>
   </cc:Work>
  </rdf:RDF>
 </metadata>
 <defs>
  <style type="text/css">*{stroke-linejoin: round; stroke-linecap: butt}</style>
 </defs>
 <g id="figure_1">
  <g id="patch_1">
   <path d="M 0 432 
L 864 432 
L 864 0 
L 0 0 
z
" style="fill: #ffffff"/>
  </g>
  <g id="axes_1">
   <g id="patch_2">
    <path d="M 59.42 390.04 
L 853.2 390.04 
L 853.2 26.16 
L 59.42 26.16 
z
" style="fill: #ffffff"/>
   </g>
   <g id="PathCollection_1">
    <defs>
     <path id="m084fc84dc9" d="M 0 1.581139 
C 0.419323 1.581139 0.821528 1.41454 1.118034 1.118034 
C 1.41454 0.821528 1.581139 0.419323 1.581139 0 
C 1.581139 -0.419323 1.41454 -0.821528 1.118034 -1.118034 
C 0.821528 -1.41454 0.419323 -1.581139 0 -1.581139 
C -0.419323 -1.581139 -0.821528 -1.41454 -1.118034 -1.118034 
C -1.41454 -0.821528 -1.581139 -0.419323 -1.581139 0 
C -1.581139 0.419323 -1.41454 0.821528 -1.118034 1.118034 
C -0.821528 1.41454 -0.419323 1.581139 0 1.581139 
z
" style="stroke: #008000"/>
    </defs>
    <g clip-path="url(#pca9a95fcac)">
     <use xlink:href="#m084fc84dc9" x="95.500909" y="351.009742" style="fill: #008000; stroke: #008000"/>
     <use xlink:href="#m084fc84dc9" x="106.955166" y="338.575741" style="fill: #008000; stroke: #008000"/>
     <use xlink:href="#m084fc84dc9" x="118.409423" y="329.418477" style="fill: #008000; stroke: #008000"/>
     <use xlink:href="#m084fc84dc9" x="129.86368" y="326.952656" style="fill: #008000; stroke: #008000"/>
     <use xlink:href="#m084fc84dc9" x="141.317937" y="326.590748" style="fill: #008000; stroke: #008000"/>
     <use xlink:href="#m084fc84dc9" x="152.772193" y="317.675085" style="fill: #008000; stroke: #008000"/>
     <use xlink:href="#m084fc84dc9" x="161.935599" y="314.962136" style="fill: #008000; stroke: #008000"/>
     <use xlink:href="#m084fc84dc9" x="171.099004" y="312.237353" style="fill: #008000; stroke: #008000"/>
     <use xlink:href="#m084fc84dc9" x="180.26241" y="309.014623" style="fill: #008000; stroke: #008000"/>
     <use xlink:href="#m084fc84dc9" x="189.425815" y="301.258193" style="fill: #008000; stroke: #008000"/>
     <use xlink:href="#m084fc84dc9" x="198.589221" y="292.235292" style="fill: #008000; stroke: #008000"/>
     <use xlink:href="#m084fc84dc9" x="207.752626" y="291.353398" style="fill: #008000; stroke: #008000"/>
     <use xlink:href="#m084fc84dc9" x="216.916032" y="265.315563" style="fill: #008000; stroke: #008000"/>
     <use xlink:href="#m084fc84dc9" x="223.788586" y="248.218177" style="fill: #008000; stroke: #008000"/>
     <use xlink:href="#m084fc84dc9" x="230.66114" y="242.157756" style="fill: #008000; stroke: #008000"/>
     <use xlink:href="#m084fc84dc9" x="237.533694" y="243.965354" style="fill: #008000; stroke: #008000"/>
     <use xlink:href="#m084fc84dc9" x="244.406248" y="242.288419" style="fill: #008000; stroke: #008000"/>
     <use xlink:href="#m084fc84dc9" x="251.278802" y="240.593633" style="fill: #008000; stroke: #008000"/>
     <use xlink:href="#m084fc84dc9" x="258.151356" y="235.595728" style="fill: #008000; stroke: #008000"/>
     <use xlink:href="#m084fc84dc9" x="265.023911" y="232.57412" style="fill: #008000; stroke: #008000"/>
     <use xlink:href="#m084fc84dc9" x="271.896465" y="227.855715" style="fill: #008000; stroke: #008000"/>
     <use xlink:href="#m084fc84dc9" x="278.769019" y="219.969363" style="fill: #008000; stroke: #008000"/>
     <use xlink:href="#m084fc84dc9" x="285.641573" y="216.878236" style="fill: #008000; stroke: #008000"/>
     <use xlink:href="#m084fc84dc9" x="292.514127" y="215.47404" style="fill: #008000; stroke: #008000"/>
     <use xlink:href="#m084fc84dc9" x="299.386681" y="212.680093" style="fill: #008000; stroke: #008000"/>
     <use xlink:href="#m084fc84dc9" x="306.259235" y="211.50895" style="fill: #008000; stroke: #008000"/>
     <use xlink:href="#m084fc84dc9" x="313.131789" y="207.099494" style="fill: #008000; stroke: #008000"/>
     <use xlink:href="#m084fc84dc9" x="320.004343" y="208.385895" style="fill: #008000; stroke: #008000"/>
     <use xlink:href="#m084fc84dc9" x="326.876898" y="206.612542" style="fill: #008000; stroke: #008000"/>
     <use xlink:href="#m084fc84dc9" x="333.749452" y="208.495016" style="fill: #008000; stroke: #008000"/>
     <use xlink:href="#m084fc84dc9" x="340.622006" y="207.416718" style="fill: #008000; stroke: #008000"/>
     <use xlink:href="#m084fc84dc9" x="347.49456" y="205.606049" style="fill: #008000; stroke: #008000"/>
     <use xlink:href="#m084fc84dc9" x="354.367114" y="204.44801" style="fill: #008000; stroke: #008000"/>
     <use xlink:href="#m084fc84dc9" x="361.239668" y="205.351309" style="fill: #008000; stroke: #008000"/>
     <use xlink:href="#m084fc84dc9" x="368.112222" y="205.288021" style="fill: #008000; stroke: #008000"/>
     <use xlink:href="#m084fc84dc9" x="374.984776" y="203.297001" style="fill: #008000; stroke: #008000"/>
     <use xlink:href="#m084fc84dc9" x="381.85733" y="201.363192" style="fill: #008000; stroke: #008000"/>
     <use xlink:href="#m084fc84dc9" x="388.729885" y="201.455502" style="fill: #008000; stroke: #008000"/>
     <use xlink:href="#m084fc84dc9" x="395.602439" y="198.357238" style="fill: #008000; stroke: #008000"/>
     <use xlink:href="#m084fc84dc9" x="402.474993" y="200.090262" style="fill: #008000; stroke: #008000"/>
     <use xlink:href="#m084fc84dc9" x="409.347547" y="204.931452" style="fill: #008000; stroke: #008000"/>
     <use xlink:href="#m084fc84dc9" x="416.220101" y="198.950553" style="fill: #008000; stroke: #008000"/>
     <use xlink:href="#m084fc84dc9" x="423.092655" y="184.138012" style="fill: #008000; stroke: #008000"/>
     <use xlink:href="#m084fc84dc9" x="429.965209" y="180.201652" style="fill: #008000; stroke: #008000"/>
     <use xlink:href="#m084fc84dc9" x="436.837763" y="182.288596" style="fill: #008000; stroke: #008000"/>
     <use xlink:href="#m084fc84dc9" x="443.710317" y="187.195102" style="fill: #008000; stroke: #008000"/>
     <use xlink:href="#m084fc84dc9" x="450.582872" y="186.232269" style="fill: #008000; stroke: #008000"/>
     <use xlink:href="#m084fc84dc9" x="457.455426" y="187.536969" style="fill: #008000; stroke: #008000"/>
     <use xlink:href="#m084fc84dc9" x="464.32798" y="188.178681" style="fill: #008000; stroke: #008000"/>
     <use xlink:href="#m084fc84dc9" x="471.200534" y="186.822819" style="fill: #008000; stroke: #008000"/>
     <use xlink:href="#m084fc84dc9" x="478.073088" y="184.954428" style="fill: #008000; stroke: #008000"/>
     <use xlink:href="#m084fc84dc9" x="484.945642" y="185.13491" style="fill: #008000; stroke: #008000"/>
     <use xlink:href="#m084fc84dc9" x="491.818196" y="187.563097" style="fill: #008000; stroke: #008000"/>
     <use xlink:href="#m084fc84dc9" x="498.69075" y="187.29774" style="fill: #008000; stroke: #008000"/>
     <use xlink:href="#m084fc84dc9" x="505.563304" y="187.068819" style="fill: #008000; stroke: #008000"/>
     <use xlink:href="#m084fc84dc9" x="512.435859" y="185.284073" style="fill: #008000; stroke: #008000"/>
     <use xlink:href="#m084fc84dc9" x="519.308413" y="183.503656" style="fill: #008000; stroke: #008000"/>
     <use xlink:href="#m084fc84dc9" x="526.180967" y="187.458545" style="fill: #008000; stroke: #008000"/>
     <use xlink:href="#m084fc84dc9" x="533.053521" y="173.266326" style="fill: #008000; stroke: #008000"/>
     <use xlink:href="#m084fc84dc9" x="546.798629" y="163.821525" style="fill: #008000; stroke: #008000"/>
     <use xlink:href="#m084fc84dc9" x="560.543737" y="168.386072" style="fill: #008000; stroke: #008000"/>
     <use xlink:href="#m084fc84dc9" x="574.288846" y="211.226668" style="fill: #008000; stroke: #008000"/>
     <use xlink:href="#m084fc84dc9" x="578.870548" y="214.770887" style="fill: #008000; stroke: #008000"/>
     <use xlink:href="#m084fc84dc9" x="585.743102" y="177.716154" style="fill: #008000; stroke: #008000"/>
     <use xlink:href="#m084fc84dc9" x="592.615657" y="175.574165" style="fill: #008000; stroke: #008000"/>
     <use xlink:href="#m084fc84dc9" x="599.488211" y="173.085139" style="fill: #008000; stroke: #008000"/>
     <use xlink:href="#m084fc84dc9" x="613.233319" y="211.338622" style="fill: #008000; stroke: #008000"/>
     <use xlink:href="#m084fc84dc9" x="617.815022" y="214.396888" style="fill: #008000; stroke: #008000"/>
     <use xlink:href="#m084fc84dc9" x="624.687576" y="177.669673" style="fill: #008000; stroke: #008000"/>
     <use xlink:href="#m084fc84dc9" x="631.56013" y="176.315742" style="fill: #008000; stroke: #008000"/>
     <use xlink:href="#m084fc84dc9" x="645.305238" y="159.243604" style="fill: #008000; stroke: #008000"/>
     <use xlink:href="#m084fc84dc9" x="659.050346" y="203.473745" style="fill: #008000; stroke: #008000"/>
     <use xlink:href="#m084fc84dc9" x="663.632049" y="245.929946" style="fill: #008000; stroke: #008000"/>
     <use xlink:href="#m084fc84dc9" x="668.213752" y="201.39371" style="fill: #008000; stroke: #008000"/>
     <use xlink:href="#m084fc84dc9" x="681.95886" y="192.31676" style="fill: #008000; stroke: #008000"/>
     <use xlink:href="#m084fc84dc9" x="686.540563" y="230.346412" style="fill: #008000; stroke: #008000"/>
     <use xlink:href="#m084fc84dc9" x="691.122266" y="228.277645" style="fill: #008000; stroke: #008000"/>
     <use xlink:href="#m084fc84dc9" x="695.703968" y="226.676103" style="fill: #008000; stroke: #008000"/>
     <use xlink:href="#m084fc84dc9" x="700.285671" y="224.960177" style="fill: #008000; stroke: #008000"/>
     <use xlink:href="#m084fc84dc9" x="704.867374" y="224.962371" style="fill: #008000; stroke: #008000"/>
     <use xlink:href="#m084fc84dc9" x="709.449076" y="226.287982" style="fill: #008000; stroke: #008000"/>
     <use xlink:href="#m084fc84dc9" x="714.030779" y="231.258617" style="fill: #008000; stroke: #008000"/>
     <use xlink:href="#m084fc84dc9" x="718.612482" y="209.518086" style="fill: #008000; stroke: #008000"/>
     <use xlink:href="#m084fc84dc9" x="725.485036" y="184.914564" style="fill: #008000; stroke: #008000"/>
     <use xlink:href="#m084fc84dc9" x="732.35759" y="188.824526" style="fill: #008000; stroke: #008000"/>
     <use xlink:href="#m084fc84dc9" x="739.230144" y="186.078562" style="fill: #008000; stroke: #008000"/>
     <use xlink:href="#m084fc84dc9" x="746.102698" y="183.392579" style="fill: #008000; stroke: #008000"/>
     <use xlink:href="#m084fc84dc9" x="752.975253" y="222.104144" style="fill: #008000; stroke: #008000"/>
     <use xlink:href="#m084fc84dc9" x="757.556955" y="254.745311" style="fill: #008000; stroke: #008000"/>
     <use xlink:href="#m084fc84dc9" x="762.138658" y="238.813868" style="fill: #008000; stroke: #008000"/>
     <use xlink:href="#m084fc84dc9" x="766.720361" y="225.282748" style="fill: #008000; stroke: #008000"/>
     <use xlink:href="#m084fc84dc9" x="771.302063" y="216.275517" style="fill: #008000; stroke: #008000"/>
     <use xlink:href="#m084fc84dc9" x="775.883766" y="211.424466" style="fill: #008000; stroke: #008000"/>
     <use xlink:href="#m084fc84dc9" x="780.465469" y="210.982894" style="fill: #008000; stroke: #008000"/>
     <use xlink:href="#m084fc84dc9" x="785.047172" y="215.017724" style="fill: #008000; stroke: #008000"/>
     <use xlink:href="#m084fc84dc9" x="789.628874" y="212.593022" style="fill: #008000; stroke: #008000"/>
     <use xlink:href="#m084fc84dc9" x="796.501429" y="238.02505" style="fill: #008000; stroke: #008000"/>
     <use xlink:href="#m084fc84dc9" x="805.664834" y="340.699732" style="fill: #008000; stroke: #008000"/>
     <use xlink:href="#m084fc84dc9" x="814.82824" y="322.587904" style="fill: #008000; stroke: #008000"/>
    </g>
   </g>
   <g id="PathCollection_2">
    <defs>
     <path id="m92e19c7ea2" d="M 0 1.581139 
C 0.419323 1.581139 0.821528 1.41454 1.118034 1.118034 
C 1.41454 0.821528 1.581139 0.419323 1.581139 0 
C 1.581139 -0.419323 1.41454 -0.821528 1.118034 -1.118034 
C 0.821528 -1.41454 0.419323 -1.581139 0 -1.581139 
C -0.419323 -1.581139 -0.821528 -1.41454 -1.118034 -1.118034 
C -1.41454 -0.821528 -1.581139 -0.419323 -1.581139 0 
C -1.581139 0.419323 -1.41454 0.821528 -1.118034 1.118034 
C -0.821528 1.41454 -0.419323 1.581139 0 1.581139 
z
" style="stroke: #ff0000"/>
    </defs>
    <g clip-path="url(#pca9a95fcac)">
     <use xlink:href="#m92e19c7ea2" x="539.926075" y="378.260475" style="fill: #ff0000; stroke: #ff0000"/>
     <use xlink:href="#m92e19c7ea2" x="553.671183" y="377.08395" style="fill: #ff0000; stroke: #ff0000"/>
     <use xlink:href="#m92e19c7ea2" x="567.416291" y="377.090875" style="fill: #ff0000; stroke: #ff0000"/>
     <use xlink:href="#m92e19c7ea2" x="606.360765" y="379.560976" style="fill: #ff0000; stroke: #ff0000"/>
     <use xlink:href="#m92e19c7ea2" x="638.432684" y="373.341607" style="fill: #ff0000; stroke: #ff0000"/>
     <use xlink:href="#m92e19c7ea2" x="652.177792" y="369.30936" style="fill: #ff0000; stroke: #ff0000"/>
     <use xlink:href="#m92e19c7ea2" x="675.086306" y="365.100794" style="fill: #ff0000; stroke: #ff0000"/>
    </g>
   </g>
   <g id="PathCollection_3"/>
   <g id="matplotlib.axis_1">
    <g id="xtick_1">
     <g id="line2d_1">
      <defs>
       <path id="m09051de385" d="M 0 0 
L 0 3.5 
" style="stroke: #000000; stroke-width: 0.8"/>
      </defs>
      <g>
       <use xlink:href="#m09051de385" x="95.500909" y="390.04" style="stroke: #000000; stroke-width: 0.8"/>
      </g>
     </g>
     <g id="text_1">
      <!-- 0 -->
      <g transform="translate(92.319659 404.638438)scale(0.1 -0.1)">
       <defs>
        <path id="DejaVuSans-30" d="M 2034 4250 
Q 1547 4250 1301 3770 
Q 1056 3291 1056 2328 
Q 1056 1369 1301 889 
Q 1547 409 2034 409 
Q 2525 409 2770 889 
Q 3016 1369 3016 2328 
Q 3016 3291 2770 3770 
Q 2525 4250 2034 4250 
z
M 2034 4750 
Q 2819 4750 3233 4129 
Q 3647 3509 3647 2328 
Q 3647 1150 3233 529 
Q 2819 -91 2034 -91 
Q 1250 -91 836 529 
Q 422 1150 422 2328 
Q 422 3509 836 4129 
Q 1250 4750 2034 4750 
z
" transform="scale(0.015625)"/>
       </defs>
       <use xlink:href="#DejaVuSans-30"/>
      </g>
     </g>
    </g>
    <g id="xtick_2">
     <g id="line2d_2">
      <g>
       <use xlink:href="#m09051de385" x="187.134964" y="390.04" style="stroke: #000000; stroke-width: 0.8"/>
      </g>
     </g>
     <g id="text_2">
      <!-- 10000 -->
      <g transform="translate(171.228714 404.638438)scale(0.1 -0.1)">
       <defs>
        <path id="DejaVuSans-31" d="M 794 531 
L 1825 531 
L 1825 4091 
L 703 3866 
L 703 4441 
L 1819 4666 
L 2450 4666 
L 2450 531 
L 3481 531 
L 3481 0 
L 794 0 
L 794 531 
z
" transform="scale(0.015625)"/>
       </defs>
       <use xlink:href="#DejaVuSans-31"/>
       <use xlink:href="#DejaVuSans-30" x="63.623047"/>
       <use xlink:href="#DejaVuSans-30" x="127.246094"/>
       <use xlink:href="#DejaVuSans-30" x="190.869141"/>
       <use xlink:href="#DejaVuSans-30" x="254.492188"/>
      </g>
     </g>
    </g>
    <g id="xtick_3">
     <g id="line2d_3">
      <g>
       <use xlink:href="#m09051de385" x="278.769019" y="390.04" style="stroke: #000000; stroke-width: 0.8"/>
      </g>
     </g>
     <g id="text_3">
      <!-- 20000 -->
      <g transform="translate(262.862769 404.638438)scale(0.1 -0.1)">
       <defs>
        <path id="DejaVuSans-32" d="M 1228 531 
L 3431 531 
L 3431 0 
L 469 0 
L 469 531 
Q 828 903 1448 1529 
Q 2069 2156 2228 2338 
Q 2531 2678 2651 2914 
Q 2772 3150 2772 3378 
Q 2772 3750 2511 3984 
Q 2250 4219 1831 4219 
Q 1534 4219 1204 4116 
Q 875 4013 500 3803 
L 500 4441 
Q 881 4594 1212 4672 
Q 1544 4750 1819 4750 
Q 2544 4750 2975 4387 
Q 3406 4025 3406 3419 
Q 3406 3131 3298 2873 
Q 3191 2616 2906 2266 
Q 2828 2175 2409 1742 
Q 1991 1309 1228 531 
z
" transform="scale(0.015625)"/>
       </defs>
       <use xlink:href="#DejaVuSans-32"/>
       <use xlink:href="#DejaVuSans-30" x="63.623047"/>
       <use xlink:href="#DejaVuSans-30" x="127.246094"/>
       <use xlink:href="#DejaVuSans-30" x="190.869141"/>
       <use xlink:href="#DejaVuSans-30" x="254.492188"/>
      </g>
     </g>
    </g>
    <g id="xtick_4">
     <g id="line2d_4">
      <g>
       <use xlink:href="#m09051de385" x="370.403074" y="390.04" style="stroke: #000000; stroke-width: 0.8"/>
      </g>
     </g>
     <g id="text_4">
      <!-- 30000 -->
      <g transform="translate(354.496824 404.638438)scale(0.1 -0.1)">
       <defs>
        <path id="DejaVuSans-33" d="M 2597 2516 
Q 3050 2419 3304 2112 
Q 3559 1806 3559 1356 
Q 3559 666 3084 287 
Q 2609 -91 1734 -91 
Q 1441 -91 1130 -33 
Q 819 25 488 141 
L 488 750 
Q 750 597 1062 519 
Q 1375 441 1716 441 
Q 2309 441 2620 675 
Q 2931 909 2931 1356 
Q 2931 1769 2642 2001 
Q 2353 2234 1838 2234 
L 1294 2234 
L 1294 2753 
L 1863 2753 
Q 2328 2753 2575 2939 
Q 2822 3125 2822 3475 
Q 2822 3834 2567 4026 
Q 2313 4219 1838 4219 
Q 1578 4219 1281 4162 
Q 984 4106 628 3988 
L 628 4550 
Q 988 4650 1302 4700 
Q 1616 4750 1894 4750 
Q 2613 4750 3031 4423 
Q 3450 4097 3450 3541 
Q 3450 3153 3228 2886 
Q 3006 2619 2597 2516 
z
" transform="scale(0.015625)"/>
       </defs>
       <use xlink:href="#DejaVuSans-33"/>
       <use xlink:href="#DejaVuSans-30" x="63.623047"/>
       <use xlink:href="#DejaVuSans-30" x="127.246094"/>
       <use xlink:href="#DejaVuSans-30" x="190.869141"/>
       <use xlink:href="#DejaVuSans-30" x="254.492188"/>
      </g>
     </g>
    </g>
    <g id="xtick_5">
     <g id="line2d_5">
      <g>
       <use xlink:href="#m09051de385" x="462.037128" y="390.04" style="stroke: #000000; stroke-width: 0.8"/>
      </g>
     </g>
     <g id="text_5">
      <!-- 40000 -->
      <g transform="translate(446.130878 404.638438)scale(0.1 -0.1)">
       <defs>
        <path id="DejaVuSans-34" d="M 2419 4116 
L 825 1625 
L 2419 1625 
L 2419 4116 
z
M 2253 4666 
L 3047 4666 
L 3047 1625 
L 3713 1625 
L 3713 1100 
L 3047 1100 
L 3047 0 
L 2419 0 
L 2419 1100 
L 313 1100 
L 313 1709 
L 2253 4666 
z
" transform="scale(0.015625)"/>
       </defs>
       <use xlink:href="#DejaVuSans-34"/>
       <use xlink:href="#DejaVuSans-30" x="63.623047"/>
       <use xlink:href="#DejaVuSans-30" x="127.246094"/>
       <use xlink:href="#DejaVuSans-30" x="190.869141"/>
       <use xlink:href="#DejaVuSans-30" x="254.492188"/>
      </g>
     </g>
    </g>
    <g id="xtick_6">
     <g id="line2d_6">
      <g>
       <use xlink:href="#m09051de385" x="553.671183" y="390.04" style="stroke: #000000; stroke-width: 0.8"/>
      </g>
     </g>
     <g id="text_6">
      <!-- 50000 -->
      <g transform="translate(537.764933 404.638438)scale(0.1 -0.1)">
       <defs>
        <path id="DejaVuSans-35" d="M 691 4666 
L 3169 4666 
L 3169 4134 
L 1269 4134 
L 1269 2991 
Q 1406 3038 1543 3061 
Q 1681 3084 1819 3084 
Q 2600 3084 3056 2656 
Q 3513 2228 3513 1497 
Q 3513 744 3044 326 
Q 2575 -91 1722 -91 
Q 1428 -91 1123 -41 
Q 819 9 494 109 
L 494 744 
Q 775 591 1075 516 
Q 1375 441 1709 441 
Q 2250 441 2565 725 
Q 2881 1009 2881 1497 
Q 2881 1984 2565 2268 
Q 2250 2553 1709 2553 
Q 1456 2553 1204 2497 
Q 953 2441 691 2322 
L 691 4666 
z
" transform="scale(0.015625)"/>
       </defs>
       <use xlink:href="#DejaVuSans-35"/>
       <use xlink:href="#DejaVuSans-30" x="63.623047"/>
       <use xlink:href="#DejaVuSans-30" x="127.246094"/>
       <use xlink:href="#DejaVuSans-30" x="190.869141"/>
       <use xlink:href="#DejaVuSans-30" x="254.492188"/>
      </g>
     </g>
    </g>
    <g id="xtick_7">
     <g id="line2d_7">
      <g>
       <use xlink:href="#m09051de385" x="645.305238" y="390.04" style="stroke: #000000; stroke-width: 0.8"/>
      </g>
     </g>
     <g id="text_7">
      <!-- 60000 -->
      <g transform="translate(629.398988 404.638438)scale(0.1 -0.1)">
       <defs>
        <path id="DejaVuSans-36" d="M 2113 2584 
Q 1688 2584 1439 2293 
Q 1191 2003 1191 1497 
Q 1191 994 1439 701 
Q 1688 409 2113 409 
Q 2538 409 2786 701 
Q 3034 994 3034 1497 
Q 3034 2003 2786 2293 
Q 2538 2584 2113 2584 
z
M 3366 4563 
L 3366 3988 
Q 3128 4100 2886 4159 
Q 2644 4219 2406 4219 
Q 1781 4219 1451 3797 
Q 1122 3375 1075 2522 
Q 1259 2794 1537 2939 
Q 1816 3084 2150 3084 
Q 2853 3084 3261 2657 
Q 3669 2231 3669 1497 
Q 3669 778 3244 343 
Q 2819 -91 2113 -91 
Q 1303 -91 875 529 
Q 447 1150 447 2328 
Q 447 3434 972 4092 
Q 1497 4750 2381 4750 
Q 2619 4750 2861 4703 
Q 3103 4656 3366 4563 
z
" transform="scale(0.015625)"/>
       </defs>
       <use xlink:href="#DejaVuSans-36"/>
       <use xlink:href="#DejaVuSans-30" x="63.623047"/>
       <use xlink:href="#DejaVuSans-30" x="127.246094"/>
       <use xlink:href="#DejaVuSans-30" x="190.869141"/>
       <use xlink:href="#DejaVuSans-30" x="254.492188"/>
      </g>
     </g>
    </g>
    <g id="xtick_8">
     <g id="line2d_8">
      <g>
       <use xlink:href="#m09051de385" x="736.939293" y="390.04" style="stroke: #000000; stroke-width: 0.8"/>
      </g>
     </g>
     <g id="text_8">
      <!-- 70000 -->
      <g transform="translate(721.033043 404.638438)scale(0.1 -0.1)">
       <defs>
        <path id="DejaVuSans-37" d="M 525 4666 
L 3525 4666 
L 3525 4397 
L 1831 0 
L 1172 0 
L 2766 4134 
L 525 4134 
L 525 4666 
z
" transform="scale(0.015625)"/>
       </defs>
       <use xlink:href="#DejaVuSans-37"/>
       <use xlink:href="#DejaVuSans-30" x="63.623047"/>
       <use xlink:href="#DejaVuSans-30" x="127.246094"/>
       <use xlink:href="#DejaVuSans-30" x="190.869141"/>
       <use xlink:href="#DejaVuSans-30" x="254.492188"/>
      </g>
     </g>
    </g>
    <g id="xtick_9">
     <g id="line2d_9">
      <g>
       <use xlink:href="#m09051de385" x="828.573348" y="390.04" style="stroke: #000000; stroke-width: 0.8"/>
      </g>
     </g>
     <g id="text_9">
      <!-- 80000 -->
      <g transform="translate(812.667098 404.638438)scale(0.1 -0.1)">
       <defs>
        <path id="DejaVuSans-38" d="M 2034 2216 
Q 1584 2216 1326 1975 
Q 1069 1734 1069 1313 
Q 1069 891 1326 650 
Q 1584 409 2034 409 
Q 2484 409 2743 651 
Q 3003 894 3003 1313 
Q 3003 1734 2745 1975 
Q 2488 2216 2034 2216 
z
M 1403 2484 
Q 997 2584 770 2862 
Q 544 3141 544 3541 
Q 544 4100 942 4425 
Q 1341 4750 2034 4750 
Q 2731 4750 3128 4425 
Q 3525 4100 3525 3541 
Q 3525 3141 3298 2862 
Q 3072 2584 2669 2484 
Q 3125 2378 3379 2068 
Q 3634 1759 3634 1313 
Q 3634 634 3220 271 
Q 2806 -91 2034 -91 
Q 1263 -91 848 271 
Q 434 634 434 1313 
Q 434 1759 690 2068 
Q 947 2378 1403 2484 
z
M 1172 3481 
Q 1172 3119 1398 2916 
Q 1625 2713 2034 2713 
Q 2441 2713 2670 2916 
Q 2900 3119 2900 3481 
Q 2900 3844 2670 4047 
Q 2441 4250 2034 4250 
Q 1625 4250 1398 4047 
Q 1172 3844 1172 3481 
z
" transform="scale(0.015625)"/>
       </defs>
       <use xlink:href="#DejaVuSans-38"/>
       <use xlink:href="#DejaVuSans-30" x="63.623047"/>
       <use xlink:href="#DejaVuSans-30" x="127.246094"/>
       <use xlink:href="#DejaVuSans-30" x="190.869141"/>
       <use xlink:href="#DejaVuSans-30" x="254.492188"/>
      </g>
     </g>
    </g>
    <g id="text_10">
     <!-- Distance to sea (m) -->
     <g transform="translate(407.143594 418.316562)scale(0.1 -0.1)">
      <defs>
       <path id="DejaVuSans-44" d="M 1259 4147 
L 1259 519 
L 2022 519 
Q 2988 519 3436 956 
Q 3884 1394 3884 2338 
Q 3884 3275 3436 3711 
Q 2988 4147 2022 4147 
L 1259 4147 
z
M 628 4666 
L 1925 4666 
Q 3281 4666 3915 4102 
Q 4550 3538 4550 2338 
Q 4550 1131 3912 565 
Q 3275 0 1925 0 
L 628 0 
L 628 4666 
z
" transform="scale(0.015625)"/>
       <path id="DejaVuSans-69" d="M 603 3500 
L 1178 3500 
L 1178 0 
L 603 0 
L 603 3500 
z
M 603 4863 
L 1178 4863 
L 1178 4134 
L 603 4134 
L 603 4863 
z
" transform="scale(0.015625)"/>
       <path id="DejaVuSans-73" d="M 2834 3397 
L 2834 2853 
Q 2591 2978 2328 3040 
Q 2066 3103 1784 3103 
Q 1356 3103 1142 2972 
Q 928 2841 928 2578 
Q 928 2378 1081 2264 
Q 1234 2150 1697 2047 
L 1894 2003 
Q 2506 1872 2764 1633 
Q 3022 1394 3022 966 
Q 3022 478 2636 193 
Q 2250 -91 1575 -91 
Q 1294 -91 989 -36 
Q 684 19 347 128 
L 347 722 
Q 666 556 975 473 
Q 1284 391 1588 391 
Q 1994 391 2212 530 
Q 2431 669 2431 922 
Q 2431 1156 2273 1281 
Q 2116 1406 1581 1522 
L 1381 1569 
Q 847 1681 609 1914 
Q 372 2147 372 2553 
Q 372 3047 722 3315 
Q 1072 3584 1716 3584 
Q 2034 3584 2315 3537 
Q 2597 3491 2834 3397 
z
" transform="scale(0.015625)"/>
       <path id="DejaVuSans-74" d="M 1172 4494 
L 1172 3500 
L 2356 3500 
L 2356 3053 
L 1172 3053 
L 1172 1153 
Q 1172 725 1289 603 
Q 1406 481 1766 481 
L 2356 481 
L 2356 0 
L 1766 0 
Q 1100 0 847 248 
Q 594 497 594 1153 
L 594 3053 
L 172 3053 
L 172 3500 
L 594 3500 
L 594 4494 
L 1172 4494 
z
" transform="scale(0.015625)"/>
       <path id="DejaVuSans-61" d="M 2194 1759 
Q 1497 1759 1228 1600 
Q 959 1441 959 1056 
Q 959 750 1161 570 
Q 1363 391 1709 391 
Q 2188 391 2477 730 
Q 2766 1069 2766 1631 
L 2766 1759 
L 2194 1759 
z
M 3341 1997 
L 3341 0 
L 2766 0 
L 2766 531 
Q 2569 213 2275 61 
Q 1981 -91 1556 -91 
Q 1019 -91 701 211 
Q 384 513 384 1019 
Q 384 1609 779 1909 
Q 1175 2209 1959 2209 
L 2766 2209 
L 2766 2266 
Q 2766 2663 2505 2880 
Q 2244 3097 1772 3097 
Q 1472 3097 1187 3025 
Q 903 2953 641 2809 
L 641 3341 
Q 956 3463 1253 3523 
Q 1550 3584 1831 3584 
Q 2591 3584 2966 3190 
Q 3341 2797 3341 1997 
z
" transform="scale(0.015625)"/>
       <path id="DejaVuSans-6e" d="M 3513 2113 
L 3513 0 
L 2938 0 
L 2938 2094 
Q 2938 2591 2744 2837 
Q 2550 3084 2163 3084 
Q 1697 3084 1428 2787 
Q 1159 2491 1159 1978 
L 1159 0 
L 581 0 
L 581 3500 
L 1159 3500 
L 1159 2956 
Q 1366 3272 1645 3428 
Q 1925 3584 2291 3584 
Q 2894 3584 3203 3211 
Q 3513 2838 3513 2113 
z
" transform="scale(0.015625)"/>
       <path id="DejaVuSans-63" d="M 3122 3366 
L 3122 2828 
Q 2878 2963 2633 3030 
Q 2388 3097 2138 3097 
Q 1578 3097 1268 2742 
Q 959 2388 959 1747 
Q 959 1106 1268 751 
Q 1578 397 2138 397 
Q 2388 397 2633 464 
Q 2878 531 3122 666 
L 3122 134 
Q 2881 22 2623 -34 
Q 2366 -91 2075 -91 
Q 1284 -91 818 406 
Q 353 903 353 1747 
Q 353 2603 823 3093 
Q 1294 3584 2113 3584 
Q 2378 3584 2631 3529 
Q 2884 3475 3122 3366 
z
" transform="scale(0.015625)"/>
       <path id="DejaVuSans-65" d="M 3597 1894 
L 3597 1613 
L 953 1613 
Q 991 1019 1311 708 
Q 1631 397 2203 397 
Q 2534 397 2845 478 
Q 3156 559 3463 722 
L 3463 178 
Q 3153 47 2828 -22 
Q 2503 -91 2169 -91 
Q 1331 -91 842 396 
Q 353 884 353 1716 
Q 353 2575 817 3079 
Q 1281 3584 2069 3584 
Q 2775 3584 3186 3129 
Q 3597 2675 3597 1894 
z
M 3022 2063 
Q 3016 2534 2758 2815 
Q 2500 3097 2075 3097 
Q 1594 3097 1305 2825 
Q 1016 2553 972 2059 
L 3022 2063 
z
" transform="scale(0.015625)"/>
       <path id="DejaVuSans-20" transform="scale(0.015625)"/>
       <path id="DejaVuSans-6f" d="M 1959 3097 
Q 1497 3097 1228 2736 
Q 959 2375 959 1747 
Q 959 1119 1226 758 
Q 1494 397 1959 397 
Q 2419 397 2687 759 
Q 2956 1122 2956 1747 
Q 2956 2369 2687 2733 
Q 2419 3097 1959 3097 
z
M 1959 3584 
Q 2709 3584 3137 3096 
Q 3566 2609 3566 1747 
Q 3566 888 3137 398 
Q 2709 -91 1959 -91 
Q 1206 -91 779 398 
Q 353 888 353 1747 
Q 353 2609 779 3096 
Q 1206 3584 1959 3584 
z
" transform="scale(0.015625)"/>
       <path id="DejaVuSans-28" d="M 1984 4856 
Q 1566 4138 1362 3434 
Q 1159 2731 1159 2009 
Q 1159 1288 1364 580 
Q 1569 -128 1984 -844 
L 1484 -844 
Q 1016 -109 783 600 
Q 550 1309 550 2009 
Q 550 2706 781 3412 
Q 1013 4119 1484 4856 
L 1984 4856 
z
" transform="scale(0.015625)"/>
       <path id="DejaVuSans-6d" d="M 3328 2828 
Q 3544 3216 3844 3400 
Q 4144 3584 4550 3584 
Q 5097 3584 5394 3201 
Q 5691 2819 5691 2113 
L 5691 0 
L 5113 0 
L 5113 2094 
Q 5113 2597 4934 2840 
Q 4756 3084 4391 3084 
Q 3944 3084 3684 2787 
Q 3425 2491 3425 1978 
L 3425 0 
L 2847 0 
L 2847 2094 
Q 2847 2600 2669 2842 
Q 2491 3084 2119 3084 
Q 1678 3084 1418 2786 
Q 1159 2488 1159 1978 
L 1159 0 
L 581 0 
L 581 3500 
L 1159 3500 
L 1159 2956 
Q 1356 3278 1631 3431 
Q 1906 3584 2284 3584 
Q 2666 3584 2933 3390 
Q 3200 3197 3328 2828 
z
" transform="scale(0.015625)"/>
       <path id="DejaVuSans-29" d="M 513 4856 
L 1013 4856 
Q 1481 4119 1714 3412 
Q 1947 2706 1947 2009 
Q 1947 1309 1714 600 
Q 1481 -109 1013 -844 
L 513 -844 
Q 928 -128 1133 580 
Q 1338 1288 1338 2009 
Q 1338 2731 1133 3434 
Q 928 4138 513 4856 
z
" transform="scale(0.015625)"/>
      </defs>
      <use xlink:href="#DejaVuSans-44"/>
      <use xlink:href="#DejaVuSans-69" x="77.001953"/>
      <use xlink:href="#DejaVuSans-73" x="104.785156"/>
      <use xlink:href="#DejaVuSans-74" x="156.884766"/>
      <use xlink:href="#DejaVuSans-61" x="196.09375"/>
      <use xlink:href="#DejaVuSans-6e" x="257.373047"/>
      <use xlink:href="#DejaVuSans-63" x="320.751953"/>
      <use xlink:href="#DejaVuSans-65" x="375.732422"/>
      <use xlink:href="#DejaVuSans-20" x="437.255859"/>
      <use xlink:href="#DejaVuSans-74" x="469.042969"/>
      <use xlink:href="#DejaVuSans-6f" x="508.251953"/>
      <use xlink:href="#DejaVuSans-20" x="569.433594"/>
      <use xlink:href="#DejaVuSans-73" x="601.220703"/>
      <use xlink:href="#DejaVuSans-65" x="653.320312"/>
      <use xlink:href="#DejaVuSans-61" x="714.84375"/>
      <use xlink:href="#DejaVuSans-20" x="776.123047"/>
      <use xlink:href="#DejaVuSans-28" x="807.910156"/>
      <use xlink:href="#DejaVuSans-6d" x="846.923828"/>
      <use xlink:href="#DejaVuSans-29" x="944.335938"/>
     </g>
    </g>
   </g>
   <g id="matplotlib.axis_2">
    <g id="ytick_1">
     <g id="line2d_10">
      <defs>
       <path id="m6ca1e5143c" d="M 0 0 
L -3.5 0 
" style="stroke: #000000; stroke-width: 0.8"/>
      </defs>
      <g>
       <use xlink:href="#m6ca1e5143c" x="59.42" y="351.009742" style="stroke: #000000; stroke-width: 0.8"/>
      </g>
     </g>
     <g id="text_11">
      <!-- −300 -->
      <g transform="translate(24.952813 354.808961)scale(0.1 -0.1)">
       <defs>
        <path id="DejaVuSans-2212" d="M 678 2272 
L 4684 2272 
L 4684 1741 
L 678 1741 
L 678 2272 
z
" transform="scale(0.015625)"/>
       </defs>
       <use xlink:href="#DejaVuSans-2212"/>
       <use xlink:href="#DejaVuSans-33" x="83.789062"/>
       <use xlink:href="#DejaVuSans-30" x="147.412109"/>
       <use xlink:href="#DejaVuSans-30" x="211.035156"/>
      </g>
     </g>
    </g>
    <g id="ytick_2">
     <g id="line2d_11">
      <g>
       <use xlink:href="#m6ca1e5143c" x="59.42" y="298.614622" style="stroke: #000000; stroke-width: 0.8"/>
      </g>
     </g>
     <g id="text_12">
      <!-- −250 -->
      <g transform="translate(24.952813 302.413841)scale(0.1 -0.1)">
       <use xlink:href="#DejaVuSans-2212"/>
       <use xlink:href="#DejaVuSans-32" x="83.789062"/>
       <use xlink:href="#DejaVuSans-35" x="147.412109"/>
       <use xlink:href="#DejaVuSans-30" x="211.035156"/>
      </g>
     </g>
    </g>
    <g id="ytick_3">
     <g id="line2d_12">
      <g>
       <use xlink:href="#m6ca1e5143c" x="59.42" y="246.219503" style="stroke: #000000; stroke-width: 0.8"/>
      </g>
     </g>
     <g id="text_13">
      <!-- −200 -->
      <g transform="translate(24.952813 250.018721)scale(0.1 -0.1)">
       <use xlink:href="#DejaVuSans-2212"/>
       <use xlink:href="#DejaVuSans-32" x="83.789062"/>
       <use xlink:href="#DejaVuSans-30" x="147.412109"/>
       <use xlink:href="#DejaVuSans-30" x="211.035156"/>
      </g>
     </g>
    </g>
    <g id="ytick_4">
     <g id="line2d_13">
      <g>
       <use xlink:href="#m6ca1e5143c" x="59.42" y="193.824383" style="stroke: #000000; stroke-width: 0.8"/>
      </g>
     </g>
     <g id="text_14">
      <!-- −150 -->
      <g transform="translate(24.952813 197.623602)scale(0.1 -0.1)">
       <use xlink:href="#DejaVuSans-2212"/>
       <use xlink:href="#DejaVuSans-31" x="83.789062"/>
       <use xlink:href="#DejaVuSans-35" x="147.412109"/>
       <use xlink:href="#DejaVuSans-30" x="211.035156"/>
      </g>
     </g>
    </g>
    <g id="ytick_5">
     <g id="line2d_14">
      <g>
       <use xlink:href="#m6ca1e5143c" x="59.42" y="141.429263" style="stroke: #000000; stroke-width: 0.8"/>
      </g>
     </g>
     <g id="text_15">
      <!-- −100 -->
      <g transform="translate(24.952813 145.228482)scale(0.1 -0.1)">
       <use xlink:href="#DejaVuSans-2212"/>
       <use xlink:href="#DejaVuSans-31" x="83.789062"/>
       <use xlink:href="#DejaVuSans-30" x="147.412109"/>
       <use xlink:href="#DejaVuSans-30" x="211.035156"/>
      </g>
     </g>
    </g>
    <g id="ytick_6">
     <g id="line2d_15">
      <g>
       <use xlink:href="#m6ca1e5143c" x="59.42" y="89.034144" style="stroke: #000000; stroke-width: 0.8"/>
      </g>
     </g>
     <g id="text_16">
      <!-- −50 -->
      <g transform="translate(31.315313 92.833362)scale(0.1 -0.1)">
       <use xlink:href="#DejaVuSans-2212"/>
       <use xlink:href="#DejaVuSans-35" x="83.789062"/>
       <use xlink:href="#DejaVuSans-30" x="147.412109"/>
      </g>
     </g>
    </g>
    <g id="ytick_7">
     <g id="line2d_16">
      <g>
       <use xlink:href="#m6ca1e5143c" x="59.42" y="36.639024" style="stroke: #000000; stroke-width: 0.8"/>
      </g>
     </g>
     <g id="text_17">
      <!-- 0 -->
      <g transform="translate(46.0575 40.438243)scale(0.1 -0.1)">
       <use xlink:href="#DejaVuSans-30"/>
      </g>
     </g>
    </g>
    <g id="text_18">
     <!-- Depth of channel (m) -->
     <g transform="translate(18.873125 261.473437)rotate(-90)scale(0.1 -0.1)">
      <defs>
       <path id="DejaVuSans-70" d="M 1159 525 
L 1159 -1331 
L 581 -1331 
L 581 3500 
L 1159 3500 
L 1159 2969 
Q 1341 3281 1617 3432 
Q 1894 3584 2278 3584 
Q 2916 3584 3314 3078 
Q 3713 2572 3713 1747 
Q 3713 922 3314 415 
Q 2916 -91 2278 -91 
Q 1894 -91 1617 61 
Q 1341 213 1159 525 
z
M 3116 1747 
Q 3116 2381 2855 2742 
Q 2594 3103 2138 3103 
Q 1681 3103 1420 2742 
Q 1159 2381 1159 1747 
Q 1159 1113 1420 752 
Q 1681 391 2138 391 
Q 2594 391 2855 752 
Q 3116 1113 3116 1747 
z
" transform="scale(0.015625)"/>
       <path id="DejaVuSans-68" d="M 3513 2113 
L 3513 0 
L 2938 0 
L 2938 2094 
Q 2938 2591 2744 2837 
Q 2550 3084 2163 3084 
Q 1697 3084 1428 2787 
Q 1159 2491 1159 1978 
L 1159 0 
L 581 0 
L 581 4863 
L 1159 4863 
L 1159 2956 
Q 1366 3272 1645 3428 
Q 1925 3584 2291 3584 
Q 2894 3584 3203 3211 
Q 3513 2838 3513 2113 
z
" transform="scale(0.015625)"/>
       <path id="DejaVuSans-66" d="M 2375 4863 
L 2375 4384 
L 1825 4384 
Q 1516 4384 1395 4259 
Q 1275 4134 1275 3809 
L 1275 3500 
L 2222 3500 
L 2222 3053 
L 1275 3053 
L 1275 0 
L 697 0 
L 697 3053 
L 147 3053 
L 147 3500 
L 697 3500 
L 697 3744 
Q 697 4328 969 4595 
Q 1241 4863 1831 4863 
L 2375 4863 
z
" transform="scale(0.015625)"/>
       <path id="DejaVuSans-6c" d="M 603 4863 
L 1178 4863 
L 1178 0 
L 603 0 
L 603 4863 
z
" transform="scale(0.015625)"/>
      </defs>
      <use xlink:href="#DejaVuSans-44"/>
      <use xlink:href="#DejaVuSans-65" x="77.001953"/>
      <use xlink:href="#DejaVuSans-70" x="138.525391"/>
      <use xlink:href="#DejaVuSans-74" x="202.001953"/>
      <use xlink:href="#DejaVuSans-68" x="241.210938"/>
      <use xlink:href="#DejaVuSans-20" x="304.589844"/>
      <use xlink:href="#DejaVuSans-6f" x="336.376953"/>
      <use xlink:href="#DejaVuSans-66" x="397.558594"/>
      <use xlink:href="#DejaVuSans-20" x="432.763672"/>
      <use xlink:href="#DejaVuSans-63" x="464.550781"/>
      <use xlink:href="#DejaVuSans-68" x="519.53125"/>
      <use xlink:href="#DejaVuSans-61" x="582.910156"/>
      <use xlink:href="#DejaVuSans-6e" x="644.189453"/>
      <use xlink:href="#DejaVuSans-6e" x="707.568359"/>
      <use xlink:href="#DejaVuSans-65" x="770.947266"/>
      <use xlink:href="#DejaVuSans-6c" x="832.470703"/>
      <use xlink:href="#DejaVuSans-20" x="860.253906"/>
      <use xlink:href="#DejaVuSans-28" x="892.041016"/>
      <use xlink:href="#DejaVuSans-6d" x="931.054688"/>
      <use xlink:href="#DejaVuSans-29" x="1028.466797"/>
     </g>
    </g>
   </g>
   <g id="line2d_17">
    <path d="M 95.500909 351.009742 
L 97.79176 180.858559 
L 100.082612 73.581519 
L 102.373463 71.094719 
L 104.664315 173.398158 
L 106.955166 338.575741 
L 109.246017 168.424558 
L 111.536869 61.147519 
L 113.82772 58.660719 
L 116.118571 162.597323 
L 118.409423 329.418477 
L 120.700274 160.910866 
L 122.991126 55.419702 
L 125.281977 55.112479 
L 127.572828 159.595496 
L 129.86368 326.952656 
L 132.154531 159.527871 
L 134.445382 55.070261 
L 136.736234 55.40289 
L 139.027085 159.727389 
L 141.317937 326.590748 
L 143.608788 157.971842 
L 145.899639 50.63306 
L 148.190491 48.084518 
L 150.481342 150.713152 
L 152.772193 317.675085 
L 155.063045 149.308251 
L 157.353896 85.762431 
L 159.644747 148.070273 
L 161.935599 314.962136 
L 164.22645 146.182426 
L 166.517302 82.192956 
L 168.808153 144.57297 
L 171.099004 312.237353 
L 173.389856 144.57297 
L 175.680707 80.758056 
L 177.971558 142.49122 
L 180.26241 309.014623 
L 182.553261 140.057307 
L 184.844113 75.034768 
L 187.134964 135.760515 
L 189.425815 301.258193 
L 191.716667 131.363773 
L 194.007518 66.259593 
L 196.298369 126.874088 
L 198.589221 292.235292 
L 200.880072 122.26773 
L 203.170924 57.915933 
L 205.461775 122.239546 
L 207.752626 291.353398 
L 210.043478 121.963876 
L 212.334329 50.865257 
L 214.62518 105.514925 
L 216.916032 265.315563 
L 219.206883 133.868147 
L 221.497734 128.169018 
L 223.788586 248.218177 
L 226.079437 119.475746 
L 228.370289 117.942607 
L 230.66114 242.157756 
L 232.951991 116.887898 
L 235.242843 117.552482 
L 237.533694 243.965354 
L 239.824545 117.869206 
L 242.115397 117.204669 
L 244.406248 242.288419 
L 246.6971 116.015783 
L 248.987951 115.581835 
L 251.278802 240.593633 
L 253.569654 112.845036 
L 255.860505 110.933973 
L 258.151356 235.595728 
L 260.442208 108.760908 
L 262.733059 107.714753 
L 265.023911 232.57412 
L 267.314762 105.936912 
L 269.605613 104.107366 
L 271.896465 227.855715 
L 274.187316 100.10749 
L 276.478167 97.328899 
L 278.769019 219.969363 
L 281.05987 91.129948 
L 283.350722 91.129948 
L 285.641573 216.878236 
L 287.932424 91.129948 
L 290.223276 90.521602 
L 292.514127 215.47404 
L 294.804978 88.904213 
L 297.09583 87.912215 
L 299.386681 212.680093 
L 301.677532 86.574157 
L 303.968384 86.216508 
L 306.259235 211.50895 
L 308.550087 84.290844 
L 310.840938 82.821025 
L 313.131789 207.099494 
L 315.422641 81.113241 
L 317.713492 81.996266 
L 320.004343 208.385895 
L 322.295195 81.91073 
L 324.586046 81.183852 
L 326.876898 206.612542 
L 329.167749 81.663768 
L 331.4586 82.46328 
L 333.749452 208.495016 
L 336.040303 82.746729 
L 338.331154 82.395178 
L 340.622006 207.416718 
L 342.912857 80.941683 
L 345.203709 80.353514 
L 347.49456 205.606049 
L 349.785411 79.426387 
L 352.076263 79.063055 
L 354.367114 204.44801 
L 356.657965 78.822437 
L 358.948817 79.266481 
L 361.239668 205.351309 
L 363.530519 79.603022 
L 365.821371 79.603022 
L 368.112222 205.288021 
L 370.403074 78.876061 
L 372.693925 78.212387 
L 374.984776 203.297001 
L 377.275628 76.679916 
L 379.566479 75.797438 
L 381.85733 201.363192 
L 384.148182 75.976626 
L 386.439033 76.338348 
L 388.729885 201.455502 
L 391.020736 74.577223 
L 393.311587 73.577853 
L 395.602439 198.357238 
L 397.89329 71.640047 
L 400.184141 72.348592 
L 402.474993 200.090262 
L 404.765844 76.335357 
L 407.056696 78.32874 
L 409.347547 204.931452 
L 411.638398 78.019298 
L 413.92925 76.855432 
L 416.220101 198.950553 
L 418.510952 68.264752 
L 420.801804 63.327239 
L 423.092655 184.138012 
L 425.383506 56.160257 
L 427.674358 54.453365 
L 429.965209 180.201652 
L 432.256061 54.453365 
L 434.546912 54.588039 
L 436.837763 182.288596 
L 439.128615 58.492577 
L 441.419466 60.444847 
L 443.710317 187.195102 
L 446.001169 60.349876 
L 448.29202 59.919335 
L 450.582872 186.232269 
L 452.873723 61.048629 
L 455.164574 61.613277 
L 457.455426 187.536969 
L 459.746277 61.788681 
L 462.037128 62.00958 
L 464.32798 188.178681 
L 466.618831 62.806489 
L 468.909683 61.94051 
L 471.200534 186.822819 
L 473.491385 60.380042 
L 475.782237 59.793092 
L 478.073088 184.954428 
L 480.363939 58.660914 
L 482.654791 59.023768 
L 484.945642 185.13491 
L 487.236494 59.8464 
L 489.527345 60.830605 
L 491.818196 187.563097 
L 494.109048 62.799015 
L 496.399899 62.20554 
L 498.69075 187.29774 
L 500.981602 60.893365 
L 503.272453 60.992512 
L 505.563304 187.068819 
L 507.854156 61.648552 
L 510.145007 60.968195 
L 512.435859 185.284073 
L 514.72671 58.103378 
L 517.017561 56.670969 
L 519.308413 183.503656 
L 521.599264 59.073665 
L 523.890115 60.391962 
L 526.180967 187.458545 
L 528.471818 57.22427 
L 530.76267 52.371155 
L 533.053521 173.266326 
L 535.344372 65.571783 
L 537.635224 138.083937 
L 539.926075 378.260475 
L 542.216926 135.294118 
L 544.507778 59.985159 
L 546.798629 163.821525 
L 549.089481 60.258601 
L 551.380332 134.839084 
L 553.671183 377.08395 
L 555.962035 136.425289 
L 558.252886 63.333977 
L 560.543737 168.386072 
L 562.834589 63.857688 
L 565.12544 136.686885 
L 567.416291 377.090875 
L 569.707143 135.459764 
L 571.997994 62.67693 
L 574.288846 211.226668 
L 576.579697 150.195926 
L 578.870548 214.770887 
L 581.1614 48.726958 
L 583.452251 50.347413 
L 585.743102 177.716154 
L 588.033954 51.660751 
L 590.324805 50.743315 
L 592.615657 175.574165 
L 594.906508 48.946011 
L 597.197359 48.141431 
L 599.488211 173.085139 
L 601.779062 67.49032 
L 604.069913 139.832635 
L 606.360765 379.560976 
L 608.651616 137.254216 
L 610.942468 63.103154 
L 613.233319 211.338622 
L 615.52417 149.993611 
L 617.815022 214.396888 
L 620.105873 48.261639 
L 622.396724 49.955538 
L 624.687576 177.669673 
L 626.978427 53.887235 
L 629.269278 54.752326 
L 631.56013 176.315742 
L 633.850981 67.340631 
L 636.141833 136.508928 
L 638.432684 373.341607 
L 640.723535 128.139185 
L 643.014387 54.453365 
L 645.305238 159.243604 
L 647.596089 54.453365 
L 649.886941 127.806532 
L 652.177792 369.30936 
L 654.468644 128.927868 
L 656.759495 56.210759 
L 659.050346 203.473745 
L 661.341198 141.065972 
L 663.632049 245.929946 
L 665.9229 139.829637 
L 668.213752 201.39371 
L 670.504603 53.377016 
L 672.795455 125.406714 
L 675.086306 365.100794 
L 677.377157 122.759774 
L 679.668009 47.553647 
L 681.95886 192.31676 
L 684.249711 127.499395 
L 686.540563 230.346412 
L 688.831414 124.250529 
L 691.122266 228.277645 
L 693.413117 122.724283 
L 695.703968 226.676103 
L 697.99482 121.027901 
L 700.285671 224.960177 
L 702.576522 119.509326 
L 704.867374 224.962371 
L 707.158225 120.834937 
L 709.449076 226.287982 
L 711.739928 122.160549 
L 714.030779 231.258617 
L 716.321631 136.55616 
L 718.612482 209.518086 
L 720.903333 51.941486 
L 723.194185 56.941174 
L 725.485036 184.914564 
L 727.775887 61.39138 
L 730.066739 63.616482 
L 732.35759 188.824526 
L 734.648442 62.157311 
L 736.939293 61.238383 
L 739.230144 186.078562 
L 741.520996 59.434947 
L 743.811847 58.539619 
L 746.102698 183.392579 
L 748.39355 56.582301 
L 750.684401 55.511031 
L 752.975253 222.104144 
L 755.266104 157.920794 
L 757.556955 254.745311 
L 759.847807 141.98935 
L 762.138658 238.813868 
L 764.429509 126.057907 
L 766.720361 225.282748 
L 769.011212 115.988893 
L 771.302063 216.275517 
L 773.592915 106.981663 
L 775.883766 211.424466 
L 778.174618 106.413441 
L 780.465469 210.982894 
L 782.75632 105.971869 
L 785.047172 215.017724 
L 787.338023 129.973181 
L 789.628874 212.593022 
L 791.919726 64.674336 
L 794.210577 84.420033 
L 796.501429 238.02505 
L 798.79228 98.394744 
L 801.083131 63.554678 
L 803.373983 154.462899 
L 805.664834 340.699732 
L 807.955685 160.179849 
L 810.246537 84.450206 
L 812.537388 134.468849 
L 814.82824 322.587904 
L 817.119091 183.303213 
L 817.119091 183.303213 
" clip-path="url(#pca9a95fcac)" style="fill: none; stroke: #1f77b4; stroke-width: 1.5; stroke-linecap: square"/>
   </g>
   <g id="line2d_18">
    <path d="M 95.500909 47.118048 
L 817.119091 47.118048 
L 817.119091 47.118048 
" clip-path="url(#pca9a95fcac)" style="fill: none; stroke-dasharray: 5.55,2.4; stroke-dashoffset: 0; stroke: #ff7f0e; stroke-width: 1.5"/>
   </g>
   <g id="patch_3">
    <path d="M 59.42 390.04 
L 59.42 26.16 
" style="fill: none; stroke: #000000; stroke-width: 0.8; stroke-linejoin: miter; stroke-linecap: square"/>
   </g>
   <g id="patch_4">
    <path d="M 853.2 390.04 
L 853.2 26.16 
" style="fill: none; stroke: #000000; stroke-width: 0.8; stroke-linejoin: miter; stroke-linecap: square"/>
   </g>
   <g id="patch_5">
    <path d="M 59.42 390.04 
L 853.2 390.04 
" style="fill: none; stroke: #000000; stroke-width: 0.8; stroke-linejoin: miter; stroke-linecap: square"/>
   </g>
   <g id="patch_6">
    <path d="M 59.42 26.16 
L 853.2 26.16 
" style="fill: none; stroke: #000000; stroke-width: 0.8; stroke-linejoin: miter; stroke-linecap: square"/>
   </g>
   <g id="text_19">
    <!-- Bombs used: 106 -->
    <g transform="translate(67.3578 35.577837)scale(0.1 -0.1)">
     <defs>
      <path id="DejaVuSans-42" d="M 1259 2228 
L 1259 519 
L 2272 519 
Q 2781 519 3026 730 
Q 3272 941 3272 1375 
Q 3272 1813 3026 2020 
Q 2781 2228 2272 2228 
L 1259 2228 
z
M 1259 4147 
L 1259 2741 
L 2194 2741 
Q 2656 2741 2882 2914 
Q 3109 3088 3109 3444 
Q 3109 3797 2882 3972 
Q 2656 4147 2194 4147 
L 1259 4147 
z
M 628 4666 
L 2241 4666 
Q 2963 4666 3353 4366 
Q 3744 4066 3744 3513 
Q 3744 3084 3544 2831 
Q 3344 2578 2956 2516 
Q 3422 2416 3680 2098 
Q 3938 1781 3938 1306 
Q 3938 681 3513 340 
Q 3088 0 2303 0 
L 628 0 
L 628 4666 
z
" transform="scale(0.015625)"/>
      <path id="DejaVuSans-62" d="M 3116 1747 
Q 3116 2381 2855 2742 
Q 2594 3103 2138 3103 
Q 1681 3103 1420 2742 
Q 1159 2381 1159 1747 
Q 1159 1113 1420 752 
Q 1681 391 2138 391 
Q 2594 391 2855 752 
Q 3116 1113 3116 1747 
z
M 1159 2969 
Q 1341 3281 1617 3432 
Q 1894 3584 2278 3584 
Q 2916 3584 3314 3078 
Q 3713 2572 3713 1747 
Q 3713 922 3314 415 
Q 2916 -91 2278 -91 
Q 1894 -91 1617 61 
Q 1341 213 1159 525 
L 1159 0 
L 581 0 
L 581 4863 
L 1159 4863 
L 1159 2969 
z
" transform="scale(0.015625)"/>
      <path id="DejaVuSans-75" d="M 544 1381 
L 544 3500 
L 1119 3500 
L 1119 1403 
Q 1119 906 1312 657 
Q 1506 409 1894 409 
Q 2359 409 2629 706 
Q 2900 1003 2900 1516 
L 2900 3500 
L 3475 3500 
L 3475 0 
L 2900 0 
L 2900 538 
Q 2691 219 2414 64 
Q 2138 -91 1772 -91 
Q 1169 -91 856 284 
Q 544 659 544 1381 
z
M 1991 3584 
L 1991 3584 
z
" transform="scale(0.015625)"/>
      <path id="DejaVuSans-64" d="M 2906 2969 
L 2906 4863 
L 3481 4863 
L 3481 0 
L 2906 0 
L 2906 525 
Q 2725 213 2448 61 
Q 2172 -91 1784 -91 
Q 1150 -91 751 415 
Q 353 922 353 1747 
Q 353 2572 751 3078 
Q 1150 3584 1784 3584 
Q 2172 3584 2448 3432 
Q 2725 3281 2906 2969 
z
M 947 1747 
Q 947 1113 1208 752 
Q 1469 391 1925 391 
Q 2381 391 2643 752 
Q 2906 1113 2906 1747 
Q 2906 2381 2643 2742 
Q 2381 3103 1925 3103 
Q 1469 3103 1208 2742 
Q 947 2381 947 1747 
z
" transform="scale(0.015625)"/>
      <path id="DejaVuSans-3a" d="M 750 794 
L 1409 794 
L 1409 0 
L 750 0 
L 750 794 
z
M 750 3309 
L 1409 3309 
L 1409 2516 
L 750 2516 
L 750 3309 
z
" transform="scale(0.015625)"/>
     </defs>
     <use xlink:href="#DejaVuSans-42"/>
     <use xlink:href="#DejaVuSans-6f" x="68.603516"/>
     <use xlink:href="#DejaVuSans-6d" x="129.785156"/>
     <use xlink:href="#DejaVuSans-62" x="227.197266"/>
     <use xlink:href="#DejaVuSans-73" x="290.673828"/>
     <use xlink:href="#DejaVuSans-20" x="342.773438"/>
     <use xlink:href="#DejaVuSans-75" x="374.560547"/>
     <use xlink:href="#DejaVuSans-73" x="437.939453"/>
     <use xlink:href="#DejaVuSans-65" x="490.039062"/>
     <use xlink:href="#DejaVuSans-64" x="551.5625"/>
     <use xlink:href="#DejaVuSans-3a" x="615.039062"/>
     <use xlink:href="#DejaVuSans-20" x="648.730469"/>
     <use xlink:href="#DejaVuSans-31" x="680.517578"/>
     <use xlink:href="#DejaVuSans-30" x="744.140625"/>
     <use xlink:href="#DejaVuSans-36" x="807.763672"/>
    </g>
   </g>
   <g id="text_20">
    <!-- Dirt removed: 72680.0 -->
    <g transform="translate(67.3578 44.674837)scale(0.1 -0.1)">
     <defs>
      <path id="DejaVuSans-72" d="M 2631 2963 
Q 2534 3019 2420 3045 
Q 2306 3072 2169 3072 
Q 1681 3072 1420 2755 
Q 1159 2438 1159 1844 
L 1159 0 
L 581 0 
L 581 3500 
L 1159 3500 
L 1159 2956 
Q 1341 3275 1631 3429 
Q 1922 3584 2338 3584 
Q 2397 3584 2469 3576 
Q 2541 3569 2628 3553 
L 2631 2963 
z
" transform="scale(0.015625)"/>
      <path id="DejaVuSans-76" d="M 191 3500 
L 800 3500 
L 1894 563 
L 2988 3500 
L 3597 3500 
L 2284 0 
L 1503 0 
L 191 3500 
z
" transform="scale(0.015625)"/>
      <path id="DejaVuSans-2e" d="M 684 794 
L 1344 794 
L 1344 0 
L 684 0 
L 684 794 
z
" transform="scale(0.015625)"/>
     </defs>
     <use xlink:href="#DejaVuSans-44"/>
     <use xlink:href="#DejaVuSans-69" x="77.001953"/>
     <use xlink:href="#DejaVuSans-72" x="104.785156"/>
     <use xlink:href="#DejaVuSans-74" x="145.898438"/>
     <use xlink:href="#DejaVuSans-20" x="185.107422"/>
     <use xlink:href="#DejaVuSans-72" x="216.894531"/>
     <use xlink:href="#DejaVuSans-65" x="255.757812"/>
     <use xlink:href="#DejaVuSans-6d" x="317.28125"/>
     <use xlink:href="#DejaVuSans-6f" x="414.693359"/>
     <use xlink:href="#DejaVuSans-76" x="475.875"/>
     <use xlink:href="#DejaVuSans-65" x="535.054688"/>
     <use xlink:href="#DejaVuSans-64" x="596.578125"/>
     <use xlink:href="#DejaVuSans-3a" x="660.054688"/>
     <use xlink:href="#DejaVuSans-20" x="693.746094"/>
     <use xlink:href="#DejaVuSans-37" x="725.533203"/>
     <use xlink:href="#DejaVuSans-32" x="789.15625"/>
     <use xlink:href="#DejaVuSans-36" x="852.779297"/>
     <use xlink:href="#DejaVuSans-38" x="916.402344"/>
     <use xlink:href="#DejaVuSans-30" x="980.025391"/>
     <use xlink:href="#DejaVuSans-2e" x="1043.648438"/>
     <use xlink:href="#DejaVuSans-30" x="1075.435547"/>
    </g>
   </g>
   <g id="text_21">
    <!-- Bomb placement and depths with obj. function 2 and 3 bomb types -->
    <g transform="translate(253.300938 20.16)scale(0.12 -0.12)">
     <defs>
      <path id="DejaVuSans-77" d="M 269 3500 
L 844 3500 
L 1563 769 
L 2278 3500 
L 2956 3500 
L 3675 769 
L 4391 3500 
L 4966 3500 
L 4050 0 
L 3372 0 
L 2619 2869 
L 1863 0 
L 1184 0 
L 269 3500 
z
" transform="scale(0.015625)"/>
      <path id="DejaVuSans-6a" d="M 603 3500 
L 1178 3500 
L 1178 -63 
Q 1178 -731 923 -1031 
Q 669 -1331 103 -1331 
L -116 -1331 
L -116 -844 
L 38 -844 
Q 366 -844 484 -692 
Q 603 -541 603 -63 
L 603 3500 
z
M 603 4863 
L 1178 4863 
L 1178 4134 
L 603 4134 
L 603 4863 
z
" transform="scale(0.015625)"/>
      <path id="DejaVuSans-79" d="M 2059 -325 
Q 1816 -950 1584 -1140 
Q 1353 -1331 966 -1331 
L 506 -1331 
L 506 -850 
L 844 -850 
Q 1081 -850 1212 -737 
Q 1344 -625 1503 -206 
L 1606 56 
L 191 3500 
L 800 3500 
L 1894 763 
L 2988 3500 
L 3597 3500 
L 2059 -325 
z
" transform="scale(0.015625)"/>
     </defs>
     <use xlink:href="#DejaVuSans-42"/>
     <use xlink:href="#DejaVuSans-6f" x="68.603516"/>
     <use xlink:href="#DejaVuSans-6d" x="129.785156"/>
     <use xlink:href="#DejaVuSans-62" x="227.197266"/>
     <use xlink:href="#DejaVuSans-20" x="290.673828"/>
     <use xlink:href="#DejaVuSans-70" x="322.460938"/>
     <use xlink:href="#DejaVuSans-6c" x="385.9375"/>
     <use xlink:href="#DejaVuSans-61" x="413.720703"/>
     <use xlink:href="#DejaVuSans-63" x="475"/>
     <use xlink:href="#DejaVuSans-65" x="529.980469"/>
     <use xlink:href="#DejaVuSans-6d" x="591.503906"/>
     <use xlink:href="#DejaVuSans-65" x="688.916016"/>
     <use xlink:href="#DejaVuSans-6e" x="750.439453"/>
     <use xlink:href="#DejaVuSans-74" x="813.818359"/>
     <use xlink:href="#DejaVuSans-20" x="853.027344"/>
     <use xlink:href="#DejaVuSans-61" x="884.814453"/>
     <use xlink:href="#DejaVuSans-6e" x="946.09375"/>
     <use xlink:href="#DejaVuSans-64" x="1009.472656"/>
     <use xlink:href="#DejaVuSans-20" x="1072.949219"/>
     <use xlink:href="#DejaVuSans-64" x="1104.736328"/>
     <use xlink:href="#DejaVuSans-65" x="1168.212891"/>
     <use xlink:href="#DejaVuSans-70" x="1229.736328"/>
     <use xlink:href="#DejaVuSans-74" x="1293.212891"/>
     <use xlink:href="#DejaVuSans-68" x="1332.421875"/>
     <use xlink:href="#DejaVuSans-73" x="1395.800781"/>
     <use xlink:href="#DejaVuSans-20" x="1447.900391"/>
     <use xlink:href="#DejaVuSans-77" x="1479.6875"/>
     <use xlink:href="#DejaVuSans-69" x="1561.474609"/>
     <use xlink:href="#DejaVuSans-74" x="1589.257812"/>
     <use xlink:href="#DejaVuSans-68" x="1628.466797"/>
     <use xlink:href="#DejaVuSans-20" x="1691.845703"/>
     <use xlink:href="#DejaVuSans-6f" x="1723.632812"/>
     <use xlink:href="#DejaVuSans-62" x="1784.814453"/>
     <use xlink:href="#DejaVuSans-6a" x="1848.291016"/>
     <use xlink:href="#DejaVuSans-2e" x="1876.074219"/>
     <use xlink:href="#DejaVuSans-20" x="1907.861328"/>
     <use xlink:href="#DejaVuSans-66" x="1939.648438"/>
     <use xlink:href="#DejaVuSans-75" x="1974.853516"/>
     <use xlink:href="#DejaVuSans-6e" x="2038.232422"/>
     <use xlink:href="#DejaVuSans-63" x="2101.611328"/>
     <use xlink:href="#DejaVuSans-74" x="2156.591797"/>
     <use xlink:href="#DejaVuSans-69" x="2195.800781"/>
     <use xlink:href="#DejaVuSans-6f" x="2223.583984"/>
     <use xlink:href="#DejaVuSans-6e" x="2284.765625"/>
     <use xlink:href="#DejaVuSans-20" x="2348.144531"/>
     <use xlink:href="#DejaVuSans-32" x="2379.931641"/>
     <use xlink:href="#DejaVuSans-20" x="2443.554688"/>
     <use xlink:href="#DejaVuSans-61" x="2475.341797"/>
     <use xlink:href="#DejaVuSans-6e" x="2536.621094"/>
     <use xlink:href="#DejaVuSans-64" x="2600"/>
     <use xlink:href="#DejaVuSans-20" x="2663.476562"/>
     <use xlink:href="#DejaVuSans-33" x="2695.263672"/>
     <use xlink:href="#DejaVuSans-20" x="2758.886719"/>
     <use xlink:href="#DejaVuSans-62" x="2790.673828"/>
     <use xlink:href="#DejaVuSans-6f" x="2854.150391"/>
     <use xlink:href="#DejaVuSans-6d" x="2915.332031"/>
     <use xlink:href="#DejaVuSans-62" x="3012.744141"/>
     <use xlink:href="#DejaVuSans-20" x="3076.220703"/>
     <use xlink:href="#DejaVuSans-74" x="3108.007812"/>
     <use xlink:href="#DejaVuSans-79" x="3147.216797"/>
     <use xlink:href="#DejaVuSans-70" x="3206.396484"/>
     <use xlink:href="#DejaVuSans-65" x="3269.873047"/>
     <use xlink:href="#DejaVuSans-73" x="3331.396484"/>
    </g>
   </g>
   <g id="legend_1">
    <g id="patch_7">
     <path d="M 335.104531 385.04 
L 577.515469 385.04 
Q 579.515469 385.04 579.515469 383.04 
L 579.515469 310.37125 
Q 579.515469 308.37125 577.515469 308.37125 
L 335.104531 308.37125 
Q 333.104531 308.37125 333.104531 310.37125 
L 333.104531 383.04 
Q 333.104531 385.04 335.104531 385.04 
z
" style="fill: #ffffff; opacity: 0.8; stroke: #cccccc; stroke-linejoin: miter"/>
    </g>
    <g id="line2d_19">
     <path d="M 337.104531 316.469687 
L 347.104531 316.469687 
L 357.104531 316.469687 
" style="fill: none; stroke: #1f77b4; stroke-width: 1.5; stroke-linecap: square"/>
    </g>
    <g id="text_22">
     <!-- Depth with 2. objective and 3 bomb types -->
     <g transform="translate(365.104531 319.969687)scale(0.1 -0.1)">
      <use xlink:href="#DejaVuSans-44"/>
      <use xlink:href="#DejaVuSans-65" x="77.001953"/>
      <use xlink:href="#DejaVuSans-70" x="138.525391"/>
      <use xlink:href="#DejaVuSans-74" x="202.001953"/>
      <use xlink:href="#DejaVuSans-68" x="241.210938"/>
      <use xlink:href="#DejaVuSans-20" x="304.589844"/>
      <use xlink:href="#DejaVuSans-77" x="336.376953"/>
      <use xlink:href="#DejaVuSans-69" x="418.164062"/>
      <use xlink:href="#DejaVuSans-74" x="445.947266"/>
      <use xlink:href="#DejaVuSans-68" x="485.15625"/>
      <use xlink:href="#DejaVuSans-20" x="548.535156"/>
      <use xlink:href="#DejaVuSans-32" x="580.322266"/>
      <use xlink:href="#DejaVuSans-2e" x="643.945312"/>
      <use xlink:href="#DejaVuSans-20" x="675.732422"/>
      <use xlink:href="#DejaVuSans-6f" x="707.519531"/>
      <use xlink:href="#DejaVuSans-62" x="768.701172"/>
      <use xlink:href="#DejaVuSans-6a" x="832.177734"/>
      <use xlink:href="#DejaVuSans-65" x="859.960938"/>
      <use xlink:href="#DejaVuSans-63" x="921.484375"/>
      <use xlink:href="#DejaVuSans-74" x="976.464844"/>
      <use xlink:href="#DejaVuSans-69" x="1015.673828"/>
      <use xlink:href="#DejaVuSans-76" x="1043.457031"/>
      <use xlink:href="#DejaVuSans-65" x="1102.636719"/>
      <use xlink:href="#DejaVuSans-20" x="1164.160156"/>
      <use xlink:href="#DejaVuSans-61" x="1195.947266"/>
      <use xlink:href="#DejaVuSans-6e" x="1257.226562"/>
      <use xlink:href="#DejaVuSans-64" x="1320.605469"/>
      <use xlink:href="#DejaVuSans-20" x="1384.082031"/>
      <use xlink:href="#DejaVuSans-33" x="1415.869141"/>
      <use xlink:href="#DejaVuSans-20" x="1479.492188"/>
      <use xlink:href="#DejaVuSans-62" x="1511.279297"/>
      <use xlink:href="#DejaVuSans-6f" x="1574.755859"/>
      <use xlink:href="#DejaVuSans-6d" x="1635.9375"/>
      <use xlink:href="#DejaVuSans-62" x="1733.349609"/>
      <use xlink:href="#DejaVuSans-20" x="1796.826172"/>
      <use xlink:href="#DejaVuSans-74" x="1828.613281"/>
      <use xlink:href="#DejaVuSans-79" x="1867.822266"/>
      <use xlink:href="#DejaVuSans-70" x="1927.001953"/>
      <use xlink:href="#DejaVuSans-65" x="1990.478516"/>
      <use xlink:href="#DejaVuSans-73" x="2052.001953"/>
     </g>
    </g>
    <g id="line2d_20">
     <path d="M 337.104531 331.147812 
L 347.104531 331.147812 
L 357.104531 331.147812 
" style="fill: none; stroke-dasharray: 5.55,2.4; stroke-dashoffset: 0; stroke: #ff7f0e; stroke-width: 1.5"/>
    </g>
    <g id="text_23">
     <!-- min_depth -->
     <g transform="translate(365.104531 334.647812)scale(0.1 -0.1)">
      <defs>
       <path id="DejaVuSans-5f" d="M 3263 -1063 
L 3263 -1509 
L -63 -1509 
L -63 -1063 
L 3263 -1063 
z
" transform="scale(0.015625)"/>
      </defs>
      <use xlink:href="#DejaVuSans-6d"/>
      <use xlink:href="#DejaVuSans-69" x="97.412109"/>
      <use xlink:href="#DejaVuSans-6e" x="125.195312"/>
      <use xlink:href="#DejaVuSans-5f" x="188.574219"/>
      <use xlink:href="#DejaVuSans-64" x="238.574219"/>
      <use xlink:href="#DejaVuSans-65" x="302.050781"/>
      <use xlink:href="#DejaVuSans-70" x="363.574219"/>
      <use xlink:href="#DejaVuSans-74" x="427.050781"/>
      <use xlink:href="#DejaVuSans-68" x="466.259766"/>
     </g>
    </g>
    <g id="PathCollection_4">
     <g>
      <use xlink:href="#m084fc84dc9" x="347.104531" y="346.979062" style="fill: #008000; stroke: #008000"/>
     </g>
    </g>
    <g id="text_24">
     <!-- Bomb 1 -->
     <g transform="translate(365.104531 349.604062)scale(0.1 -0.1)">
      <use xlink:href="#DejaVuSans-42"/>
      <use xlink:href="#DejaVuSans-6f" x="68.603516"/>
      <use xlink:href="#DejaVuSans-6d" x="129.785156"/>
      <use xlink:href="#DejaVuSans-62" x="227.197266"/>
      <use xlink:href="#DejaVuSans-20" x="290.673828"/>
      <use xlink:href="#DejaVuSans-31" x="322.460938"/>
     </g>
    </g>
    <g id="PathCollection_5">
     <g>
      <use xlink:href="#m92e19c7ea2" x="347.104531" y="361.657187" style="fill: #ff0000; stroke: #ff0000"/>
     </g>
    </g>
    <g id="text_25">
     <!-- Bomb 2 -->
     <g transform="translate(365.104531 364.282187)scale(0.1 -0.1)">
      <use xlink:href="#DejaVuSans-42"/>
      <use xlink:href="#DejaVuSans-6f" x="68.603516"/>
      <use xlink:href="#DejaVuSans-6d" x="129.785156"/>
      <use xlink:href="#DejaVuSans-62" x="227.197266"/>
      <use xlink:href="#DejaVuSans-20" x="290.673828"/>
      <use xlink:href="#DejaVuSans-32" x="322.460938"/>
     </g>
    </g>
    <g id="PathCollection_6">
     <defs>
      <path id="mda438b2193" d="M 0 1.581139 
C 0.419323 1.581139 0.821528 1.41454 1.118034 1.118034 
C 1.41454 0.821528 1.581139 0.419323 1.581139 0 
C 1.581139 -0.419323 1.41454 -0.821528 1.118034 -1.118034 
C 0.821528 -1.41454 0.419323 -1.581139 0 -1.581139 
C -0.419323 -1.581139 -0.821528 -1.41454 -1.118034 -1.118034 
C -1.41454 -0.821528 -1.581139 -0.419323 -1.581139 0 
C -1.581139 0.419323 -1.41454 0.821528 -1.118034 1.118034 
C -0.821528 1.41454 -0.419323 1.581139 0 1.581139 
z
" style="stroke: #000000"/>
     </defs>
     <g>
      <use xlink:href="#mda438b2193" x="347.104531" y="376.335312" style="stroke: #000000"/>
     </g>
    </g>
    <g id="text_26">
     <!-- Bomb 3 -->
     <g transform="translate(365.104531 378.960312)scale(0.1 -0.1)">
      <use xlink:href="#DejaVuSans-42"/>
      <use xlink:href="#DejaVuSans-6f" x="68.603516"/>
      <use xlink:href="#DejaVuSans-6d" x="129.785156"/>
      <use xlink:href="#DejaVuSans-62" x="227.197266"/>
      <use xlink:href="#DejaVuSans-20" x="290.673828"/>
      <use xlink:href="#DejaVuSans-33" x="322.460938"/>
     </g>
    </g>
   </g>
  </g>
 </g>
 <defs>
  <clipPath id="pca9a95fcac">
   <rect x="59.42" y="26.16" width="793.78" height="363.88"/>
  </clipPath>
 </defs>
</svg>
