<?xml version="1.0" encoding="utf-8" standalone="no"?>
<!DOCTYPE svg PUBLIC "-//W3C//DTD SVG 1.1//EN"
  "http://www.w3.org/Graphics/SVG/1.1/DTD/svg11.dtd">
<svg xmlns:xlink="http://www.w3.org/1999/xlink" width="460.8pt" height="345.6pt" viewBox="0 0 460.8 345.6" xmlns="http://www.w3.org/2000/svg" version="1.1">
 <metadata>
  <rdf:RDF xmlns:dc="http://purl.org/dc/elements/1.1/" xmlns:cc="http://creativecommons.org/ns#" xmlns:rdf="http://www.w3.org/1999/02/22-rdf-syntax-ns#">
   <cc:Work>
    <dc:type rdf:resource="http://purl.org/dc/dcmitype/StillImage"/>
    <dc:date>2024-04-02T11:53:56.314697</dc:date>
    <dc:format>image/svg+xml</dc:format>
    <dc:creator>
     <cc:Agent>
      <dc:title>Matplotlib v3.5.3, https://matplotlib.org/</dc:title>
     </cc:Agent>
    </dc:creator>
   </cc:Work>
  </rdf:RDF>
 </metadata>
 <defs>
  <style type="text/css">*{stroke-linejoin: round; stroke-linecap: butt}</style>
 </defs>
 <g id="figure_1">
  <g id="patch_1">
   <path d="M 0 345.6 
L 460.8 345.6 
L 460.8 0 
L 0 0 
z
" style="fill: #ffffff"/>
  </g>
  <g id="axes_1">
   <g id="patch_2">
    <path d="M 57.6 307.584 
L 414.72 307.584 
L 414.72 41.472 
L 57.6 41.472 
z
" style="fill: #ffffff"/>
   </g>
   <g id="PathCollection_1">
    <defs>
     <path id="mfc27adacc3" d="M 0 1.581139 
C 0.419323 1.581139 0.821528 1.41454 1.118034 1.118034 
C 1.41454 0.821528 1.581139 0.419323 1.581139 0 
C 1.581139 -0.419323 1.41454 -0.821528 1.118034 -1.118034 
C 0.821528 -1.41454 0.419323 -1.581139 0 -1.581139 
C -0.419323 -1.581139 -0.821528 -1.41454 -1.118034 -1.118034 
C -1.41454 -0.821528 -1.581139 -0.419323 -1.581139 0 
C -1.581139 0.419323 -1.41454 0.821528 -1.118034 1.118034 
C -0.821528 1.41454 -0.419323 1.581139 0 1.581139 
z
" style="stroke: #008000"/>
    </defs>
    <g clip-path="url(#p324e0e4962)">
     <use xlink:href="#mfc27adacc3" x="75.894026" y="290.118425" style="fill: #008000; stroke: #008000"/>
     <use xlink:href="#mfc27adacc3" x="81.047273" y="276.694488" style="fill: #008000; stroke: #008000"/>
     <use xlink:href="#mfc27adacc3" x="86.200519" y="270.51065" style="fill: #008000; stroke: #008000"/>
     <use xlink:href="#mfc27adacc3" x="91.353766" y="270.133388" style="fill: #008000; stroke: #008000"/>
     <use xlink:href="#mfc27adacc3" x="96.507013" y="265.342918" style="fill: #008000; stroke: #008000"/>
     <use xlink:href="#mfc27adacc3" x="100.62961" y="258.741018" style="fill: #008000; stroke: #008000"/>
     <use xlink:href="#mfc27adacc3" x="104.752208" y="255.366331" style="fill: #008000; stroke: #008000"/>
     <use xlink:href="#mfc27adacc3" x="108.874805" y="253.628737" style="fill: #008000; stroke: #008000"/>
     <use xlink:href="#mfc27adacc3" x="112.997403" y="248.753559" style="fill: #008000; stroke: #008000"/>
     <use xlink:href="#mfc27adacc3" x="116.089351" y="241.775468" style="fill: #008000; stroke: #008000"/>
     <use xlink:href="#mfc27adacc3" x="120.211948" y="232.034206" style="fill: #008000; stroke: #008000"/>
     <use xlink:href="#mfc27adacc3" x="124.334545" y="231.0821" style="fill: #008000; stroke: #008000"/>
     <use xlink:href="#mfc27adacc3" x="128.457143" y="202.971256" style="fill: #008000; stroke: #008000"/>
     <use xlink:href="#mfc27adacc3" x="131.549091" y="184.512657" style="fill: #008000; stroke: #008000"/>
     <use xlink:href="#mfc27adacc3" x="134.641039" y="177.969734" style="fill: #008000; stroke: #008000"/>
     <use xlink:href="#mfc27adacc3" x="137.732987" y="179.921245" style="fill: #008000; stroke: #008000"/>
     <use xlink:href="#mfc27adacc3" x="140.824935" y="178.110801" style="fill: #008000; stroke: #008000"/>
     <use xlink:href="#mfc27adacc3" x="143.916883" y="176.281083" style="fill: #008000; stroke: #008000"/>
     <use xlink:href="#mfc27adacc3" x="147.008831" y="170.885269" style="fill: #008000; stroke: #008000"/>
     <use xlink:href="#mfc27adacc3" x="150.100779" y="167.623094" style="fill: #008000; stroke: #008000"/>
     <use xlink:href="#mfc27adacc3" x="153.192727" y="162.529033" style="fill: #008000; stroke: #008000"/>
     <use xlink:href="#mfc27adacc3" x="156.284675" y="154.014807" style="fill: #008000; stroke: #008000"/>
     <use xlink:href="#mfc27adacc3" x="159.376623" y="150.677578" style="fill: #008000; stroke: #008000"/>
     <use xlink:href="#mfc27adacc3" x="162.468571" y="149.161588" style="fill: #008000; stroke: #008000"/>
     <use xlink:href="#mfc27adacc3" x="165.560519" y="146.145199" style="fill: #008000; stroke: #008000"/>
     <use xlink:href="#mfc27adacc3" x="168.652468" y="144.880816" style="fill: #008000; stroke: #008000"/>
     <use xlink:href="#mfc27adacc3" x="171.744416" y="140.120299" style="fill: #008000; stroke: #008000"/>
     <use xlink:href="#mfc27adacc3" x="174.836364" y="141.509118" style="fill: #008000; stroke: #008000"/>
     <use xlink:href="#mfc27adacc3" x="177.928312" y="139.594579" style="fill: #008000; stroke: #008000"/>
     <use xlink:href="#mfc27adacc3" x="181.02026" y="141.626927" style="fill: #008000; stroke: #008000"/>
     <use xlink:href="#mfc27adacc3" x="184.112208" y="140.462779" style="fill: #008000; stroke: #008000"/>
     <use xlink:href="#mfc27adacc3" x="187.204156" y="138.507954" style="fill: #008000; stroke: #008000"/>
     <use xlink:href="#mfc27adacc3" x="190.296104" y="137.257717" style="fill: #008000; stroke: #008000"/>
     <use xlink:href="#mfc27adacc3" x="193.388052" y="138.232933" style="fill: #008000; stroke: #008000"/>
     <use xlink:href="#mfc27adacc3" x="196.48" y="138.164606" style="fill: #008000; stroke: #008000"/>
     <use xlink:href="#mfc27adacc3" x="199.571948" y="136.01507" style="fill: #008000; stroke: #008000"/>
     <use xlink:href="#mfc27adacc3" x="202.663896" y="133.927301" style="fill: #008000; stroke: #008000"/>
     <use xlink:href="#mfc27adacc3" x="205.755844" y="134.02696" style="fill: #008000; stroke: #008000"/>
     <use xlink:href="#mfc27adacc3" x="208.847792" y="130.682026" style="fill: #008000; stroke: #008000"/>
     <use xlink:href="#mfc27adacc3" x="211.93974" y="132.553026" style="fill: #008000; stroke: #008000"/>
     <use xlink:href="#mfc27adacc3" x="215.031688" y="137.779648" style="fill: #008000; stroke: #008000"/>
     <use xlink:href="#mfc27adacc3" x="218.123636" y="131.322578" style="fill: #008000; stroke: #008000"/>
     <use xlink:href="#mfc27adacc3" x="221.215584" y="115.330733" style="fill: #008000; stroke: #008000"/>
     <use xlink:href="#mfc27adacc3" x="224.307532" y="111.080979" style="fill: #008000; stroke: #008000"/>
     <use xlink:href="#mfc27adacc3" x="227.399481" y="113.334075" style="fill: #008000; stroke: #008000"/>
     <use xlink:href="#mfc27adacc3" x="230.491429" y="118.631214" style="fill: #008000; stroke: #008000"/>
     <use xlink:href="#mfc27adacc3" x="233.583377" y="117.591725" style="fill: #008000; stroke: #008000"/>
     <use xlink:href="#mfc27adacc3" x="236.675325" y="119.000298" style="fill: #008000; stroke: #008000"/>
     <use xlink:href="#mfc27adacc3" x="239.767273" y="119.693101" style="fill: #008000; stroke: #008000"/>
     <use xlink:href="#mfc27adacc3" x="242.859221" y="118.229292" style="fill: #008000; stroke: #008000"/>
     <use xlink:href="#mfc27adacc3" x="245.951169" y="116.212149" style="fill: #008000; stroke: #008000"/>
     <use xlink:href="#mfc27adacc3" x="249.043117" y="116.406999" style="fill: #008000; stroke: #008000"/>
     <use xlink:href="#mfc27adacc3" x="252.135065" y="119.028507" style="fill: #008000; stroke: #008000"/>
     <use xlink:href="#mfc27adacc3" x="255.227013" y="118.742024" style="fill: #008000; stroke: #008000"/>
     <use xlink:href="#mfc27adacc3" x="258.318961" y="118.494877" style="fill: #008000; stroke: #008000"/>
     <use xlink:href="#mfc27adacc3" x="261.410909" y="116.568038" style="fill: #008000; stroke: #008000"/>
     <use xlink:href="#mfc27adacc3" x="264.502857" y="114.645873" style="fill: #008000; stroke: #008000"/>
     <use xlink:href="#mfc27adacc3" x="267.594805" y="118.915631" style="fill: #008000; stroke: #008000"/>
     <use xlink:href="#mfc27adacc3" x="270.686753" y="103.593495" style="fill: #008000; stroke: #008000"/>
     <use xlink:href="#mfc27adacc3" x="272.748052" y="99.549994" style="fill: #008000; stroke: #008000"/>
     <use xlink:href="#mfc27adacc3" x="274.809351" y="96.538063" style="fill: #008000; stroke: #008000"/>
     <use xlink:href="#mfc27adacc3" x="276.870649" y="93.396743" style="fill: #008000; stroke: #008000"/>
     <use xlink:href="#mfc27adacc3" x="278.931948" y="96.0468" style="fill: #008000; stroke: #008000"/>
     <use xlink:href="#mfc27adacc3" x="280.993247" y="97.759291" style="fill: #008000; stroke: #008000"/>
     <use xlink:href="#mfc27adacc3" x="283.054545" y="98.324698" style="fill: #008000; stroke: #008000"/>
     <use xlink:href="#mfc27adacc3" x="285.115844" y="98.041715" style="fill: #008000; stroke: #008000"/>
     <use xlink:href="#mfc27adacc3" x="287.177143" y="96.716896" style="fill: #008000; stroke: #008000"/>
     <use xlink:href="#mfc27adacc3" x="289.238442" y="99.322802" style="fill: #008000; stroke: #008000"/>
     <use xlink:href="#mfc27adacc3" x="291.29974" y="103.149195" style="fill: #008000; stroke: #008000"/>
     <use xlink:href="#mfc27adacc3" x="294.391688" y="108.397598" style="fill: #008000; stroke: #008000"/>
     <use xlink:href="#mfc27adacc3" x="297.483636" y="106.085073" style="fill: #008000; stroke: #008000"/>
     <use xlink:href="#mfc27adacc3" x="300.575584" y="103.397882" style="fill: #008000; stroke: #008000"/>
     <use xlink:href="#mfc27adacc3" x="302.636883" y="101.437914" style="fill: #008000; stroke: #008000"/>
     <use xlink:href="#mfc27adacc3" x="304.698182" y="98.654214" style="fill: #008000; stroke: #008000"/>
     <use xlink:href="#mfc27adacc3" x="306.759481" y="99.44367" style="fill: #008000; stroke: #008000"/>
     <use xlink:href="#mfc27adacc3" x="308.820779" y="102.745421" style="fill: #008000; stroke: #008000"/>
     <use xlink:href="#mfc27adacc3" x="311.912727" y="108.347416" style="fill: #008000; stroke: #008000"/>
     <use xlink:href="#mfc27adacc3" x="315.004675" y="106.885691" style="fill: #008000; stroke: #008000"/>
     <use xlink:href="#mfc27adacc3" x="317.065974" y="97.849589" style="fill: #008000; stroke: #008000"/>
     <use xlink:href="#mfc27adacc3" x="319.127273" y="88.813487" style="fill: #008000; stroke: #008000"/>
     <use xlink:href="#mfc27adacc3" x="321.188571" y="88.45435" style="fill: #008000; stroke: #008000"/>
     <use xlink:href="#mfc27adacc3" x="323.24987" y="88.45435" style="fill: #008000; stroke: #008000"/>
     <use xlink:href="#mfc27adacc3" x="325.311169" y="89.664961" style="fill: #008000; stroke: #008000"/>
     <use xlink:href="#mfc27adacc3" x="327.372468" y="90.952629" style="fill: #008000; stroke: #008000"/>
     <use xlink:href="#mfc27adacc3" x="329.433766" y="91.535735" style="fill: #008000; stroke: #008000"/>
     <use xlink:href="#mfc27adacc3" x="331.495065" y="88.706991" style="fill: #008000; stroke: #008000"/>
     <use xlink:href="#mfc27adacc3" x="333.556364" y="85.863469" style="fill: #008000; stroke: #008000"/>
     <use xlink:href="#mfc27adacc3" x="335.617662" y="83.005793" style="fill: #008000; stroke: #008000"/>
     <use xlink:href="#mfc27adacc3" x="337.678961" y="78.907378" style="fill: #008000; stroke: #008000"/>
     <use xlink:href="#mfc27adacc3" x="339.74026" y="74.711514" style="fill: #008000; stroke: #008000"/>
     <use xlink:href="#mfc27adacc3" x="341.801558" y="72.478041" style="fill: #008000; stroke: #008000"/>
     <use xlink:href="#mfc27adacc3" x="343.862857" y="70.748992" style="fill: #008000; stroke: #008000"/>
     <use xlink:href="#mfc27adacc3" x="345.924156" y="68.896452" style="fill: #008000; stroke: #008000"/>
     <use xlink:href="#mfc27adacc3" x="347.985455" y="68.89882" style="fill: #008000; stroke: #008000"/>
     <use xlink:href="#mfc27adacc3" x="350.046753" y="70.329971" style="fill: #008000; stroke: #008000"/>
     <use xlink:href="#mfc27adacc3" x="352.108052" y="75.696343" style="fill: #008000; stroke: #008000"/>
     <use xlink:href="#mfc27adacc3" x="354.169351" y="97.478192" style="fill: #008000; stroke: #008000"/>
     <use xlink:href="#mfc27adacc3" x="357.261299" y="116.169111" style="fill: #008000; stroke: #008000"/>
     <use xlink:href="#mfc27adacc3" x="360.353247" y="120.390365" style="fill: #008000; stroke: #008000"/>
     <use xlink:href="#mfc27adacc3" x="363.445195" y="117.425781" style="fill: #008000; stroke: #008000"/>
     <use xlink:href="#mfc27adacc3" x="366.537143" y="114.525952" style="fill: #008000; stroke: #008000"/>
     <use xlink:href="#mfc27adacc3" x="369.629091" y="111.066292" style="fill: #008000; stroke: #008000"/>
     <use xlink:href="#mfc27adacc3" x="372.721039" y="92.453023" style="fill: #008000; stroke: #008000"/>
     <use xlink:href="#mfc27adacc3" x="373.751688" y="83.853108" style="fill: #008000; stroke: #008000"/>
     <use xlink:href="#mfc27adacc3" x="376.843636" y="64.382533" style="fill: #008000; stroke: #008000"/>
     <use xlink:href="#mfc27adacc3" x="377.874286" y="59.520361" style="fill: #008000; stroke: #008000"/>
     <use xlink:href="#mfc27adacc3" x="379.935584" y="54.283092" style="fill: #008000; stroke: #008000"/>
     <use xlink:href="#mfc27adacc3" x="381.996883" y="53.806364" style="fill: #008000; stroke: #008000"/>
     <use xlink:href="#mfc27adacc3" x="384.058182" y="58.162428" style="fill: #008000; stroke: #008000"/>
     <use xlink:href="#mfc27adacc3" x="386.119481" y="100.797939" style="fill: #008000; stroke: #008000"/>
     <use xlink:href="#mfc27adacc3" x="389.211429" y="173.508002" style="fill: #008000; stroke: #008000"/>
     <use xlink:href="#mfc27adacc3" x="393.334026" y="284.357156" style="fill: #008000; stroke: #008000"/>
     <use xlink:href="#mfc27adacc3" x="396.425974" y="242.720174" style="fill: #008000; stroke: #008000"/>
    </g>
   </g>
   <g id="matplotlib.axis_1">
    <g id="xtick_1">
     <g id="line2d_1">
      <defs>
       <path id="m1542c41a23" d="M 0 0 
L 0 3.5 
" style="stroke: #000000; stroke-width: 0.8"/>
      </defs>
      <g>
       <use xlink:href="#m1542c41a23" x="73.832727" y="307.584" style="stroke: #000000; stroke-width: 0.8"/>
      </g>
     </g>
     <g id="text_1">
      <!-- 0 -->
      <g transform="translate(70.651477 322.182437)scale(0.1 -0.1)">
       <defs>
        <path id="DejaVuSans-30" d="M 2034 4250 
Q 1547 4250 1301 3770 
Q 1056 3291 1056 2328 
Q 1056 1369 1301 889 
Q 1547 409 2034 409 
Q 2525 409 2770 889 
Q 3016 1369 3016 2328 
Q 3016 3291 2770 3770 
Q 2525 4250 2034 4250 
z
M 2034 4750 
Q 2819 4750 3233 4129 
Q 3647 3509 3647 2328 
Q 3647 1150 3233 529 
Q 2819 -91 2034 -91 
Q 1250 -91 836 529 
Q 422 1150 422 2328 
Q 422 3509 836 4129 
Q 1250 4750 2034 4750 
z
" transform="scale(0.015625)"/>
       </defs>
       <use xlink:href="#DejaVuSans-30"/>
      </g>
     </g>
    </g>
    <g id="xtick_2">
     <g id="line2d_2">
      <g>
       <use xlink:href="#m1542c41a23" x="115.058701" y="307.584" style="stroke: #000000; stroke-width: 0.8"/>
      </g>
     </g>
     <g id="text_2">
      <!-- 10000 -->
      <g transform="translate(99.152451 322.182437)scale(0.1 -0.1)">
       <defs>
        <path id="DejaVuSans-31" d="M 794 531 
L 1825 531 
L 1825 4091 
L 703 3866 
L 703 4441 
L 1819 4666 
L 2450 4666 
L 2450 531 
L 3481 531 
L 3481 0 
L 794 0 
L 794 531 
z
" transform="scale(0.015625)"/>
       </defs>
       <use xlink:href="#DejaVuSans-31"/>
       <use xlink:href="#DejaVuSans-30" x="63.623047"/>
       <use xlink:href="#DejaVuSans-30" x="127.246094"/>
       <use xlink:href="#DejaVuSans-30" x="190.869141"/>
       <use xlink:href="#DejaVuSans-30" x="254.492188"/>
      </g>
     </g>
    </g>
    <g id="xtick_3">
     <g id="line2d_3">
      <g>
       <use xlink:href="#m1542c41a23" x="156.284675" y="307.584" style="stroke: #000000; stroke-width: 0.8"/>
      </g>
     </g>
     <g id="text_3">
      <!-- 20000 -->
      <g transform="translate(140.378425 322.182437)scale(0.1 -0.1)">
       <defs>
        <path id="DejaVuSans-32" d="M 1228 531 
L 3431 531 
L 3431 0 
L 469 0 
L 469 531 
Q 828 903 1448 1529 
Q 2069 2156 2228 2338 
Q 2531 2678 2651 2914 
Q 2772 3150 2772 3378 
Q 2772 3750 2511 3984 
Q 2250 4219 1831 4219 
Q 1534 4219 1204 4116 
Q 875 4013 500 3803 
L 500 4441 
Q 881 4594 1212 4672 
Q 1544 4750 1819 4750 
Q 2544 4750 2975 4387 
Q 3406 4025 3406 3419 
Q 3406 3131 3298 2873 
Q 3191 2616 2906 2266 
Q 2828 2175 2409 1742 
Q 1991 1309 1228 531 
z
" transform="scale(0.015625)"/>
       </defs>
       <use xlink:href="#DejaVuSans-32"/>
       <use xlink:href="#DejaVuSans-30" x="63.623047"/>
       <use xlink:href="#DejaVuSans-30" x="127.246094"/>
       <use xlink:href="#DejaVuSans-30" x="190.869141"/>
       <use xlink:href="#DejaVuSans-30" x="254.492188"/>
      </g>
     </g>
    </g>
    <g id="xtick_4">
     <g id="line2d_4">
      <g>
       <use xlink:href="#m1542c41a23" x="197.510649" y="307.584" style="stroke: #000000; stroke-width: 0.8"/>
      </g>
     </g>
     <g id="text_4">
      <!-- 30000 -->
      <g transform="translate(181.604399 322.182437)scale(0.1 -0.1)">
       <defs>
        <path id="DejaVuSans-33" d="M 2597 2516 
Q 3050 2419 3304 2112 
Q 3559 1806 3559 1356 
Q 3559 666 3084 287 
Q 2609 -91 1734 -91 
Q 1441 -91 1130 -33 
Q 819 25 488 141 
L 488 750 
Q 750 597 1062 519 
Q 1375 441 1716 441 
Q 2309 441 2620 675 
Q 2931 909 2931 1356 
Q 2931 1769 2642 2001 
Q 2353 2234 1838 2234 
L 1294 2234 
L 1294 2753 
L 1863 2753 
Q 2328 2753 2575 2939 
Q 2822 3125 2822 3475 
Q 2822 3834 2567 4026 
Q 2313 4219 1838 4219 
Q 1578 4219 1281 4162 
Q 984 4106 628 3988 
L 628 4550 
Q 988 4650 1302 4700 
Q 1616 4750 1894 4750 
Q 2613 4750 3031 4423 
Q 3450 4097 3450 3541 
Q 3450 3153 3228 2886 
Q 3006 2619 2597 2516 
z
" transform="scale(0.015625)"/>
       </defs>
       <use xlink:href="#DejaVuSans-33"/>
       <use xlink:href="#DejaVuSans-30" x="63.623047"/>
       <use xlink:href="#DejaVuSans-30" x="127.246094"/>
       <use xlink:href="#DejaVuSans-30" x="190.869141"/>
       <use xlink:href="#DejaVuSans-30" x="254.492188"/>
      </g>
     </g>
    </g>
    <g id="xtick_5">
     <g id="line2d_5">
      <g>
       <use xlink:href="#m1542c41a23" x="238.736623" y="307.584" style="stroke: #000000; stroke-width: 0.8"/>
      </g>
     </g>
     <g id="text_5">
      <!-- 40000 -->
      <g transform="translate(222.830373 322.182437)scale(0.1 -0.1)">
       <defs>
        <path id="DejaVuSans-34" d="M 2419 4116 
L 825 1625 
L 2419 1625 
L 2419 4116 
z
M 2253 4666 
L 3047 4666 
L 3047 1625 
L 3713 1625 
L 3713 1100 
L 3047 1100 
L 3047 0 
L 2419 0 
L 2419 1100 
L 313 1100 
L 313 1709 
L 2253 4666 
z
" transform="scale(0.015625)"/>
       </defs>
       <use xlink:href="#DejaVuSans-34"/>
       <use xlink:href="#DejaVuSans-30" x="63.623047"/>
       <use xlink:href="#DejaVuSans-30" x="127.246094"/>
       <use xlink:href="#DejaVuSans-30" x="190.869141"/>
       <use xlink:href="#DejaVuSans-30" x="254.492188"/>
      </g>
     </g>
    </g>
    <g id="xtick_6">
     <g id="line2d_6">
      <g>
       <use xlink:href="#m1542c41a23" x="279.962597" y="307.584" style="stroke: #000000; stroke-width: 0.8"/>
      </g>
     </g>
     <g id="text_6">
      <!-- 50000 -->
      <g transform="translate(264.056347 322.182437)scale(0.1 -0.1)">
       <defs>
        <path id="DejaVuSans-35" d="M 691 4666 
L 3169 4666 
L 3169 4134 
L 1269 4134 
L 1269 2991 
Q 1406 3038 1543 3061 
Q 1681 3084 1819 3084 
Q 2600 3084 3056 2656 
Q 3513 2228 3513 1497 
Q 3513 744 3044 326 
Q 2575 -91 1722 -91 
Q 1428 -91 1123 -41 
Q 819 9 494 109 
L 494 744 
Q 775 591 1075 516 
Q 1375 441 1709 441 
Q 2250 441 2565 725 
Q 2881 1009 2881 1497 
Q 2881 1984 2565 2268 
Q 2250 2553 1709 2553 
Q 1456 2553 1204 2497 
Q 953 2441 691 2322 
L 691 4666 
z
" transform="scale(0.015625)"/>
       </defs>
       <use xlink:href="#DejaVuSans-35"/>
       <use xlink:href="#DejaVuSans-30" x="63.623047"/>
       <use xlink:href="#DejaVuSans-30" x="127.246094"/>
       <use xlink:href="#DejaVuSans-30" x="190.869141"/>
       <use xlink:href="#DejaVuSans-30" x="254.492188"/>
      </g>
     </g>
    </g>
    <g id="xtick_7">
     <g id="line2d_7">
      <g>
       <use xlink:href="#m1542c41a23" x="321.188571" y="307.584" style="stroke: #000000; stroke-width: 0.8"/>
      </g>
     </g>
     <g id="text_7">
      <!-- 60000 -->
      <g transform="translate(305.282321 322.182437)scale(0.1 -0.1)">
       <defs>
        <path id="DejaVuSans-36" d="M 2113 2584 
Q 1688 2584 1439 2293 
Q 1191 2003 1191 1497 
Q 1191 994 1439 701 
Q 1688 409 2113 409 
Q 2538 409 2786 701 
Q 3034 994 3034 1497 
Q 3034 2003 2786 2293 
Q 2538 2584 2113 2584 
z
M 3366 4563 
L 3366 3988 
Q 3128 4100 2886 4159 
Q 2644 4219 2406 4219 
Q 1781 4219 1451 3797 
Q 1122 3375 1075 2522 
Q 1259 2794 1537 2939 
Q 1816 3084 2150 3084 
Q 2853 3084 3261 2657 
Q 3669 2231 3669 1497 
Q 3669 778 3244 343 
Q 2819 -91 2113 -91 
Q 1303 -91 875 529 
Q 447 1150 447 2328 
Q 447 3434 972 4092 
Q 1497 4750 2381 4750 
Q 2619 4750 2861 4703 
Q 3103 4656 3366 4563 
z
" transform="scale(0.015625)"/>
       </defs>
       <use xlink:href="#DejaVuSans-36"/>
       <use xlink:href="#DejaVuSans-30" x="63.623047"/>
       <use xlink:href="#DejaVuSans-30" x="127.246094"/>
       <use xlink:href="#DejaVuSans-30" x="190.869141"/>
       <use xlink:href="#DejaVuSans-30" x="254.492188"/>
      </g>
     </g>
    </g>
    <g id="xtick_8">
     <g id="line2d_8">
      <g>
       <use xlink:href="#m1542c41a23" x="362.414545" y="307.584" style="stroke: #000000; stroke-width: 0.8"/>
      </g>
     </g>
     <g id="text_8">
      <!-- 70000 -->
      <g transform="translate(346.508295 322.182437)scale(0.1 -0.1)">
       <defs>
        <path id="DejaVuSans-37" d="M 525 4666 
L 3525 4666 
L 3525 4397 
L 1831 0 
L 1172 0 
L 2766 4134 
L 525 4134 
L 525 4666 
z
" transform="scale(0.015625)"/>
       </defs>
       <use xlink:href="#DejaVuSans-37"/>
       <use xlink:href="#DejaVuSans-30" x="63.623047"/>
       <use xlink:href="#DejaVuSans-30" x="127.246094"/>
       <use xlink:href="#DejaVuSans-30" x="190.869141"/>
       <use xlink:href="#DejaVuSans-30" x="254.492188"/>
      </g>
     </g>
    </g>
    <g id="xtick_9">
     <g id="line2d_9">
      <g>
       <use xlink:href="#m1542c41a23" x="403.640519" y="307.584" style="stroke: #000000; stroke-width: 0.8"/>
      </g>
     </g>
     <g id="text_9">
      <!-- 80000 -->
      <g transform="translate(387.734269 322.182437)scale(0.1 -0.1)">
       <defs>
        <path id="DejaVuSans-38" d="M 2034 2216 
Q 1584 2216 1326 1975 
Q 1069 1734 1069 1313 
Q 1069 891 1326 650 
Q 1584 409 2034 409 
Q 2484 409 2743 651 
Q 3003 894 3003 1313 
Q 3003 1734 2745 1975 
Q 2488 2216 2034 2216 
z
M 1403 2484 
Q 997 2584 770 2862 
Q 544 3141 544 3541 
Q 544 4100 942 4425 
Q 1341 4750 2034 4750 
Q 2731 4750 3128 4425 
Q 3525 4100 3525 3541 
Q 3525 3141 3298 2862 
Q 3072 2584 2669 2484 
Q 3125 2378 3379 2068 
Q 3634 1759 3634 1313 
Q 3634 634 3220 271 
Q 2806 -91 2034 -91 
Q 1263 -91 848 271 
Q 434 634 434 1313 
Q 434 1759 690 2068 
Q 947 2378 1403 2484 
z
M 1172 3481 
Q 1172 3119 1398 2916 
Q 1625 2713 2034 2713 
Q 2441 2713 2670 2916 
Q 2900 3119 2900 3481 
Q 2900 3844 2670 4047 
Q 2441 4250 2034 4250 
Q 1625 4250 1398 4047 
Q 1172 3844 1172 3481 
z
" transform="scale(0.015625)"/>
       </defs>
       <use xlink:href="#DejaVuSans-38"/>
       <use xlink:href="#DejaVuSans-30" x="63.623047"/>
       <use xlink:href="#DejaVuSans-30" x="127.246094"/>
       <use xlink:href="#DejaVuSans-30" x="190.869141"/>
       <use xlink:href="#DejaVuSans-30" x="254.492188"/>
      </g>
     </g>
    </g>
    <g id="text_10">
     <!-- Distance to sea (m) -->
     <g transform="translate(186.993594 335.860562)scale(0.1 -0.1)">
      <defs>
       <path id="DejaVuSans-44" d="M 1259 4147 
L 1259 519 
L 2022 519 
Q 2988 519 3436 956 
Q 3884 1394 3884 2338 
Q 3884 3275 3436 3711 
Q 2988 4147 2022 4147 
L 1259 4147 
z
M 628 4666 
L 1925 4666 
Q 3281 4666 3915 4102 
Q 4550 3538 4550 2338 
Q 4550 1131 3912 565 
Q 3275 0 1925 0 
L 628 0 
L 628 4666 
z
" transform="scale(0.015625)"/>
       <path id="DejaVuSans-69" d="M 603 3500 
L 1178 3500 
L 1178 0 
L 603 0 
L 603 3500 
z
M 603 4863 
L 1178 4863 
L 1178 4134 
L 603 4134 
L 603 4863 
z
" transform="scale(0.015625)"/>
       <path id="DejaVuSans-73" d="M 2834 3397 
L 2834 2853 
Q 2591 2978 2328 3040 
Q 2066 3103 1784 3103 
Q 1356 3103 1142 2972 
Q 928 2841 928 2578 
Q 928 2378 1081 2264 
Q 1234 2150 1697 2047 
L 1894 2003 
Q 2506 1872 2764 1633 
Q 3022 1394 3022 966 
Q 3022 478 2636 193 
Q 2250 -91 1575 -91 
Q 1294 -91 989 -36 
Q 684 19 347 128 
L 347 722 
Q 666 556 975 473 
Q 1284 391 1588 391 
Q 1994 391 2212 530 
Q 2431 669 2431 922 
Q 2431 1156 2273 1281 
Q 2116 1406 1581 1522 
L 1381 1569 
Q 847 1681 609 1914 
Q 372 2147 372 2553 
Q 372 3047 722 3315 
Q 1072 3584 1716 3584 
Q 2034 3584 2315 3537 
Q 2597 3491 2834 3397 
z
" transform="scale(0.015625)"/>
       <path id="DejaVuSans-74" d="M 1172 4494 
L 1172 3500 
L 2356 3500 
L 2356 3053 
L 1172 3053 
L 1172 1153 
Q 1172 725 1289 603 
Q 1406 481 1766 481 
L 2356 481 
L 2356 0 
L 1766 0 
Q 1100 0 847 248 
Q 594 497 594 1153 
L 594 3053 
L 172 3053 
L 172 3500 
L 594 3500 
L 594 4494 
L 1172 4494 
z
" transform="scale(0.015625)"/>
       <path id="DejaVuSans-61" d="M 2194 1759 
Q 1497 1759 1228 1600 
Q 959 1441 959 1056 
Q 959 750 1161 570 
Q 1363 391 1709 391 
Q 2188 391 2477 730 
Q 2766 1069 2766 1631 
L 2766 1759 
L 2194 1759 
z
M 3341 1997 
L 3341 0 
L 2766 0 
L 2766 531 
Q 2569 213 2275 61 
Q 1981 -91 1556 -91 
Q 1019 -91 701 211 
Q 384 513 384 1019 
Q 384 1609 779 1909 
Q 1175 2209 1959 2209 
L 2766 2209 
L 2766 2266 
Q 2766 2663 2505 2880 
Q 2244 3097 1772 3097 
Q 1472 3097 1187 3025 
Q 903 2953 641 2809 
L 641 3341 
Q 956 3463 1253 3523 
Q 1550 3584 1831 3584 
Q 2591 3584 2966 3190 
Q 3341 2797 3341 1997 
z
" transform="scale(0.015625)"/>
       <path id="DejaVuSans-6e" d="M 3513 2113 
L 3513 0 
L 2938 0 
L 2938 2094 
Q 2938 2591 2744 2837 
Q 2550 3084 2163 3084 
Q 1697 3084 1428 2787 
Q 1159 2491 1159 1978 
L 1159 0 
L 581 0 
L 581 3500 
L 1159 3500 
L 1159 2956 
Q 1366 3272 1645 3428 
Q 1925 3584 2291 3584 
Q 2894 3584 3203 3211 
Q 3513 2838 3513 2113 
z
" transform="scale(0.015625)"/>
       <path id="DejaVuSans-63" d="M 3122 3366 
L 3122 2828 
Q 2878 2963 2633 3030 
Q 2388 3097 2138 3097 
Q 1578 3097 1268 2742 
Q 959 2388 959 1747 
Q 959 1106 1268 751 
Q 1578 397 2138 397 
Q 2388 397 2633 464 
Q 2878 531 3122 666 
L 3122 134 
Q 2881 22 2623 -34 
Q 2366 -91 2075 -91 
Q 1284 -91 818 406 
Q 353 903 353 1747 
Q 353 2603 823 3093 
Q 1294 3584 2113 3584 
Q 2378 3584 2631 3529 
Q 2884 3475 3122 3366 
z
" transform="scale(0.015625)"/>
       <path id="DejaVuSans-65" d="M 3597 1894 
L 3597 1613 
L 953 1613 
Q 991 1019 1311 708 
Q 1631 397 2203 397 
Q 2534 397 2845 478 
Q 3156 559 3463 722 
L 3463 178 
Q 3153 47 2828 -22 
Q 2503 -91 2169 -91 
Q 1331 -91 842 396 
Q 353 884 353 1716 
Q 353 2575 817 3079 
Q 1281 3584 2069 3584 
Q 2775 3584 3186 3129 
Q 3597 2675 3597 1894 
z
M 3022 2063 
Q 3016 2534 2758 2815 
Q 2500 3097 2075 3097 
Q 1594 3097 1305 2825 
Q 1016 2553 972 2059 
L 3022 2063 
z
" transform="scale(0.015625)"/>
       <path id="DejaVuSans-20" transform="scale(0.015625)"/>
       <path id="DejaVuSans-6f" d="M 1959 3097 
Q 1497 3097 1228 2736 
Q 959 2375 959 1747 
Q 959 1119 1226 758 
Q 1494 397 1959 397 
Q 2419 397 2687 759 
Q 2956 1122 2956 1747 
Q 2956 2369 2687 2733 
Q 2419 3097 1959 3097 
z
M 1959 3584 
Q 2709 3584 3137 3096 
Q 3566 2609 3566 1747 
Q 3566 888 3137 398 
Q 2709 -91 1959 -91 
Q 1206 -91 779 398 
Q 353 888 353 1747 
Q 353 2609 779 3096 
Q 1206 3584 1959 3584 
z
" transform="scale(0.015625)"/>
       <path id="DejaVuSans-28" d="M 1984 4856 
Q 1566 4138 1362 3434 
Q 1159 2731 1159 2009 
Q 1159 1288 1364 580 
Q 1569 -128 1984 -844 
L 1484 -844 
Q 1016 -109 783 600 
Q 550 1309 550 2009 
Q 550 2706 781 3412 
Q 1013 4119 1484 4856 
L 1984 4856 
z
" transform="scale(0.015625)"/>
       <path id="DejaVuSans-6d" d="M 3328 2828 
Q 3544 3216 3844 3400 
Q 4144 3584 4550 3584 
Q 5097 3584 5394 3201 
Q 5691 2819 5691 2113 
L 5691 0 
L 5113 0 
L 5113 2094 
Q 5113 2597 4934 2840 
Q 4756 3084 4391 3084 
Q 3944 3084 3684 2787 
Q 3425 2491 3425 1978 
L 3425 0 
L 2847 0 
L 2847 2094 
Q 2847 2600 2669 2842 
Q 2491 3084 2119 3084 
Q 1678 3084 1418 2786 
Q 1159 2488 1159 1978 
L 1159 0 
L 581 0 
L 581 3500 
L 1159 3500 
L 1159 2956 
Q 1356 3278 1631 3431 
Q 1906 3584 2284 3584 
Q 2666 3584 2933 3390 
Q 3200 3197 3328 2828 
z
" transform="scale(0.015625)"/>
       <path id="DejaVuSans-29" d="M 513 4856 
L 1013 4856 
Q 1481 4119 1714 3412 
Q 1947 2706 1947 2009 
Q 1947 1309 1714 600 
Q 1481 -109 1013 -844 
L 513 -844 
Q 928 -128 1133 580 
Q 1338 1288 1338 2009 
Q 1338 2731 1133 3434 
Q 928 4138 513 4856 
z
" transform="scale(0.015625)"/>
      </defs>
      <use xlink:href="#DejaVuSans-44"/>
      <use xlink:href="#DejaVuSans-69" x="77.001953"/>
      <use xlink:href="#DejaVuSans-73" x="104.785156"/>
      <use xlink:href="#DejaVuSans-74" x="156.884766"/>
      <use xlink:href="#DejaVuSans-61" x="196.09375"/>
      <use xlink:href="#DejaVuSans-6e" x="257.373047"/>
      <use xlink:href="#DejaVuSans-63" x="320.751953"/>
      <use xlink:href="#DejaVuSans-65" x="375.732422"/>
      <use xlink:href="#DejaVuSans-20" x="437.255859"/>
      <use xlink:href="#DejaVuSans-74" x="469.042969"/>
      <use xlink:href="#DejaVuSans-6f" x="508.251953"/>
      <use xlink:href="#DejaVuSans-20" x="569.433594"/>
      <use xlink:href="#DejaVuSans-73" x="601.220703"/>
      <use xlink:href="#DejaVuSans-65" x="653.320312"/>
      <use xlink:href="#DejaVuSans-61" x="714.84375"/>
      <use xlink:href="#DejaVuSans-20" x="776.123047"/>
      <use xlink:href="#DejaVuSans-28" x="807.910156"/>
      <use xlink:href="#DejaVuSans-6d" x="846.923828"/>
      <use xlink:href="#DejaVuSans-29" x="944.335938"/>
     </g>
    </g>
   </g>
   <g id="matplotlib.axis_2">
    <g id="ytick_1">
     <g id="line2d_10">
      <defs>
       <path id="m0ba4fbc4f9" d="M 0 0 
L -3.5 0 
" style="stroke: #000000; stroke-width: 0.8"/>
      </defs>
      <g>
       <use xlink:href="#m0ba4fbc4f9" x="57.6" y="295.488" style="stroke: #000000; stroke-width: 0.8"/>
      </g>
     </g>
     <g id="text_11">
      <!-- 0 -->
      <g transform="translate(44.2375 299.287219)scale(0.1 -0.1)">
       <use xlink:href="#DejaVuSans-30"/>
      </g>
     </g>
    </g>
    <g id="ytick_2">
     <g id="line2d_11">
      <g>
       <use xlink:href="#m0ba4fbc4f9" x="57.6" y="238.921429" style="stroke: #000000; stroke-width: 0.8"/>
      </g>
     </g>
     <g id="text_12">
      <!-- 50 -->
      <g transform="translate(37.875 242.720648)scale(0.1 -0.1)">
       <use xlink:href="#DejaVuSans-35"/>
       <use xlink:href="#DejaVuSans-30" x="63.623047"/>
      </g>
     </g>
    </g>
    <g id="ytick_3">
     <g id="line2d_12">
      <g>
       <use xlink:href="#m0ba4fbc4f9" x="57.6" y="182.354858" style="stroke: #000000; stroke-width: 0.8"/>
      </g>
     </g>
     <g id="text_13">
      <!-- 100 -->
      <g transform="translate(31.5125 186.154077)scale(0.1 -0.1)">
       <use xlink:href="#DejaVuSans-31"/>
       <use xlink:href="#DejaVuSans-30" x="63.623047"/>
       <use xlink:href="#DejaVuSans-30" x="127.246094"/>
      </g>
     </g>
    </g>
    <g id="ytick_4">
     <g id="line2d_13">
      <g>
       <use xlink:href="#m0ba4fbc4f9" x="57.6" y="125.788287" style="stroke: #000000; stroke-width: 0.8"/>
      </g>
     </g>
     <g id="text_14">
      <!-- 150 -->
      <g transform="translate(31.5125 129.587506)scale(0.1 -0.1)">
       <use xlink:href="#DejaVuSans-31"/>
       <use xlink:href="#DejaVuSans-35" x="63.623047"/>
       <use xlink:href="#DejaVuSans-30" x="127.246094"/>
      </g>
     </g>
    </g>
    <g id="ytick_5">
     <g id="line2d_14">
      <g>
       <use xlink:href="#m0ba4fbc4f9" x="57.6" y="69.221716" style="stroke: #000000; stroke-width: 0.8"/>
      </g>
     </g>
     <g id="text_15">
      <!-- 200 -->
      <g transform="translate(31.5125 73.020935)scale(0.1 -0.1)">
       <use xlink:href="#DejaVuSans-32"/>
       <use xlink:href="#DejaVuSans-30" x="63.623047"/>
       <use xlink:href="#DejaVuSans-30" x="127.246094"/>
      </g>
     </g>
    </g>
    <g id="text_16">
     <!-- Interpolated height above sea-level (m) -->
     <g transform="translate(25.432812 274.000656)rotate(-90)scale(0.1 -0.1)">
      <defs>
       <path id="DejaVuSans-49" d="M 628 4666 
L 1259 4666 
L 1259 0 
L 628 0 
L 628 4666 
z
" transform="scale(0.015625)"/>
       <path id="DejaVuSans-72" d="M 2631 2963 
Q 2534 3019 2420 3045 
Q 2306 3072 2169 3072 
Q 1681 3072 1420 2755 
Q 1159 2438 1159 1844 
L 1159 0 
L 581 0 
L 581 3500 
L 1159 3500 
L 1159 2956 
Q 1341 3275 1631 3429 
Q 1922 3584 2338 3584 
Q 2397 3584 2469 3576 
Q 2541 3569 2628 3553 
L 2631 2963 
z
" transform="scale(0.015625)"/>
       <path id="DejaVuSans-70" d="M 1159 525 
L 1159 -1331 
L 581 -1331 
L 581 3500 
L 1159 3500 
L 1159 2969 
Q 1341 3281 1617 3432 
Q 1894 3584 2278 3584 
Q 2916 3584 3314 3078 
Q 3713 2572 3713 1747 
Q 3713 922 3314 415 
Q 2916 -91 2278 -91 
Q 1894 -91 1617 61 
Q 1341 213 1159 525 
z
M 3116 1747 
Q 3116 2381 2855 2742 
Q 2594 3103 2138 3103 
Q 1681 3103 1420 2742 
Q 1159 2381 1159 1747 
Q 1159 1113 1420 752 
Q 1681 391 2138 391 
Q 2594 391 2855 752 
Q 3116 1113 3116 1747 
z
" transform="scale(0.015625)"/>
       <path id="DejaVuSans-6c" d="M 603 4863 
L 1178 4863 
L 1178 0 
L 603 0 
L 603 4863 
z
" transform="scale(0.015625)"/>
       <path id="DejaVuSans-64" d="M 2906 2969 
L 2906 4863 
L 3481 4863 
L 3481 0 
L 2906 0 
L 2906 525 
Q 2725 213 2448 61 
Q 2172 -91 1784 -91 
Q 1150 -91 751 415 
Q 353 922 353 1747 
Q 353 2572 751 3078 
Q 1150 3584 1784 3584 
Q 2172 3584 2448 3432 
Q 2725 3281 2906 2969 
z
M 947 1747 
Q 947 1113 1208 752 
Q 1469 391 1925 391 
Q 2381 391 2643 752 
Q 2906 1113 2906 1747 
Q 2906 2381 2643 2742 
Q 2381 3103 1925 3103 
Q 1469 3103 1208 2742 
Q 947 2381 947 1747 
z
" transform="scale(0.015625)"/>
       <path id="DejaVuSans-68" d="M 3513 2113 
L 3513 0 
L 2938 0 
L 2938 2094 
Q 2938 2591 2744 2837 
Q 2550 3084 2163 3084 
Q 1697 3084 1428 2787 
Q 1159 2491 1159 1978 
L 1159 0 
L 581 0 
L 581 4863 
L 1159 4863 
L 1159 2956 
Q 1366 3272 1645 3428 
Q 1925 3584 2291 3584 
Q 2894 3584 3203 3211 
Q 3513 2838 3513 2113 
z
" transform="scale(0.015625)"/>
       <path id="DejaVuSans-67" d="M 2906 1791 
Q 2906 2416 2648 2759 
Q 2391 3103 1925 3103 
Q 1463 3103 1205 2759 
Q 947 2416 947 1791 
Q 947 1169 1205 825 
Q 1463 481 1925 481 
Q 2391 481 2648 825 
Q 2906 1169 2906 1791 
z
M 3481 434 
Q 3481 -459 3084 -895 
Q 2688 -1331 1869 -1331 
Q 1566 -1331 1297 -1286 
Q 1028 -1241 775 -1147 
L 775 -588 
Q 1028 -725 1275 -790 
Q 1522 -856 1778 -856 
Q 2344 -856 2625 -561 
Q 2906 -266 2906 331 
L 2906 616 
Q 2728 306 2450 153 
Q 2172 0 1784 0 
Q 1141 0 747 490 
Q 353 981 353 1791 
Q 353 2603 747 3093 
Q 1141 3584 1784 3584 
Q 2172 3584 2450 3431 
Q 2728 3278 2906 2969 
L 2906 3500 
L 3481 3500 
L 3481 434 
z
" transform="scale(0.015625)"/>
       <path id="DejaVuSans-62" d="M 3116 1747 
Q 3116 2381 2855 2742 
Q 2594 3103 2138 3103 
Q 1681 3103 1420 2742 
Q 1159 2381 1159 1747 
Q 1159 1113 1420 752 
Q 1681 391 2138 391 
Q 2594 391 2855 752 
Q 3116 1113 3116 1747 
z
M 1159 2969 
Q 1341 3281 1617 3432 
Q 1894 3584 2278 3584 
Q 2916 3584 3314 3078 
Q 3713 2572 3713 1747 
Q 3713 922 3314 415 
Q 2916 -91 2278 -91 
Q 1894 -91 1617 61 
Q 1341 213 1159 525 
L 1159 0 
L 581 0 
L 581 4863 
L 1159 4863 
L 1159 2969 
z
" transform="scale(0.015625)"/>
       <path id="DejaVuSans-76" d="M 191 3500 
L 800 3500 
L 1894 563 
L 2988 3500 
L 3597 3500 
L 2284 0 
L 1503 0 
L 191 3500 
z
" transform="scale(0.015625)"/>
       <path id="DejaVuSans-2d" d="M 313 2009 
L 1997 2009 
L 1997 1497 
L 313 1497 
L 313 2009 
z
" transform="scale(0.015625)"/>
      </defs>
      <use xlink:href="#DejaVuSans-49"/>
      <use xlink:href="#DejaVuSans-6e" x="29.492188"/>
      <use xlink:href="#DejaVuSans-74" x="92.871094"/>
      <use xlink:href="#DejaVuSans-65" x="132.080078"/>
      <use xlink:href="#DejaVuSans-72" x="193.603516"/>
      <use xlink:href="#DejaVuSans-70" x="234.716797"/>
      <use xlink:href="#DejaVuSans-6f" x="298.193359"/>
      <use xlink:href="#DejaVuSans-6c" x="359.375"/>
      <use xlink:href="#DejaVuSans-61" x="387.158203"/>
      <use xlink:href="#DejaVuSans-74" x="448.4375"/>
      <use xlink:href="#DejaVuSans-65" x="487.646484"/>
      <use xlink:href="#DejaVuSans-64" x="549.169922"/>
      <use xlink:href="#DejaVuSans-20" x="612.646484"/>
      <use xlink:href="#DejaVuSans-68" x="644.433594"/>
      <use xlink:href="#DejaVuSans-65" x="707.8125"/>
      <use xlink:href="#DejaVuSans-69" x="769.335938"/>
      <use xlink:href="#DejaVuSans-67" x="797.119141"/>
      <use xlink:href="#DejaVuSans-68" x="860.595703"/>
      <use xlink:href="#DejaVuSans-74" x="923.974609"/>
      <use xlink:href="#DejaVuSans-20" x="963.183594"/>
      <use xlink:href="#DejaVuSans-61" x="994.970703"/>
      <use xlink:href="#DejaVuSans-62" x="1056.25"/>
      <use xlink:href="#DejaVuSans-6f" x="1119.726562"/>
      <use xlink:href="#DejaVuSans-76" x="1180.908203"/>
      <use xlink:href="#DejaVuSans-65" x="1240.087891"/>
      <use xlink:href="#DejaVuSans-20" x="1301.611328"/>
      <use xlink:href="#DejaVuSans-73" x="1333.398438"/>
      <use xlink:href="#DejaVuSans-65" x="1385.498047"/>
      <use xlink:href="#DejaVuSans-61" x="1447.021484"/>
      <use xlink:href="#DejaVuSans-2d" x="1508.300781"/>
      <use xlink:href="#DejaVuSans-6c" x="1544.384766"/>
      <use xlink:href="#DejaVuSans-65" x="1572.167969"/>
      <use xlink:href="#DejaVuSans-76" x="1633.691406"/>
      <use xlink:href="#DejaVuSans-65" x="1692.871094"/>
      <use xlink:href="#DejaVuSans-6c" x="1754.394531"/>
      <use xlink:href="#DejaVuSans-20" x="1782.177734"/>
      <use xlink:href="#DejaVuSans-28" x="1813.964844"/>
      <use xlink:href="#DejaVuSans-6d" x="1852.978516"/>
      <use xlink:href="#DejaVuSans-29" x="1950.390625"/>
     </g>
    </g>
   </g>
   <g id="line2d_15">
    <path d="M 73.832727 295.488 
L 82.077922 274.009701 
L 85.16987 271.267378 
L 86.200519 270.51065 
L 89.292468 269.515602 
L 91.353766 270.133388 
L 92.384416 270.4925 
L 93.415065 269.989679 
L 94.445714 269.124881 
L 95.476364 268.094363 
L 97.537662 262.591473 
L 98.568312 260.257772 
L 101.66026 258.015867 
L 102.690909 257.404478 
L 103.721558 256.570455 
L 105.782857 254.162207 
L 106.813506 253.628737 
L 108.874805 253.628737 
L 109.905455 252.613067 
L 112.997403 248.753559 
L 118.150649 236.960305 
L 121.242597 229.547659 
L 122.273247 227.952362 
L 124.334545 231.0821 
L 125.365195 229.219614 
L 128.457143 202.971256 
L 131.549091 184.512657 
L 132.57974 181.280134 
L 134.641039 177.969734 
L 135.671688 178.486253 
L 137.732987 179.921245 
L 138.763636 179.545689 
L 140.824935 178.110801 
L 142.886234 177.076208 
L 143.916883 176.281083 
L 145.978182 172.058306 
L 149.07013 168.582787 
L 151.131429 166.663402 
L 153.192727 162.529033 
L 154.223377 160.36987 
L 155.254026 157.37006 
L 157.315325 150.677578 
L 160.407273 150.677578 
L 161.437922 150.020798 
L 163.499221 148.27464 
L 165.560519 146.145199 
L 168.652468 144.880816 
L 171.744416 140.120299 
L 172.775065 139.863388 
L 173.805714 140.816716 
L 174.836364 141.509118 
L 176.897662 139.939621 
L 177.928312 139.594579 
L 179.98961 141.320911 
L 181.02026 141.626927 
L 182.050909 141.626927 
L 183.081558 141.247387 
L 185.142857 139.678171 
L 187.204156 138.507954 
L 189.265455 137.649976 
L 190.296104 137.257717 
L 191.326753 137.390201 
L 193.388052 138.232933 
L 196.48 138.164606 
L 199.571948 136.01507 
L 201.633247 134.124365 
L 202.663896 133.927301 
L 204.725195 134.708341 
L 205.755844 134.02696 
L 207.817143 131.728069 
L 209.878442 129.635983 
L 210.909091 130.400939 
L 214.001039 136.857198 
L 215.031688 137.779648 
L 217.092987 135.266593 
L 218.123636 131.322578 
L 221.215584 115.330733 
L 222.246234 112.923766 
L 223.276883 111.080979 
L 225.338182 111.080979 
L 226.368831 111.226375 
L 229.460779 117.549474 
L 230.491429 118.631214 
L 231.522078 117.446942 
L 232.552727 116.982123 
L 235.644675 118.810929 
L 236.675325 119.000298 
L 237.705974 119.000298 
L 238.736623 119.238784 
L 240.797922 120.099139 
L 242.859221 118.229292 
L 244.920519 116.845829 
L 246.981818 115.623513 
L 250.073766 116.903382 
L 253.165714 120.09107 
L 255.227013 118.742024 
L 256.257662 118.033701 
L 257.288312 118.140741 
L 259.34961 118.849013 
L 260.38026 118.114489 
L 263.472208 113.475138 
L 264.502857 114.645873 
L 267.594805 118.915631 
L 269.656104 108.832993 
L 270.686753 103.593495 
L 271.717403 100.457964 
L 273.778701 98.642023 
L 275.84 94.42656 
L 276.870649 93.396743 
L 279.962597 97.371829 
L 282.023896 98.041995 
L 284.085195 98.607401 
L 286.146494 97.379305 
L 287.177143 96.716896 
L 288.207792 97.332637 
L 291.29974 103.149195 
L 294.391688 108.397598 
L 295.422338 108.066031 
L 298.514286 105.135155 
L 301.606234 102.529246 
L 302.636883 101.437914 
L 304.698182 98.654214 
L 305.728831 97.792794 
L 310.882078 106.225056 
L 312.943377 110.469776 
L 313.974026 111.403742 
L 319.127273 88.813487 
L 320.157922 88.45435 
L 323.24987 88.45435 
L 324.280519 88.978262 
L 327.372468 90.952629 
L 328.403117 91.45613 
L 329.433766 91.535735 
L 335.617662 83.005793 
L 338.70961 76.809446 
L 339.74026 74.711514 
L 340.770909 73.30192 
L 343.862857 70.748992 
L 345.924156 68.896452 
L 346.954805 68.183245 
L 351.077403 71.045546 
L 352.108052 75.696343 
L 355.2 108.369116 
L 356.230649 113.766856 
L 359.322597 120.97362 
L 360.353247 120.390365 
L 367.567792 113.379411 
L 369.629091 111.066292 
L 370.65974 109.652852 
L 374.782338 75.253193 
L 375.812987 69.244704 
L 378.904935 54.658189 
L 379.935584 54.283092 
L 383.027532 53.568 
L 384.058182 58.162428 
L 388.180779 143.433451 
L 392.303377 264.306056 
L 393.334026 284.357156 
L 396.425974 242.720174 
L 397.456623 264.80335 
L 398.487273 295.442499 
L 398.487273 295.442499 
" clip-path="url(#p324e0e4962)" style="fill: none; stroke: #1f77b4; stroke-width: 1.5; stroke-linecap: square"/>
   </g>
   <g id="patch_3">
    <path d="M 57.6 307.584 
L 57.6 41.472 
" style="fill: none; stroke: #000000; stroke-width: 0.8; stroke-linejoin: miter; stroke-linecap: square"/>
   </g>
   <g id="patch_4">
    <path d="M 414.72 307.584 
L 414.72 41.472 
" style="fill: none; stroke: #000000; stroke-width: 0.8; stroke-linejoin: miter; stroke-linecap: square"/>
   </g>
   <g id="patch_5">
    <path d="M 57.6 307.584 
L 414.72 307.584 
" style="fill: none; stroke: #000000; stroke-width: 0.8; stroke-linejoin: miter; stroke-linecap: square"/>
   </g>
   <g id="patch_6">
    <path d="M 57.6 41.472 
L 414.72 41.472 
" style="fill: none; stroke: #000000; stroke-width: 0.8; stroke-linejoin: miter; stroke-linecap: square"/>
   </g>
   <g id="text_17">
    <!-- Bomb placement with obj func. 1 and interpolated heights -->
    <g transform="translate(60.816563 35.472)scale(0.12 -0.12)">
     <defs>
      <path id="DejaVuSans-42" d="M 1259 2228 
L 1259 519 
L 2272 519 
Q 2781 519 3026 730 
Q 3272 941 3272 1375 
Q 3272 1813 3026 2020 
Q 2781 2228 2272 2228 
L 1259 2228 
z
M 1259 4147 
L 1259 2741 
L 2194 2741 
Q 2656 2741 2882 2914 
Q 3109 3088 3109 3444 
Q 3109 3797 2882 3972 
Q 2656 4147 2194 4147 
L 1259 4147 
z
M 628 4666 
L 2241 4666 
Q 2963 4666 3353 4366 
Q 3744 4066 3744 3513 
Q 3744 3084 3544 2831 
Q 3344 2578 2956 2516 
Q 3422 2416 3680 2098 
Q 3938 1781 3938 1306 
Q 3938 681 3513 340 
Q 3088 0 2303 0 
L 628 0 
L 628 4666 
z
" transform="scale(0.015625)"/>
      <path id="DejaVuSans-77" d="M 269 3500 
L 844 3500 
L 1563 769 
L 2278 3500 
L 2956 3500 
L 3675 769 
L 4391 3500 
L 4966 3500 
L 4050 0 
L 3372 0 
L 2619 2869 
L 1863 0 
L 1184 0 
L 269 3500 
z
" transform="scale(0.015625)"/>
      <path id="DejaVuSans-6a" d="M 603 3500 
L 1178 3500 
L 1178 -63 
Q 1178 -731 923 -1031 
Q 669 -1331 103 -1331 
L -116 -1331 
L -116 -844 
L 38 -844 
Q 366 -844 484 -692 
Q 603 -541 603 -63 
L 603 3500 
z
M 603 4863 
L 1178 4863 
L 1178 4134 
L 603 4134 
L 603 4863 
z
" transform="scale(0.015625)"/>
      <path id="DejaVuSans-66" d="M 2375 4863 
L 2375 4384 
L 1825 4384 
Q 1516 4384 1395 4259 
Q 1275 4134 1275 3809 
L 1275 3500 
L 2222 3500 
L 2222 3053 
L 1275 3053 
L 1275 0 
L 697 0 
L 697 3053 
L 147 3053 
L 147 3500 
L 697 3500 
L 697 3744 
Q 697 4328 969 4595 
Q 1241 4863 1831 4863 
L 2375 4863 
z
" transform="scale(0.015625)"/>
      <path id="DejaVuSans-75" d="M 544 1381 
L 544 3500 
L 1119 3500 
L 1119 1403 
Q 1119 906 1312 657 
Q 1506 409 1894 409 
Q 2359 409 2629 706 
Q 2900 1003 2900 1516 
L 2900 3500 
L 3475 3500 
L 3475 0 
L 2900 0 
L 2900 538 
Q 2691 219 2414 64 
Q 2138 -91 1772 -91 
Q 1169 -91 856 284 
Q 544 659 544 1381 
z
M 1991 3584 
L 1991 3584 
z
" transform="scale(0.015625)"/>
      <path id="DejaVuSans-2e" d="M 684 794 
L 1344 794 
L 1344 0 
L 684 0 
L 684 794 
z
" transform="scale(0.015625)"/>
     </defs>
     <use xlink:href="#DejaVuSans-42"/>
     <use xlink:href="#DejaVuSans-6f" x="68.603516"/>
     <use xlink:href="#DejaVuSans-6d" x="129.785156"/>
     <use xlink:href="#DejaVuSans-62" x="227.197266"/>
     <use xlink:href="#DejaVuSans-20" x="290.673828"/>
     <use xlink:href="#DejaVuSans-70" x="322.460938"/>
     <use xlink:href="#DejaVuSans-6c" x="385.9375"/>
     <use xlink:href="#DejaVuSans-61" x="413.720703"/>
     <use xlink:href="#DejaVuSans-63" x="475"/>
     <use xlink:href="#DejaVuSans-65" x="529.980469"/>
     <use xlink:href="#DejaVuSans-6d" x="591.503906"/>
     <use xlink:href="#DejaVuSans-65" x="688.916016"/>
     <use xlink:href="#DejaVuSans-6e" x="750.439453"/>
     <use xlink:href="#DejaVuSans-74" x="813.818359"/>
     <use xlink:href="#DejaVuSans-20" x="853.027344"/>
     <use xlink:href="#DejaVuSans-77" x="884.814453"/>
     <use xlink:href="#DejaVuSans-69" x="966.601562"/>
     <use xlink:href="#DejaVuSans-74" x="994.384766"/>
     <use xlink:href="#DejaVuSans-68" x="1033.59375"/>
     <use xlink:href="#DejaVuSans-20" x="1096.972656"/>
     <use xlink:href="#DejaVuSans-6f" x="1128.759766"/>
     <use xlink:href="#DejaVuSans-62" x="1189.941406"/>
     <use xlink:href="#DejaVuSans-6a" x="1253.417969"/>
     <use xlink:href="#DejaVuSans-20" x="1281.201172"/>
     <use xlink:href="#DejaVuSans-66" x="1312.988281"/>
     <use xlink:href="#DejaVuSans-75" x="1348.193359"/>
     <use xlink:href="#DejaVuSans-6e" x="1411.572266"/>
     <use xlink:href="#DejaVuSans-63" x="1474.951172"/>
     <use xlink:href="#DejaVuSans-2e" x="1529.931641"/>
     <use xlink:href="#DejaVuSans-20" x="1561.71875"/>
     <use xlink:href="#DejaVuSans-31" x="1593.505859"/>
     <use xlink:href="#DejaVuSans-20" x="1657.128906"/>
     <use xlink:href="#DejaVuSans-61" x="1688.916016"/>
     <use xlink:href="#DejaVuSans-6e" x="1750.195312"/>
     <use xlink:href="#DejaVuSans-64" x="1813.574219"/>
     <use xlink:href="#DejaVuSans-20" x="1877.050781"/>
     <use xlink:href="#DejaVuSans-69" x="1908.837891"/>
     <use xlink:href="#DejaVuSans-6e" x="1936.621094"/>
     <use xlink:href="#DejaVuSans-74" x="2000"/>
     <use xlink:href="#DejaVuSans-65" x="2039.208984"/>
     <use xlink:href="#DejaVuSans-72" x="2100.732422"/>
     <use xlink:href="#DejaVuSans-70" x="2141.845703"/>
     <use xlink:href="#DejaVuSans-6f" x="2205.322266"/>
     <use xlink:href="#DejaVuSans-6c" x="2266.503906"/>
     <use xlink:href="#DejaVuSans-61" x="2294.287109"/>
     <use xlink:href="#DejaVuSans-74" x="2355.566406"/>
     <use xlink:href="#DejaVuSans-65" x="2394.775391"/>
     <use xlink:href="#DejaVuSans-64" x="2456.298828"/>
     <use xlink:href="#DejaVuSans-20" x="2519.775391"/>
     <use xlink:href="#DejaVuSans-68" x="2551.5625"/>
     <use xlink:href="#DejaVuSans-65" x="2614.941406"/>
     <use xlink:href="#DejaVuSans-69" x="2676.464844"/>
     <use xlink:href="#DejaVuSans-67" x="2704.248047"/>
     <use xlink:href="#DejaVuSans-68" x="2767.724609"/>
     <use xlink:href="#DejaVuSans-74" x="2831.103516"/>
     <use xlink:href="#DejaVuSans-73" x="2870.3125"/>
    </g>
   </g>
   <g id="legend_1">
    <g id="patch_7">
     <path d="M 64.6 64.150125 
L 130.878125 64.150125 
Q 132.878125 64.150125 132.878125 62.150125 
L 132.878125 48.472 
Q 132.878125 46.472 130.878125 46.472 
L 64.6 46.472 
Q 62.6 46.472 62.6 48.472 
L 62.6 62.150125 
Q 62.6 64.150125 64.6 64.150125 
z
" style="fill: #ffffff; opacity: 0.8; stroke: #cccccc; stroke-linejoin: miter"/>
    </g>
    <g id="PathCollection_2">
     <g>
      <use xlink:href="#mfc27adacc3" x="76.6" y="55.445438" style="fill: #008000; stroke: #008000"/>
     </g>
    </g>
    <g id="text_18">
     <!-- Bombs -->
     <g transform="translate(94.6 58.070438)scale(0.1 -0.1)">
      <use xlink:href="#DejaVuSans-42"/>
      <use xlink:href="#DejaVuSans-6f" x="68.603516"/>
      <use xlink:href="#DejaVuSans-6d" x="129.785156"/>
      <use xlink:href="#DejaVuSans-62" x="227.197266"/>
      <use xlink:href="#DejaVuSans-73" x="290.673828"/>
     </g>
    </g>
   </g>
  </g>
 </g>
 <defs>
  <clipPath id="p324e0e4962">
   <rect x="57.6" y="41.472" width="357.12" height="266.112"/>
  </clipPath>
 </defs>
</svg>
